<svg width="362" height="429" viewBox="0 0 362 429" fill="none" xmlns="http://www.w3.org/2000/svg">
<path d="M302.132 166.215C302.132 166.215 206.617 165.027 186.713 200.645C166.808 236.262 67.2842 253.025 30.6172 236.262C-6.04979 219.503 -13.3819 193.313 28.5219 170.264C81.0712 141.362 75.1261 179.81 79.8563 173.405C106.288 137.599 155.2 94.3279 189.857 103.216C230.715 113.693 200.334 152.455 200.334 152.455C200.334 152.455 262.324 133.739 302.132 166.215Z" fill="white"/>
<path d="M119.665 256.693C119.665 256.693 206.356 245.08 232.546 206.318C258.736 167.556 359.572 194.534 359.572 194.534C359.572 194.534 313.739 200.035 293.834 225.176C293.834 225.176 316.622 215.222 338.621 220.463C338.621 220.463 322.908 230.678 304.834 249.533C286.804 268.348 154.237 279.741 119.665 256.693Z" fill="white"/>
<path d="M194.69 340.984C194.69 340.984 201.099 335.674 186.064 336.296C171.208 336.912 155.332 338.988 161.906 342.725C168.484 346.462 188.527 344.175 194.69 340.984Z" fill="#FFB287"/>
<path d="M226.604 335.711C226.604 335.711 236.111 327.833 213.806 328.756C191.767 329.67 168.215 332.748 177.97 338.296C187.725 343.841 217.464 340.448 226.604 335.711Z" fill="#FFB287"/>
<path d="M220.612 346.829C220.612 346.829 224.968 343.221 214.75 343.642C204.654 344.059 193.863 345.472 198.331 348.011C202.8 350.553 216.425 349.001 220.612 346.829Z" fill="#FFB287"/>
<path d="M342.285 331.86C345.952 329.765 316.617 330.55 301.923 329.414C300.911 329.335 299.778 329.51 298.567 329.537C291.761 328.484 254.965 327.16 240.665 327.931C226.418 328.699 210.983 333.367 224.995 337.091C235.501 339.881 242.032 341.348 265.809 339.98C270.669 339.699 283.837 337.398 294.35 335.138C298.067 335.118 310.02 335.945 314.31 335.697C323.867 335.144 339.16 333.645 342.285 331.86Z" fill="#FFB287"/>
<path d="M333.997 317.772C333.997 317.772 337.724 306.967 344.43 307.338C351.137 307.712 347.409 314.419 347.409 314.419C347.409 314.419 350.389 309.947 354.116 313.674C357.843 317.401 354.116 320.006 354.116 320.006C354.116 320.006 357.095 318.143 357.469 321.496C357.843 324.849 342.937 329.692 337.35 328.202C331.762 326.713 333.997 317.772 333.997 317.772Z" fill="#288453"/>
<path d="M166.547 307.504C123.713 308.374 152.141 315.624 152.141 315.624C152.141 315.624 -1.98154 313.475 42.14 322.171C42.14 322.171 14.9766 326.961 7.56835 331.599C2.75202 334.614 47.8699 345.614 73.044 344.694C108.926 343.383 113.551 339.282 113.379 335.789C113.163 331.476 87.9597 331.079 95.5698 328.98C106.788 325.885 114.709 330.298 157.904 325.313C185.144 322.171 205.832 323.217 205.832 323.217C205.832 323.217 184.395 329.788 205.349 328.1C245.972 324.826 254.505 328.908 259.524 322.168C266.965 312.178 219.589 306.425 166.547 307.504Z" fill="#FFB287"/>
<path d="M299.736 139.634L308.541 96.3434C308.594 96.0885 311.59 95.5986 311.59 95.5986L315.437 96.7539L314.01 147.655C313.99 148.423 313.106 148.833 312.408 148.396L300.292 140.832C299.872 140.571 299.647 140.084 299.736 139.634Z" fill="#1D2538"/>
<path d="M304.043 140.515L311.256 95.8237C311.358 95.3371 317.091 96.8995 317.075 97.4126L315.542 146.192C315.496 147.661 313.811 148.436 312.49 147.612L305.056 142.766C304.264 142.272 303.854 141.359 304.043 140.515Z" fill="#1D2538"/>
<path d="M303.645 120.428C303.645 120.428 302.993 119.581 305.486 119.432C307.988 119.28 316.184 126.334 316.184 126.334L315.605 147.37L299.584 140.389L303.645 120.428Z" fill="#C73F37"/>
<path d="M300.309 136.804C300.309 136.804 307.376 102.302 307.71 100.577C308.104 98.5348 309.921 98.4222 309.706 101.094C309.564 102.864 303.096 137.631 303.096 137.631L300.309 136.804Z" fill="#F4E8D8"/>
<path d="M304.705 115.145C304.705 115.145 305.254 114.579 306.37 114.679C310.938 115.086 316.3 122.216 316.3 122.216L316.161 126.42C316.161 126.42 308.879 118.929 307.121 118.479C304.622 117.84 303.814 119.694 303.814 119.694L304.705 115.145Z" fill="#C73F37"/>
<path d="M315.241 131.498C315.241 131.498 309.425 124.613 304.314 125.228C302.163 125.487 302.838 126.202 302.838 126.202C302.838 126.202 302.411 126.506 304.189 126.463C306.83 126.4 315.241 131.498 315.241 131.498Z" fill="#1D2538"/>
<path d="M315.886 135.987C313.384 131.809 305.088 129.26 305.088 129.26C305.088 129.26 314.433 134.749 315.797 137.178L315.886 135.987Z" fill="#1D2538"/>
<path d="M301.179 134.292C301.179 134.292 302.205 132.739 303.069 133.067C303.933 133.395 309.63 136.894 310.901 138.625C312.156 140.336 303.255 134.613 302.798 134.421C302.338 134.232 301.179 134.292 301.179 134.292Z" fill="#1D2538"/>
<path d="M315.695 142.666C315.695 142.666 314.893 141.382 313.245 140.902C311.596 140.422 315.691 143.924 315.691 143.924L315.695 142.666Z" fill="#1D2538"/>
<path d="M258.084 329.894C299.994 329.053 329.19 331.344 337.049 328.203C337.049 328.203 344.381 310.645 335.476 298.073C316.949 278.861 304.046 271.36 274.976 274.501C245.906 277.643 221.46 295.802 213.602 313.088C205.743 330.374 214.475 330.679 217.226 331.073C219.977 331.466 245.032 330.159 258.084 329.894Z" fill="#422D21"/>
<path d="M297.79 277.795C283.384 272.75 274.5 272.095 258.406 280.347C242.311 288.603 238.63 290.887 236.293 302.026C233.956 313.168 249.538 311.841 260.699 309.202C271.868 306.567 314.288 283.571 297.79 277.795Z" fill="#F4E8D8"/>
<path d="M324.341 301.972C309.349 308.013 298.581 309.744 282.692 300.84C265.777 291.363 262.235 288.691 270.428 278.314C276.8 270.24 299.488 276.136 308.25 279.072C316.261 281.757 336.655 297.01 324.341 301.972Z" fill="#F4E8D8"/>
<path d="M273.665 130.717L333.831 165.61C334.48 165.987 339.468 163.127 339.925 162.475C340.382 161.823 338.426 157.106 337.383 156.487L279.302 121.683C278.452 121.177 274.254 122.269 274.254 122.269L273.665 130.717Z" fill="#F6874E"/>
<path d="M301.954 138.965L305.49 145.251L277.979 128.776C277.204 128.296 276.675 126.615 276.675 126.615L275.496 122.636L301.954 138.965Z" fill="#F4E8D8"/>
<path d="M339.929 162.471C339.929 162.471 339.498 162.958 338.532 163.54C336.913 164.514 334.801 166.159 333.599 165.527C332.398 164.894 274.628 131.415 273.668 130.717C272.94 130.187 272.622 125.215 272.622 124.606C272.622 123.994 274.261 122.272 274.261 122.272C274.261 122.272 274.807 127.271 275.767 128.363C276.727 129.455 334.914 163.196 334.914 163.196C335.695 163.454 338.356 162.888 339.929 162.471Z" fill="#C73F37"/>
<path d="M274.297 277.931L297.601 146.135C297.654 145.844 297.757 145.563 297.909 145.308C298.71 143.961 299.925 143.745 301.696 144.762C301.696 144.762 311.471 150.468 312.345 150.995C313.219 151.518 314.258 152.541 314.136 153.964L303.209 281.393C303.119 282.446 302.368 283.32 301.342 283.571L290.319 286.269C289.839 286.388 289.332 286.355 288.869 286.183L277.101 281.764C276.823 281.658 276.565 281.506 276.34 281.307L275.095 280.211C274.45 279.639 274.145 278.775 274.297 277.931Z" fill="#F6BE4A"/>
<path d="M297.737 145.593C298.286 144.467 299.478 143.802 299.365 144.497L276.859 280.46C276.777 280.953 276.184 281.168 275.807 280.834L274.321 279.523C274.155 279.377 274.076 279.152 274.115 278.934L297.654 145.804C297.671 145.732 297.697 145.659 297.737 145.593Z" fill="#F6874E"/>
<path d="M289.773 286.157L307.714 148.396" stroke="#F4E8D8" stroke-width="2" stroke-miterlimit="10"/>
<path d="M294.606 182.488L306.317 210.247L307.135 202.452L295.847 173.024L294.606 182.488Z" fill="#F4E8D8"/>
<path d="M296.393 168.923L308.104 199.641L310.6 180.28L299.313 150.853L296.393 168.923Z" fill="#F4E8D8"/>
<path d="M330.239 296.766C330.239 296.766 331.812 302.79 318.978 306.981C318.975 306.978 336.522 306.716 330.239 296.766Z" fill="#F4E8D8"/>
<path d="M307.975 226.487L304.572 225.438L301.954 230.155L304.046 234.607L297.237 242.724L295.142 245.541" fill="#F4E8D8"/>
<path d="M307.975 226.487L304.572 225.438L301.954 230.155L304.046 234.607L297.237 242.724L295.142 245.541" stroke="#F4E8D8" stroke-width="2" stroke-miterlimit="10"/>
<path d="M238.004 304.333C238.004 304.333 244.985 312.317 257.693 310.556C263.188 310.096 279.626 304.726 279.626 304.726C279.626 304.726 249.765 310.304 238.004 304.333Z" fill="#422D21"/>
<path d="M321.07 155.334L324.738 153.765L326.572 158.74L321.07 155.334Z" fill="#C73F37"/>
<path d="M313.758 78.2034C308.521 77.0084 304.145 81.2058 304.049 87.2932C303.96 93.0728 307.799 98.3327 312.573 99.296C317.29 100.249 321.487 96.7074 322.023 91.1496C322.586 85.3005 318.925 79.3818 313.758 78.2034ZM312.54 93.6421C310.732 93.0562 309.193 90.5273 309.107 87.942C309.018 85.2972 310.481 83.6288 312.367 84.2743C314.238 84.9132 315.754 87.5713 315.764 90.1565C315.774 92.6855 314.337 94.2247 312.54 93.6421Z" fill="#1D2538"/>
<path d="M314.609 81.9407C311.636 81.2059 309.144 83.6256 309.064 87.2404C309.048 87.9488 309.13 88.6505 309.289 89.3225C309.187 88.8723 309.12 88.4089 309.107 87.9421C309.018 85.2973 310.481 83.6289 312.368 84.2744C314.238 84.9133 315.754 87.5714 315.764 90.1566C315.774 92.6856 314.334 94.2249 312.54 93.6423C311.421 93.2782 310.405 92.1692 309.772 90.7657C310.636 92.7386 312.209 94.2646 314.026 94.685C316.817 95.3272 319.246 93.1458 319.481 89.7263C319.73 86.1977 317.558 82.669 314.609 81.9407Z" fill="#F6BE4A"/>
<path d="M309.372 89.6401C309.389 89.6997 309.402 89.7593 309.419 89.8189C309.402 89.7593 309.389 89.6997 309.372 89.6401Z" fill="#F6BE4A"/>
<path d="M309.598 90.332C309.631 90.4247 309.67 90.5141 309.707 90.6035C309.67 90.5141 309.631 90.4247 309.598 90.332Z" fill="#F6BE4A"/>
<path d="M307.336 93.586C307.187 93.586 307.038 93.5198 306.942 93.3907C303.658 89.1074 305.929 83.2384 306.028 82.9901C306.128 82.7352 306.416 82.6094 306.674 82.7121C306.929 82.8114 307.055 83.1027 306.952 83.3576C306.929 83.4138 304.794 88.9551 307.733 92.7883C307.899 93.0068 307.859 93.3179 307.641 93.4834C307.548 93.5529 307.442 93.586 307.336 93.586Z" fill="#F4E8D8"/>
<path d="M310.842 96.3502C310.739 96.3502 310.636 96.3204 310.55 96.2542C309.872 95.7577 309.312 95.2016 308.892 94.5958C308.736 94.3707 308.789 94.0629 309.015 93.904C309.24 93.7484 309.547 93.8014 309.706 94.0265C310.064 94.5395 310.547 95.0195 311.136 95.4498C311.358 95.612 311.408 95.9232 311.246 96.145C311.146 96.2807 310.997 96.3502 310.842 96.3502Z" fill="#F4E8D8"/>
<path d="M335.648 332.993C338.353 331.494 328.531 318.005 321.527 314.701C314.523 311.397 318.948 327.495 324.165 331.189C329.382 334.887 332.944 334.496 335.648 332.993Z" fill="#33A86D"/>
<path d="M330.199 333.927C330.199 333.927 316.634 327.333 309.527 327.574C302.423 327.816 311.136 333.387 311.136 333.387C311.136 333.387 303.638 331.845 301.751 335.784C299.865 339.723 330.199 333.927 330.199 333.927Z" fill="#33A86D"/>
<path d="M343.44 331.046C344.122 329.587 343.603 325.283 337.373 325.995C331.143 326.707 329.65 332.43 331.828 333.824C334.006 335.214 342.758 332.506 343.44 331.046Z" fill="#33A86D"/>
<path d="M288.988 204.378L288.537 209.145C288.461 209.446 288.964 209.685 289.461 209.582L293.284 208.794C293.668 208.715 293.854 208.463 293.685 208.248L290.312 204.269C290.024 203.905 289.09 203.981 288.988 204.378Z" fill="#F6874E"/>
<path d="M306.535 243.468L303.261 246.742L305.879 250.145L306.535 243.468Z" fill="#F6874E"/>
<path d="M281.129 254.336L284.012 258.265L280.212 260.36L281.129 254.336Z" fill="#F6874E"/>
<path d="M320.325 349.55C320.325 349.55 318.045 348.074 313.718 348.637C309.445 349.193 307.859 350.146 310.928 351.017C312.897 351.573 318.813 351.616 320.325 349.55Z" fill="#33A86D"/>
<path d="M303.827 340.907C303.827 340.907 301.546 339.431 297.22 339.994C292.946 340.55 291.361 341.503 294.429 342.374C296.399 342.93 302.311 342.973 303.827 340.907Z" fill="#288453"/>
<path d="M313.648 345.621C313.648 345.621 311.367 344.145 307.041 344.707C302.768 345.264 301.182 346.217 304.251 347.088C306.22 347.644 312.132 347.69 313.648 345.621Z" fill="#33A86D"/>
<path d="M304.218 347.587C304.218 347.587 301.937 346.111 297.611 346.674C293.337 347.23 291.752 348.183 294.82 349.054C296.79 349.61 302.705 349.653 304.218 347.587Z" fill="#33A86D"/>
<path d="M271.58 344.763C271.58 344.763 269.156 342.982 264.337 343.313C259.577 343.641 257.763 344.594 261.096 345.756C263.235 346.504 269.769 346.948 271.58 344.763Z" fill="#288453"/>
<path d="M289.521 345.842C289.521 345.842 287.098 344.061 282.278 344.392C277.518 344.72 275.704 345.673 279.038 346.835C281.179 347.583 287.71 348.027 289.521 345.842Z" fill="#288453"/>
<path d="M279.425 341.95C279.425 341.95 277.525 340.553 273.751 340.814C270.021 341.073 268.601 341.817 271.212 342.728C272.887 343.314 278.005 343.661 279.425 341.95Z" fill="#288453"/>
<path d="M279.815 346.226C279.815 346.226 277.392 344.446 272.572 344.777C267.812 345.104 265.998 346.058 269.332 347.22C271.473 347.968 278.008 348.411 279.815 346.226Z" fill="#288453"/>
<path d="M303 258.612C303 258.612 302.477 254.422 300.557 255.643C298.637 256.865 298.637 258.086 299.511 259.658C300.382 261.234 302.302 260.185 303 258.612Z" fill="#288453"/>
<path d="M300.905 252.326C300.905 252.326 300.381 248.135 298.462 249.357C296.542 250.578 296.542 251.8 297.416 253.372C298.289 254.945 300.206 253.899 300.905 252.326Z" fill="#33A86D"/>
<path d="M301.954 246.828C301.954 246.828 301.431 242.637 299.511 243.859C297.591 245.08 297.591 246.302 298.465 247.874C299.332 249.447 301.255 248.4 301.954 246.828Z" fill="#33A86D"/>
<path d="M308.237 221.945C308.237 221.945 307.714 217.755 305.794 218.976C303.874 220.198 303.874 221.419 304.748 222.991C305.618 224.567 307.538 223.518 308.237 221.945Z" fill="#33A86D"/>
<path d="M310.332 217.231C310.332 217.231 309.809 213.041 307.889 214.262C305.969 215.484 305.969 216.705 306.843 218.277C307.717 219.85 309.633 218.804 310.332 217.231Z" fill="#288453"/>
<path d="M304.221 264.551C304.221 264.551 303.791 260.36 302.222 261.582C300.65 262.803 300.649 264.024 301.364 265.597C302.079 267.169 303.652 266.123 304.221 264.551Z" fill="#288453"/>
<path d="M301.779 263.677C301.779 263.677 301.349 259.486 299.779 260.708C298.207 261.929 298.207 263.15 298.922 264.723C299.634 266.295 301.206 265.249 301.779 263.677Z" fill="#288453"/>
<path d="M305.479 256.785C305.479 256.785 305.131 253.389 303.857 254.378C302.582 255.368 302.582 256.358 303.162 257.632C303.741 258.907 305.015 258.059 305.479 256.785Z" fill="#288453"/>
<path d="M300.382 270.727C300.382 270.727 300.091 267.891 299.028 268.718C297.965 269.546 297.965 270.373 298.449 271.436C298.932 272.498 299.995 271.79 300.382 270.727Z" fill="#288453"/>
<path d="M306.929 214.09C306.929 214.09 306.406 209.899 304.486 211.121C302.566 212.342 302.566 213.564 303.44 215.136C304.311 216.708 306.231 215.662 306.929 214.09Z" fill="#288453"/>
<path d="M283.225 278.563C283.225 278.563 277.988 276.6 276.022 279.219C275.373 280.086 275.082 280.937 274.983 281.691C274.781 283.214 275.37 284.326 275.37 284.326C275.37 284.326 270.524 279.351 267.121 281.97C263.715 284.588 268.299 287.733 268.299 287.733C268.299 287.733 265.026 286.422 262.275 287.6C259.524 288.779 261.358 292.314 261.358 292.314C261.358 292.314 263.321 294.803 266.072 293.098C268.822 291.397 268.69 290.871 268.69 290.871C268.69 290.871 270.524 291.526 273.404 289.431C276.284 287.335 276.416 286.418 276.416 286.418C276.416 286.418 278.905 288.514 280.474 287.203C282.047 285.892 282.702 284.323 282.702 284.323C282.702 284.323 283.225 287.074 285.582 287.074C287.942 287.074 291.345 275.157 283.225 278.563Z" fill="#288453"/>
<path d="M312.298 287.047C312.298 287.047 311.775 284.555 309.855 285.283C307.935 286.011 307.935 286.736 308.809 287.673C309.683 288.61 311.6 287.981 312.298 287.047Z" fill="#288453"/>
<path d="M315.963 290.189C315.963 290.189 315.44 287.696 313.52 288.425C311.6 289.153 311.6 289.878 312.474 290.815C313.348 291.751 315.268 291.126 315.963 290.189Z" fill="#288453"/>
<path d="M311.12 292.546C311.12 292.546 310.597 290.053 308.677 290.781C306.757 291.51 306.757 292.234 307.631 293.171C308.501 294.105 310.421 293.482 311.12 292.546Z" fill="#288453"/>
<path d="M320.154 296.346C320.154 296.346 319.63 293.853 317.711 294.582C315.791 295.31 315.791 296.035 316.665 296.972C317.535 297.902 319.455 297.279 320.154 296.346Z" fill="#288453"/>
<path d="M304.573 286.684C304.573 286.684 308.24 284.85 306.668 282.231C305.096 279.613 300.644 279.742 299.859 282.099C299.859 282.099 298.548 273.85 295.539 274.373C292.527 274.896 291.481 277.385 292.527 281.314C292.527 281.314 290.693 278.825 288.075 281.708C285.456 284.588 288.859 286.684 288.859 286.684C288.859 286.684 285.453 284.065 284.669 287.994C283.884 291.924 287.287 294.674 290.038 293.364C292.788 292.053 293.573 291.136 293.573 291.136C293.573 291.136 303.262 295.456 304.573 286.684Z" fill="#288453"/>
<path d="M299.16 286.544C299.16 286.544 298.389 283.323 295.556 284.263C292.722 285.203 292.722 286.143 294.01 287.348C295.294 288.557 298.128 287.752 299.16 286.544Z" fill="#33A86D"/>
<path d="M296.714 283.925C296.714 283.925 296.059 280.705 293.662 281.645C291.262 282.585 291.262 283.525 292.355 284.73C293.444 285.938 295.844 285.134 296.714 283.925Z" fill="#33A86D"/>
<path d="M292.176 284.273C292.176 284.273 291.52 281.052 289.124 281.992C286.724 282.932 286.724 283.872 287.816 285.077C288.902 286.289 291.302 285.481 292.176 284.273Z" fill="#33A86D"/>
<path d="M283.721 283.935C283.721 283.935 285.645 282.618 284.585 280.221C283.569 277.924 281.901 278.775 281.232 280.258C280.563 281.744 282.265 283.621 283.721 283.935Z" fill="#33A86D"/>
<path d="M274.453 287.202C274.453 287.202 274.374 283.862 270.978 283.975C267.581 284.087 267.35 284.998 268.495 286.534C269.64 288.066 273.007 288.083 274.453 287.202Z" fill="#33A86D"/>
<path d="M221.546 198.81C221.546 198.81 220.192 193.309 219.778 189.055C219.381 184.984 221.754 186.639 224.254 189.469C226.872 192.438 229.404 197.761 230.103 198.986C230.801 200.207 224.167 203.001 221.546 198.81Z" fill="#1D2538"/>
<path d="M175.276 260.36C174.482 259.198 169.513 253.637 168.467 250.757C167.421 247.877 165.236 240.978 168.381 237.311C168.381 237.311 163.929 237.311 161.833 246.738C159.738 256.166 168.907 265.027 169.692 265.769C173.181 269.089 177.547 263.676 175.276 260.36Z" fill="#1D2538"/>
<path d="M260.937 283.121C259.96 281.151 256.316 280.231 256.316 280.231C256.034 279.821 255.177 279.149 255.078 278.665C253.727 272.111 252.459 266.179 251.999 264.63C251.043 261.413 250.232 256.252 248.143 248.834C246.054 241.416 237.888 247.076 239.477 254.471C240.609 259.744 248.878 281.204 249.153 281.535L252.781 285.392C253.714 286.524 255.296 287.269 256.935 286.54C258.573 285.812 261.893 285.047 260.937 283.121Z" fill="#1D2538"/>
<path d="M197.583 274.485C199.497 272.244 209.629 270.34 210.761 274.931C211.728 278.841 197.438 303.641 197.438 303.641L197.524 307.159C197.524 307.159 199.894 309.165 199.549 311.112C199.467 311.569 197.03 312.194 195.048 312.631C193.598 312.949 192.399 312.495 192.171 311.519L191.886 310.288L190.072 306.004L195.22 288.824C195.216 288.831 194.968 277.546 197.583 274.485Z" fill="#1D2538"/>
<path d="M227.309 248.837C222.943 249.449 210.023 244.385 207.928 237.053C205.832 229.721 203.214 218.195 203.214 213.481C203.214 213.481 199.722 206.496 198.325 202.481C196.928 198.466 197.802 197.767 200.069 198.813C202.34 199.859 207.401 204.924 207.401 204.924C207.401 204.924 214.035 196.718 222.592 195.844C231.149 194.97 235.862 198.463 238.656 202.13L239.027 202.306C239.027 202.306 247.038 202.13 251.4 201.607C255.766 201.084 257.862 202.306 258.385 207.019C258.908 211.733 258.822 212.955 257.425 215.576C256.028 218.195 248.345 226.358 243.807 229.85C243.807 229.85 246.687 239.933 246.339 243.249C245.991 246.566 231.675 248.225 227.309 248.837Z" fill="#273150"/>
<path d="M220.063 238.447C220.063 238.447 210.023 244.382 207.928 237.05C205.832 229.718 203.214 218.191 203.214 213.478C203.214 213.478 199.722 206.493 198.325 202.478C196.928 198.463 197.802 197.764 200.069 198.81C202.34 199.856 207.401 204.921 207.401 204.921C207.401 204.921 214.035 196.715 222.592 195.841C222.592 195.841 215.912 204.441 214.472 209.155C213.032 213.868 219.099 228.317 219.099 228.317C219.099 228.317 228.289 231.114 228.179 232.157C227.832 235.477 220.063 238.447 220.063 238.447Z" fill="#1D2538"/>
<path d="M223.313 197.96C223.313 197.96 221.704 192.746 220.695 189.25C219.559 185.321 222.363 186.374 224.862 189.207C227.481 192.177 229.818 195.427 230.516 196.649C231.215 197.874 224.756 201.104 223.313 197.96Z" fill="#273150"/>
<path d="M235.273 203.327C235.951 202.56 235.568 201.113 234.417 200.097C233.267 199.08 231.784 198.877 231.106 199.644C230.428 200.411 230.812 201.858 231.962 202.874C233.113 203.891 234.595 204.094 235.273 203.327Z" fill="#121721"/>
<path d="M243.082 233.759C243.082 233.759 251.993 238.559 253.774 241.177L248.229 243.14C248.229 243.14 243.873 239.211 243.082 233.759Z" fill="#992C29"/>
<path d="M224.703 210.045C225.52 209.12 225.058 207.377 223.67 206.15C222.283 204.924 220.495 204.679 219.678 205.604C218.861 206.529 219.323 208.272 220.711 209.499C222.099 210.725 223.886 210.97 224.703 210.045Z" fill="#121721"/>
<path d="M229.404 231.025C229.404 231.025 214.713 228.416 207.143 237.311C200.374 245.265 196.762 247.784 187.239 252.501C181.254 255.464 173.856 255.169 169.692 263.24C166.898 268.652 168.295 276.51 171.088 283.319C177.024 289.953 223.323 276.798 226.786 275.289C237.001 270.836 242.956 261.684 246.167 257.741C249.047 254.206 249.186 242.753 241.291 235.811C238.411 233.279 234.515 231.445 229.404 231.025Z" fill="#273150"/>
<path d="M227.047 233.121C218.404 231.111 214.713 228.417 207.143 237.311C200.374 245.266 196.762 247.785 187.239 252.502C181.254 255.464 173.856 255.17 169.692 263.24C166.898 268.652 168.295 276.511 171.088 283.32C177.024 289.953 223.323 276.799 226.786 275.289C226.786 275.289 214.737 273.717 213.168 269.265C211.595 264.812 219.192 253.551 219.192 253.551C221.811 245.954 230.112 233.832 227.047 233.121Z" fill="#1D2538"/>
<path d="M254.646 210.4C257.28 208.47 258.249 205.315 256.811 203.352C255.373 201.389 252.072 201.362 249.438 203.292C246.804 205.221 245.835 208.377 247.273 210.34C248.711 212.303 252.012 212.33 254.646 210.4Z" fill="#121721"/>
<path d="M253.631 294.558C252.052 292.267 247.646 291.747 247.646 291.747C247.226 291.281 246.087 290.592 245.862 290.006C242.794 282.052 239.963 274.855 239.076 272.998C237.233 269.145 236.104 261.419 231.986 252.512C227.868 243.604 215.882 259.225 221.277 265.411C225.792 270.592 239.318 294.25 239.709 294.614L244.77 298.805C246.107 300.059 248.097 300.711 249.811 299.52C251.529 298.331 255.18 296.802 253.631 294.558Z" fill="#273150"/>
<path d="M170.694 278.884C173.713 274.216 182.77 277.401 184.528 278.625C186.378 279.91 183.277 291.118 183.184 292.631C183.085 294.213 169.589 307.192 166.994 310.688C164.19 314.465 167.692 317.994 165.928 319.741C165.034 320.628 156.289 320.513 156.169 316.623C156.057 312.949 158.394 306.593 158.427 306.295C158.493 305.709 169.506 291.224 169.691 290.436C169.874 289.665 169.797 280.271 170.694 278.884Z" fill="#1D2538"/>
<path d="M234.554 232.25C234.554 232.25 244.333 231.902 243.81 229.85C247.325 227.208 252.343 221.796 252.343 221.796L242.065 227.536L234.554 232.25Z" fill="#1D2538"/>
<path d="M206.531 233.12C206.531 233.12 205.528 236.175 205.918 238.271C205.918 238.271 214.237 239.754 227.918 239.754C235.25 239.754 245.727 238.009 245.727 238.009L244.681 232.488C244.681 232.488 223.469 236.437 206.531 233.12Z" fill="#992C29"/>
<path d="M242.626 234.127C242.626 234.127 248.869 229.112 252.527 228.857L257.36 237.046C257.36 237.046 246.307 235.954 242.626 234.127Z" fill="#C93F37"/>
<path d="M242.625 234.126C245.816 236.146 257.356 237.046 257.356 237.046C257.356 237.046 252.642 233.276 251.123 233.123C249.603 232.971 242.625 234.126 242.625 234.126Z" fill="#992C29"/>
<path d="M94.2626 136.103C99.7642 136.497 113.134 148.327 122.548 158.347C134.726 171.31 149.685 185.067 155.809 187.811C163.406 191.217 171.916 195.67 175.452 195.67C175.452 195.67 159.083 213.104 152.403 218.997C145.723 224.889 149.262 213.104 140.619 218.997C131.976 224.889 117.308 242.29 117.308 242.29C117.308 242.29 109.711 240.046 98.45 229.718C83.7395 216.229 60.3431 156.778 63.6169 146.434C66.894 136.086 89.0226 134.663 94.2626 136.103Z" fill="#992C29"/>
<path d="M94.2629 136.103C99.7645 136.496 113.528 147.688 122.942 157.708C135.121 170.671 151.586 184.676 157.733 187.374C164.76 190.456 179.123 196.603 182.658 196.603L175.717 201.694C175.717 201.694 159.957 200.747 147.431 187.027C132.277 170.429 107.159 141.637 94.2629 136.103Z" fill="#29ACE4"/>
<path d="M69.1315 144.031C69.1315 144.031 55.1791 144.243 48.6779 141.916C42.1767 139.589 44.0072 114.842 56.9401 111.581C71.7168 107.854 89.4727 115.815 99.294 122.213C109.115 128.612 105.127 138.182 90.9126 142.69C76.4901 147.262 69.1315 144.031 69.1315 144.031Z" fill="#229BC6"/>
<path d="M100.072 131.276C100.072 139.221 74.2429 139.621 66.368 139.621C58.493 139.621 52.1077 133.18 52.1077 125.235C52.1077 117.291 58.493 110.849 66.368 110.849C74.2429 110.849 100.072 123.332 100.072 131.276Z" fill="#992C29"/>
<path d="M147.646 219.589C147.166 218.89 139.57 209.287 136.951 206.669C134.333 204.051 153.886 217.669 153.886 217.669C153.886 217.669 151.847 219.857 150.175 220.506C148.606 221.118 148.126 220.287 147.646 219.589Z" fill="#C93F37"/>
<path d="M136.494 200.582L133.088 199.926L128.483 203.352C127.685 202.402 128.966 195.782 130.205 195.696C132.124 195.56 136.163 195.282 138.619 196.709C140.324 197.698 145.769 202.174 144.723 203.223C144.491 203.455 143.392 203.356 143.392 203.356C143.144 203.478 142.214 203.27 141.863 203.399C141.515 203.531 140.84 203.448 140.281 203.213L136.494 200.582Z" fill="#F6874E"/>
<path d="M105.779 149.624C105.779 149.624 112.326 164.821 113.72 168.102C116.315 174.209 110.972 177.264 107.308 174.209C103.643 171.154 96.3147 156.953 94.941 153.596C93.5639 150.237 101.962 145.195 105.779 149.624Z" fill="#CE6D3E"/>
<path d="M107.665 153.752C107.665 153.752 112.548 165.123 113.749 168.188C115.169 171.813 110.979 173.928 109.102 171.71C106.811 169.005 104.954 150.263 107.665 153.752Z" fill="#F6874E"/>
<path d="M91.8624 136.016C94.1927 134.573 99.6645 137.423 102.859 143.441C106.397 150.108 107.377 152.895 107.377 152.895C107.377 152.895 103.511 152.229 101.604 153.947C98.5059 156.738 96.0895 159.889 96.0895 159.889C96.0895 159.889 92.5145 152.653 90.6078 147.787C88.8435 143.265 88.8534 137.883 91.8624 136.016Z" fill="#C93F37"/>
<path d="M130.76 193.2C132.336 197.417 128.394 199.049 126.037 197.212C123.68 195.378 119.039 188.728 113.617 182.832C107.374 176.05 105.106 172.723 109.082 169.82C113.058 166.913 113.243 167.201 119.645 176.318C124.044 182.581 130.016 191.214 130.76 193.2Z" fill="#CE6D3E"/>
<path d="M125.779 186.778C122.81 191.085 111.221 175.067 111.221 175.067C107.534 170.32 107.924 170.31 109.715 169.151C113.34 167.318 113.402 167.579 117.683 173.494C121.056 178.155 126.713 185.421 125.779 186.778Z" fill="#F6874E"/>
<path d="M132.777 197.132L138.163 197.596C138.434 197.619 138.682 197.754 138.851 197.97L145.177 202.339C145.541 202.806 146.236 202.845 146.65 202.422C146.954 202.107 147.017 201.631 146.799 201.25L141.185 196.073C141.075 195.881 140.903 195.732 140.701 195.652L130.834 191.687C130.48 191.545 127.778 190.545 126.001 192.326C124.223 194.107 125.147 196.017 125.326 196.401L126.259 200.568C126.269 200.588 126.276 200.604 126.286 200.621L129.483 206.533C129.655 206.854 129.993 207.049 130.357 207.046L131.072 207.036C131.731 207.03 132.194 206.387 131.992 205.758L130.854 202.19C130.801 202.021 130.794 201.839 130.834 201.664L131.741 197.874C131.853 197.41 132.294 197.092 132.777 197.132Z" fill="#CE6D3E"/>
<path d="M118.97 221.572C118.97 221.572 117.99 226.027 94.0209 228.705C84.2393 229.798 74.6794 229.063 67.0263 228.669C60.588 228.338 48.7044 225.835 43.2856 223.866C37.8999 221.91 33.1398 217.815 45.8377 208.891C58.5588 199.95 113.058 205.071 118.97 221.572Z" fill="#EC5E4D"/>
<path d="M55.977 214.316C55.977 214.316 52.2927 212.366 53.4712 210.009C54.6496 207.652 57.8572 207.52 57.8572 207.52L55.977 214.316Z" fill="#C93F37"/>
<path d="M101.713 120.057C100.985 130.342 91.9381 131.894 81.4812 132.828C75.1951 133.391 68.4986 130.915 64.1523 126.621C61.2692 123.775 59.4188 120.127 59.4121 116.039C59.3923 105.787 70.9581 96.6343 81.415 95.7008C91.8686 94.7674 102.494 109.008 101.713 120.057Z" fill="#273150"/>
<path d="M81.8376 98.7679C84.8358 94.4042 85.1935 89.4426 82.6365 87.6857C80.0795 85.9288 75.5761 88.042 72.5779 92.4056C69.5797 96.7692 69.222 101.731 71.779 103.488C74.336 105.245 78.8394 103.131 81.8376 98.7679Z" fill="#273150"/>
<path d="M73.3189 93.0312C73.7229 87.8881 71.911 83.5508 69.272 83.3435C66.6331 83.1362 64.1663 87.1375 63.7623 92.2806C63.3584 97.4237 65.1702 101.761 67.8092 101.968C70.4482 102.176 72.915 98.1743 73.3189 93.0312Z" fill="#273150"/>
<path d="M73.3069 108.704C75.3637 103.07 73.6201 97.2568 69.4125 95.721C65.2049 94.1851 60.1266 97.5079 58.0699 103.143C56.0131 108.777 57.7566 114.59 61.9642 116.126C66.1718 117.662 71.2501 114.339 73.3069 108.704Z" fill="#273150"/>
<path d="M67.9905 131.009C73.8543 128.211 76.3629 121.238 73.5935 115.433C70.8241 109.629 63.8254 107.191 57.9616 109.989C52.0978 112.787 49.5893 119.76 52.3587 125.565C55.1281 131.369 62.1267 133.807 67.9905 131.009Z" fill="#273150"/>
<path d="M96.1049 115.374C100.571 111.558 100.53 104.179 96.0136 98.8935C91.4972 93.6075 84.2157 92.4155 79.7497 96.2312C75.2838 100.047 75.3247 107.425 79.841 112.711C84.3574 117.997 91.639 119.189 96.1049 115.374Z" fill="#273150"/>
<path d="M101.627 119.446C101.034 127.84 93.6493 129.105 85.1189 129.866C79.9881 130.323 74.523 128.304 70.9778 124.802C68.6242 122.478 67.1181 119.502 67.1115 116.165C67.0949 107.8 76.5323 100.333 85.066 99.568C93.593 98.8099 102.262 110.432 101.627 119.446Z" fill="#48598B"/>
<path d="M81.4527 100.2C84.0285 96.4513 84.3345 92.1877 82.1361 90.6772C79.9377 89.1667 76.0675 90.9813 73.4917 94.7302C70.9159 98.479 70.6099 102.743 72.8083 104.253C75.0067 105.764 78.8769 103.949 81.4527 100.2Z" fill="#48598B"/>
<path d="M72.7048 96.1726C72.9802 92.6661 71.7452 89.709 69.9464 89.5677C68.1476 89.4264 66.4661 92.1545 66.1907 95.6609C65.9153 99.1674 67.1502 102.125 68.9491 102.266C70.7479 102.407 72.4293 99.6791 72.7048 96.1726Z" fill="#48598B"/>
<path d="M75.3817 108.714C77.5589 102.749 76.3932 96.8443 72.7781 95.5247C69.163 94.2051 64.4675 97.9705 62.2903 103.935C60.1132 109.899 61.2789 115.804 64.894 117.124C68.509 118.444 73.2046 114.678 75.3817 108.714Z" fill="#48598B"/>
<path d="M70.5948 128.865C75.6337 126.461 77.7893 120.469 75.4096 115.481C73.0299 110.493 67.0159 108.399 61.9771 110.803C56.9382 113.207 54.7826 119.2 57.1623 124.187C59.542 129.175 65.556 131.269 70.5948 128.865Z" fill="#48598B"/>
<path d="M94.0568 115.427C97.8945 112.148 97.8593 105.808 93.9783 101.266C90.0973 96.7232 83.8401 95.6989 80.0024 98.9778C76.1648 102.257 76.1999 108.597 80.0809 113.14C83.9619 117.682 90.2191 118.706 94.0568 115.427Z" fill="#48598B"/>
<path d="M62.0477 237.097C62.0311 241.212 63.1202 251.321 68.5952 251.586C73.9644 251.848 76.0994 247.932 77.8936 241.765C80.4523 232.973 92.2399 191.456 78.549 190.318C64.858 189.179 63.6465 195.283 62.1139 203.254C60.5813 211.228 62.0808 229.481 62.0477 237.097Z" fill="#273150"/>
<path d="M62.7034 243.86C62.8954 244.717 66.5002 238.358 66.5002 238.358C66.5002 238.358 66.232 224.929 68.334 223.43C75.6661 217.405 82.4785 220.55 82.4785 220.55C85.5272 206.806 87.1922 191.036 78.5493 190.318C64.8583 189.179 63.6468 195.283 62.1142 203.254C61.227 207.882 61.3594 215.972 61.6176 223.436C61.8063 228.835 61.7203 239.474 62.7034 243.86Z" fill="#102441"/>
<path d="M59.1448 250.199C48.4264 270.315 51.2268 289.395 50.568 313.311C50.3065 322.802 56.0067 321.236 57.5956 314.053C59.6711 304.685 66.2352 285.099 73.3091 258.399C75.5368 251.719 66.1458 237.058 59.1448 250.199Z" fill="#CE6D3E"/>
<path d="M60.5518 246.531C63.6402 240.136 69.5456 238.739 73.9779 240.844C76.8876 242.224 77.4635 243.601 75.0603 252.814C73.5575 258.567 72.5479 261.496 72.3725 261.936C72.3725 261.936 65.3218 258.103 55.6295 258.398C55.6295 258.395 58.4564 250.87 60.5518 246.531Z" fill="#102441"/>
<path d="M61.1245 251.685C51.8791 269.04 54.0307 285.948 53.4614 306.581C53.4051 308.61 53.2628 310.245 53.4912 311.606C54.0142 314.704 57.3045 316.048 58.3373 311.387C60.1281 303.304 67.2417 281.791 73.3457 258.755C75.2656 252.995 67.1656 240.347 61.1245 251.685Z" fill="#F6874E"/>
<path d="M61.7865 247.789C61.7865 247.789 65.9772 237.05 74.2858 239.278C77.0598 240.02 77.6291 243.33 75.1862 252.112C73.4947 258.202 72.6969 261.341 72.538 261.811C72.538 261.811 66.5102 257.838 58.1321 258.318L61.7865 247.789Z" fill="#273150"/>
<path d="M75.1431 246.392C75.1431 246.392 70.2109 247.266 68.4631 245.346C68.4631 245.346 69.2477 248.577 70.9954 249.186C72.7399 249.798 74.3553 248.051 74.3553 248.051L72.7829 247.875L75.1431 246.392Z" fill="#102441"/>
<path d="M52.246 316.194C53.0007 323.049 53.7753 331.831 68.3633 330.163C75.7616 329.315 66.6089 320.722 63.9475 317.524C63.9475 317.524 59.3 312.271 58.9061 311.434C57.9031 309.295 54.3844 308.766 52.481 313.112C51.4946 315.356 52.1367 315.197 52.246 316.194Z" fill="#F6874E"/>
<path d="M49.2136 320.338C48.9852 321.543 49.591 322.033 51.2858 323.112C54.8476 325.383 60.5907 327.362 66.3703 326.753C73.6296 325.992 58.9059 323.218 57.595 321.516C56.2842 319.815 55.7579 316.412 54.7152 314.118C53.4937 311.433 53.1428 309.47 51.9644 311.566C50.786 313.658 49.4718 318.977 49.2136 320.338Z" fill="#CE6D3E"/>
<path d="M50.5677 313.44C50.5677 313.44 50.3393 313.625 51.6601 316.148C56.6353 325.664 59.1577 325.747 65.3212 325.708C69.3829 325.681 63.0505 317.763 63.0505 317.763L59.1643 311.858C59.1643 311.858 62.4612 315.797 66.1687 320.011C68.4494 322.599 71.177 324.791 72.1469 326.379C73.8318 328.72 75.6888 332.48 73.6993 332.91C67.0194 334.35 58.1646 332.632 56.5227 331.798C54.8809 330.964 54.6889 328.65 52.6167 326.234C51.8322 325.317 49.7799 324.4 49.6475 323.572C49.5085 321.437 48.8497 319.905 49.333 317.353C49.8461 314.648 50.5677 313.44 50.5677 313.44Z" fill="#992C29"/>
<path d="M100.925 303.267C99.7235 307.885 100.846 308.739 102.117 310.202C111.534 321.059 113.759 316.862 115.265 317.577C120.286 319.964 120.439 313.949 118.171 312.691C115.99 311.48 112.445 306.574 109.69 304.068C108.403 302.896 108.307 302.165 106.549 301.93C104.722 301.688 101.435 301.317 100.925 303.267Z" fill="#F6874E"/>
<path d="M100.955 309.007C106.241 322.694 117.566 319.159 119.797 318.12C120.717 317.689 114.778 310.993 114.778 310.993C114.778 310.993 108.075 309.199 104.454 307.587C100.66 305.898 99.3827 304.942 100.955 309.007Z" fill="#CE6D3E"/>
<path d="M100.565 303.452C100.945 302.747 101.018 303.068 101.141 303.582C102.087 307.554 102.412 309.143 105.589 312.555C106.672 313.717 106.645 316.313 115.699 316.766C119.539 316.958 114.779 310.996 114.779 310.996L109.4 303.747L110.998 305.313C110.998 305.313 117.314 312.35 119.79 313.976C122.217 315.568 125.024 323.175 122.706 323.393C116.791 323.949 111.151 323.324 106.44 322.185C104.246 321.529 102.935 316.922 102.091 316.624C102.091 316.624 99.7834 314.962 99.7602 313.727C99.7404 312.536 100.032 304.439 100.565 303.452Z" fill="#992C29"/>
<path d="M110.238 244.472C110.238 244.472 113.906 217.424 108.798 203.677C105.743 195.448 99.9965 193.925 93.7733 194.124C87.5502 194.322 86.279 199.218 87.2026 204.458C88.1261 209.698 92.4625 238.364 94.6538 244.929C97.0074 251.979 101.655 251.473 104.651 251.46C108.136 251.44 109.49 249.616 110.238 244.472Z" fill="#273150"/>
<path d="M99.4986 223.693C101.855 222.121 111.392 221.34 111.392 221.34C111.296 215.094 110.634 208.629 108.794 203.677C105.738 195.448 99.9918 193.925 93.7687 194.124C87.5455 194.322 86.2744 199.218 87.198 204.458C87.5985 206.732 88.6412 213.422 89.8759 220.804C89.8759 220.804 92.8153 238.103 93.9938 242.075C94.2189 241.959 94.9537 237.841 96.0891 231.294C96.9531 229.003 97.1418 225.266 99.4986 223.693Z" fill="#102441"/>
<path d="M94.9507 250.529C90.1046 266.71 94.8315 274.33 101.075 303.681C101.651 306.389 107.152 308.309 108.569 304.231C108.804 303.555 108.701 302.268 108.701 300.795C108.701 289.911 111.608 262.989 109.823 252.565C108.443 244.525 97.3373 242.555 94.9507 250.529Z" fill="#F6874E"/>
<path d="M92.9018 260.851C92.8025 263.585 92.9316 267.564 94.0206 273.105C95.6492 281.401 98.4894 291.815 98.8436 293.622C99.4328 296.634 101.101 304.032 101.561 305.899C101.849 307.068 105.391 308.289 105.391 308.289C105.391 308.289 103.157 301.964 102.64 300.345C101.574 296.995 96.351 273.251 95.156 261.328C95.0203 259.951 93.0011 258.087 92.9018 260.851Z" fill="#CE6D3E"/>
<path d="M93.7522 247.461C95.5959 241.853 98.1084 240.632 102.537 240.526C106.268 240.436 109.403 240.225 109.764 249.01C109.999 254.74 110.22 258.911 110.495 261.277C110.495 261.277 105.662 259.304 92.8319 261.344C92.8352 261.344 92.5307 251.178 93.7522 247.461Z" fill="#273150"/>
<path d="M93.7527 247.461C94.1366 246.358 94.2194 250.135 94.2194 250.135L95.1661 261.026C95.1661 261.026 94.6464 261.056 92.8357 261.344C92.8357 261.344 92.4782 254.776 93.7527 247.461Z" fill="#102441"/>
<path d="M108.595 247.649C108.595 247.649 104.11 247.48 102.339 246.497C100.568 245.514 105.626 252.406 108.595 247.649Z" fill="#102441"/>
<path d="M94.0009 172.114C88.41 177.98 71.912 171.906 71.2135 166.335C70.9156 163.964 70.0583 158.46 67.5458 148.41C65.9735 142.124 65.712 140.065 66.4104 139.181C68.2443 136.861 75.146 136.036 82.2133 134.967C93.8685 133.2 94.696 135.99 98.5391 141.405C103.22 148.009 105.001 160.575 94.0009 172.114Z" fill="#F6BE4A"/>
<path d="M75.0103 148.787C69.4194 154.652 71.912 171.905 71.2135 166.334C70.9156 163.964 70.0583 158.459 67.5458 148.409C65.9735 142.123 65.712 140.064 66.4104 139.181C68.2443 136.86 75.146 136.036 82.2133 134.967C93.8685 133.199 94.6861 135.953 98.7477 141.617C103.461 148.194 86.0101 137.247 75.0103 148.787Z" fill="#D09435"/>
<path d="M71.7368 160.836C70.8629 164.11 71.0251 172.468 71.2999 167.47C71.4323 165.086 67.5461 147.887 67.5461 147.887L85.6165 141.541L73.7428 152.279C73.7461 152.279 72.6107 157.562 71.7368 160.836Z" fill="#D09435"/>
<path d="M69.3799 169.218C69.3799 169.218 46.1887 201.704 44.5435 205.977C42.895 210.264 37.5292 215.766 37.7609 218.016C39.3068 213.736 53.4248 215.133 55.9703 214.316C55.9703 214.316 50.8031 210.909 55.1659 209.34C59.5288 207.771 69.4858 207.599 75.3383 207.699C92.8095 208.003 113.038 211.36 118.983 221.813C118.983 221.813 109.029 172.899 95.2292 162.26C81.7104 151.832 69.3799 169.218 69.3799 169.218Z" fill="#F6BE4A"/>
<path d="M97.1425 144.14C99.4331 145.384 101.485 147.979 101.485 147.979C101.485 147.979 101.072 145.053 99.0425 142.173C97.5132 140.002 91.9058 142.958 91.9058 142.958C91.9058 142.958 95.6893 143.352 97.1425 144.14Z" fill="#D09435"/>
<path d="M94.3753 167.02C90.9228 169.877 73.9845 169.261 76.54 161.988C77.7614 158.506 85.4841 154.233 91.032 153.594C100.178 152.541 101.856 160.836 94.3753 167.02Z" fill="#FEED7F"/>
<path d="M110.238 206.408L77.7613 203.789C69.6612 203.789 58.9031 189.122 61.5248 184.931C64.1432 180.741 74.9708 167.298 74.9708 167.298C76.1062 161.71 78.046 157.52 86.146 157.52C86.146 157.52 95.4013 158.043 99.2411 168.172C99.2411 168.172 109.195 183.23 110.764 194.756C111.916 203.207 110.238 206.408 110.238 206.408Z" fill="#FEED7F"/>
<path d="M71.3262 202.634C68.3106 202.846 65.6592 204.186 62.8885 195.577C62.8919 195.577 65.9439 199.979 71.3262 202.634Z" fill="#FEED7F"/>
<path d="M61.8721 181.79C61.8721 181.79 62.746 188.424 65.7119 192.79C65.7119 192.79 63.0935 185.282 63.269 180.741C63.4444 176.199 61.8721 181.79 61.8721 181.79Z" fill="#F6BE4A"/>
<path d="M108.443 206.961C108.559 205.246 109.178 199.814 107.997 197.086C107.997 197.086 110.526 201.462 110.403 205.968C110.284 210.473 108.328 208.675 108.443 206.961Z" fill="#F6BE4A"/>
<path d="M70.6341 172.449C70.6341 172.449 74.3482 166.586 81.5346 164.143C81.5346 164.143 72.9546 165.206 69.9026 169.393C66.8506 173.581 70.6341 172.449 70.6341 172.449Z" fill="#F6BE4A"/>
<path d="M85.2851 140.843L84.5237 140.959C82.5939 141.253 80.7898 139.929 80.4952 137.999L79.3697 130.648C79.0751 128.718 80.3992 126.914 82.3291 126.619L83.0904 126.503C85.0202 126.209 86.8243 127.533 87.1189 129.462L88.2444 136.814C88.5423 138.744 87.2149 140.548 85.2851 140.843Z" fill="#F6874E"/>
<path d="M84.2093 132.203L82.9382 132.398C81.1474 132.673 79.4757 131.445 79.201 129.654L77.9994 121.792C77.7246 120.002 78.9527 118.33 80.7435 118.055L82.0146 117.86C83.8054 117.585 85.4771 118.813 85.7518 120.604L86.9534 128.466C87.2282 130.257 86.0001 131.932 84.2093 132.203Z" fill="#CE6D3E"/>
<path d="M57.9862 151.932C55.7584 157.52 52.1636 167.503 51.1573 169.198C50.151 170.893 50.1178 173.481 52.7991 174.805C55.477 176.133 57.4996 175.464 58.7078 174.024C59.916 172.584 66.8045 160.923 68.2445 156.252C69.3766 152.584 68.6119 148.559 66.6291 147.609C64.6463 146.659 60.214 146.344 57.9862 151.932Z" fill="#F6874E"/>
<path d="M57.9859 151.932C55.7581 157.519 52.1633 167.503 51.157 169.198C50.8491 169.717 50.6306 170.389 50.5942 170.757C50.5148 171.581 51.1139 171.654 51.9514 170.657C52.6134 169.87 57.4794 159.989 59.1643 154.537C60.5513 150.045 58.9922 149.406 57.9859 151.932Z" fill="#CE6D3E"/>
<path d="M70.0785 138.661C67.1721 137.655 63.2264 139.227 60.4756 145.907C59.0323 149.416 57.0264 154.113 57.0264 154.113C57.0264 154.113 61.568 154.828 67.4138 158.479C67.4138 158.479 69.2708 154.812 70.6015 151.409C73.3953 144.249 72.3492 139.446 70.0785 138.661Z" fill="#EC5E4D"/>
<path d="M70.0785 138.661C67.1721 137.655 63.2264 139.227 60.4756 145.907C59.0323 149.416 57.0264 154.113 57.0264 154.113L59.0787 154.55L63.4879 150.82L71.4754 148.615C73.2496 142.706 72.101 139.363 70.0785 138.661Z" fill="#C93F37"/>
<path d="M34.4767 189.731C34.4767 189.731 31.6564 192.644 32.5766 194.292C33.4439 195.838 36.5489 197.099 38.7634 195.302C40.9779 193.504 48.0948 188.834 57.5553 176.113C61.5905 170.691 53.752 166.914 50.6205 170.34C47.4891 173.766 34.4767 189.731 34.4767 189.731Z" fill="#F6874E"/>
<path d="M37.2538 186.679L44.2383 182.575L52.676 169.162C52.676 169.162 51.5207 169.334 50.6204 170.343C47.5319 173.806 37.2538 186.679 37.2538 186.679Z" fill="#CE6D3E"/>
<path d="M27.9121 199.559C27.9121 199.559 24.8601 204.819 24.0458 206.106C23.3341 207.229 22.2749 206.265 22.6026 205.504C22.9303 204.743 25.1746 199.321 27.9121 199.559Z" fill="#CE6D3E"/>
<path d="M25.9924 199.559C25.9924 199.559 22.9404 204.819 22.1261 206.106C21.4144 207.229 20.3552 206.265 20.6829 205.504C21.0106 204.743 23.2516 199.321 25.9924 199.559Z" fill="#CE6D3E"/>
<path d="M38.9718 193.928C38.6872 195.766 37.5418 198.606 34.758 201.648C32.6096 203.995 32.123 205.18 31.3385 206.881C31.1399 207.308 30.6169 207.841 30.0939 208.321C28.4256 209.85 27.747 209.612 27.5748 208.596C27.3762 207.404 27.9654 206.504 29.0115 204.918C29.5477 204.104 29.647 203.128 29.8291 202.595C30.0641 201.919 30.1568 200.304 28.2005 199.966C26.1912 199.619 25.0955 196.984 25.7675 196.014C26.9459 194.312 34.6421 189.913 35.5292 190.168C37.4955 190.536 39.2565 192.091 38.9718 193.928Z" fill="#F6874E"/>
<path d="M28.859 197.497C29.5243 197.686 30.3982 198.99 29.5011 199.791C28.6041 200.592 23.9235 202.982 22.6292 204.548C21.0899 206.412 20.2425 208.04 19.2859 208.537C18.0644 209.169 16.4987 209.086 17.7632 207.143C19.554 204.392 20.8814 201.413 23.9533 199.891C27.0284 198.368 28.1936 197.309 28.859 197.497Z" fill="#F6874E"/>
<path d="M28.6968 199.801C30.1897 198.261 28.5346 194.478 27.4389 194.789C26.3432 195.1 21.3415 199.192 20.1797 199.725C19.0178 200.258 16.3862 204.111 15.8069 205.481C15.2243 206.851 15.1747 207.699 16.7768 207.292C18.3789 206.885 20.2525 202.333 22.4505 201.184C24.6484 200.036 27.2039 201.34 28.6968 199.801Z" fill="#F6874E"/>
<path d="M67.1085 150.883C67.1085 150.883 62.226 151.859 60.4815 152.922C58.737 153.984 59.164 154.537 59.164 154.537L67.1085 150.883Z" fill="#C93F37"/>
<path d="M90.4623 140.144C80.8362 146.691 58.9989 148.962 59.0684 148.757C59.7669 146.655 64.4905 136.215 69.3797 135.341C72.6601 135.331 85.5102 135.453 90.4623 140.144Z" fill="#229BC6"/>
<path d="M93.8255 134.821C90.6841 134.123 84.2193 139.303 83.8685 140.7C83.5176 142.097 94.3916 139.929 114.167 151.584C120.959 155.586 98.8868 136.042 93.8255 134.821Z" fill="#29ACE4"/>
<path d="M86.536 140.922C87.037 140.922 87.443 140.516 87.443 140.015C87.443 139.514 87.037 139.108 86.536 139.108C86.0351 139.108 85.629 139.514 85.629 140.015C85.629 140.516 86.0351 140.922 86.536 140.922Z" fill="#273150"/>
<path d="M94.7758 92.8481C95.7688 93.1824 95.653 98.1179 93.1836 97.7935C90.8598 97.489 88.3043 96.7773 89.0855 95.344C89.8634 93.914 93.7827 92.5137 94.7758 92.8481Z" fill="#C93F37"/>
<path d="M95.0436 94.4536C95.0436 94.4536 94.6431 97.4394 93.7924 97.5619C92.9384 97.6811 93.6832 96.2808 93.8785 94.3311C94.0738 92.3814 95.1793 93.1991 95.0436 94.4536Z" fill="#F7BC4B"/>
<path d="M88.6715 96.5624C88.6715 96.5624 93.0211 100.28 97.1555 101.687C100.28 102.749 102.677 102.795 102.677 102.795L101.949 101.812L103.283 100.703C103.283 100.703 97.705 100.654 89.7407 95.8606L88.6715 96.5624Z" fill="#C93F37"/>
<path d="M90.806 97.9158C90.806 97.9158 94.0566 102.295 97.721 104.384C100.492 105.963 102.822 106.423 102.822 106.423L102.372 105.341L103.977 104.493C103.977 104.493 98.532 103.477 92.0407 97.4226L90.806 97.9158Z" fill="#C93F37"/>
<path d="M68.9599 117.897C70.9749 116.513 71.3317 113.532 69.7569 111.238C68.182 108.945 65.2718 108.207 63.2567 109.59C61.2417 110.973 60.8848 113.955 62.4597 116.248C64.0346 118.542 66.9448 119.28 68.9599 117.897Z" fill="#CE6D3E"/>
<path d="M83.0907 97.3671C84.1963 99.3135 80.4591 101.65 76.4736 103.915C72.4915 106.179 68.3636 106.437 67.258 104.487C66.1524 102.541 68.4828 99.1248 72.465 96.8606C76.4504 94.5998 81.9851 95.4207 83.0907 97.3671Z" fill="#273150"/>
<path d="M65.381 110.971C65.5266 99.1571 75.1361 95.645 77.5228 95.1881C89.4262 92.9041 94.7821 99.9581 97.0562 112.444C98.7179 121.567 93.319 124.129 87.9168 126.191C81.4156 128.674 65.2022 125.728 65.381 110.971Z" fill="#CE6D3E"/>
<path d="M69.3071 114.782C69.946 105.834 78.5458 102.756 80.6644 102.305C80.6644 102.305 92.2269 105.116 94.4546 106.867C96.6824 108.618 97.0928 114.503 97.0928 114.503C98.1587 121.332 93.3027 123.507 88.4599 125.308C82.6406 127.47 68.5093 125.953 69.3071 114.782Z" fill="#F6874E"/>
<path d="M72.9349 99.5282C79.1912 94.8476 89.1813 96.7377 89.1813 96.7377C89.1813 96.7377 79.7142 89.2103 71.0944 96.8536C63.3618 103.709 65.4969 109.783 66.586 113.411C66.586 113.411 65.5399 105.063 72.9349 99.5282Z" fill="#F6BE4A"/>
<path d="M79.0089 110.078C79.6963 109.954 80.0671 108.814 79.837 107.531C79.6069 106.248 78.8632 105.308 78.1758 105.431C77.4884 105.555 77.1177 106.695 77.3477 107.978C77.5778 109.261 78.3215 110.201 79.0089 110.078Z" fill="#273252"/>
<path d="M90.9284 108.409C91.5027 108.288 91.7693 107.242 91.5239 106.072C91.2784 104.901 90.6138 104.051 90.0395 104.171C89.4651 104.291 89.1985 105.338 89.444 106.508C89.6894 107.678 90.354 108.529 90.9284 108.409Z" fill="#273252"/>
<path d="M78.0791 101.078C78.0791 101.078 76.4008 101.385 76.0234 102.915" stroke="#273252" stroke-miterlimit="10" stroke-linecap="round" stroke-linejoin="round"/>
<path d="M90.7139 100.657C90.7139 100.657 89.6182 99.7171 88.4828 99.876" stroke="#273252" stroke-miterlimit="10" stroke-linecap="round" stroke-linejoin="round"/>
</svg>
