<svg width="362" height="429" viewBox="0 0 362 429" fill="none" xmlns="http://www.w3.org/2000/svg">
<g clip-path="url(#clip0_144_2543)">
<path d="M192.829 34.5599C192.829 34.5599 172.051 -5.75964 127.898 9.4144C83.7442 24.5884 100.626 68.8099 100.626 68.8099C100.626 68.8099 84.1771 59.7055 67.2949 69.677C50.4127 79.6485 56.473 94.8226 56.473 94.8226C56.473 94.8226 45.6511 95.2561 39.5908 103.493C33.5306 111.731 38.2922 123.003 41.7552 124.737C41.7552 124.737 24.873 134.709 25.3059 142.079C25.7388 149.449 83.7442 119.101 107.985 106.528C132.226 93.9555 204.084 55.3701 213.174 50.6011C222.265 45.8321 207.547 44.965 202.785 49.3004C198.024 53.6359 250.402 25.4555 233.952 24.5884C217.503 23.7214 192.829 34.5599 192.829 34.5599Z" fill="#F3E7D9"/>
<path d="M276.59 39.1121C276.59 39.1121 266.634 48.2166 272.694 47.3495C278.755 46.4824 319.878 25.6723 324.64 22.2039C329.401 18.7356 328.103 12.666 323.341 11.7989C318.579 10.9318 308.19 16.5679 306.026 25.2387C306.026 25.2387 303.861 8.76407 291.741 9.19762C279.62 9.63116 275.292 29.1406 276.59 39.1121Z" fill="#F3E7D9"/>
<path d="M76.2296 402.023C76.2296 402.023 66.6414 400.653 57.0488 400.653C47.4563 400.653 44.0322 407.512 48.1446 407.512C48.1446 407.512 19.3756 412.315 33.7601 415.06C48.1446 417.8 92.6702 414.37 76.2296 402.023Z" fill="#33A86D"/>
<path d="M235.268 384.854C238.043 382.193 228.243 381.841 216.118 382.388C200.729 383.081 203.881 386.476 203.881 386.476C203.881 386.476 195.552 386.051 191.306 388.665C188.713 390.261 192.665 391.28 204.565 391.982C216.46 392.684 220.2 388.683 220.2 388.683C220.2 388.683 232.489 387.516 235.268 384.854Z" fill="#33A86D"/>
<path d="M103.406 386.173C106.18 383.827 96.3799 382.357 84.2551 381.525C68.8663 380.467 72.0177 384.222 72.0177 384.222C72.0177 384.222 63.6891 382.847 59.4426 384.98C56.8497 386.281 60.8018 387.751 72.7016 389.806C84.6014 391.861 88.3371 388.288 88.3371 388.288C88.3371 388.288 100.631 388.518 103.406 386.173Z" fill="#33A86D"/>
<path d="M132.741 397.228C132.741 397.228 119.621 397.007 108.422 398.763C97.2238 400.519 100.986 404.286 103.968 404.286C106.951 404.286 59.3645 417.93 72.801 421.437C86.2374 424.944 106.223 423.353 161.506 420.7C190.275 419.321 204.659 412.532 192.331 410.117C181.284 407.954 152.84 405.24 152.84 405.24C161.06 399.534 132.741 397.228 132.741 397.228Z" fill="#33A86D"/>
<path d="M71.152 402.01C71.152 402.01 70.2775 396.452 72.0264 396.452C73.7752 396.452 73.4852 399.964 73.4852 399.964C73.4852 399.964 76.9915 394.696 76.9915 396.747C76.9915 398.793 75.2383 400.549 75.2383 400.549C75.2383 400.549 72.0307 404.061 71.152 402.01Z" fill="#288453"/>
<path d="M92.735 412.849C92.735 412.849 94.5401 405.448 92.735 405.118C90.9299 404.789 90.6009 409.228 90.6009 409.723C90.6009 410.217 90.4364 402.322 89.1248 402.157C87.8132 401.993 87.1552 405.118 87.1552 405.118C87.1552 405.118 86.0038 402.816 84.5277 404.624C83.0515 406.432 84.6921 407.75 84.6921 407.75C84.6921 407.75 83.0515 407.421 82.0646 409.393C81.0776 411.366 86.6617 413.503 86.6617 413.503L84.5277 414.817C84.5277 414.826 89.9429 414.99 92.735 412.849Z" fill="#33A86D"/>
<path d="M211.828 409.853C211.828 409.853 210.335 408.608 211.083 406.861C211.828 405.118 213.321 407.108 213.321 407.108C213.321 407.108 214.564 401.876 216.308 403.12C218.048 404.364 216.555 406.61 216.555 406.61C216.555 406.61 221.035 399.131 223.026 402.374C225.018 405.613 220.291 408.357 220.291 408.357C220.291 408.357 223.775 410.85 222.282 410.85C220.788 410.85 211.083 412.094 209.59 411.596C208.097 411.101 211.828 409.853 211.828 409.853Z" fill="#288453"/>
<path d="M118.699 409.111C108.267 406.969 99.0809 410.308 104.427 411.916C104.427 411.916 83.0385 414.149 89.5749 416.559C96.1114 418.97 125.222 418.346 132.616 417.63C140.009 416.915 142.386 416.2 145.819 413.698C149.251 411.196 129.131 411.253 118.699 409.111Z" fill="#288453"/>
<path d="M106.739 418.987C106.739 418.987 105.947 414.886 107.137 415.814C108.323 416.742 108.717 420.18 106.739 418.987Z" fill="#33A86D"/>
<path d="M126.543 418.493C126.543 418.493 125.751 414.392 126.941 415.32C128.127 416.243 128.521 419.681 126.543 418.493Z" fill="#33A86D"/>
<path d="M104.626 418.459C104.626 418.459 103.834 414.357 105.024 415.285C106.21 416.213 106.604 419.651 104.626 418.459Z" fill="#33A86D"/>
<path d="M63.8492 406.163C63.8492 406.163 59.9446 402.608 62.0744 401.719C64.2041 400.83 64.0267 403.497 64.0267 403.497C64.0267 403.497 64.3816 397.275 66.1564 398.164C67.9312 399.053 66.6888 401.897 66.6888 401.897C66.6888 401.897 67.9312 398.697 68.2862 400.83C68.6411 402.963 66.3339 406.874 63.8492 406.163Z" fill="#288453"/>
<path d="M119.686 351.177V187.202C119.686 187.202 119.686 184.068 122.816 181.38C125.945 178.692 129.971 175.111 129.971 175.111V134.331C129.971 132.801 131.097 131.5 132.607 131.284L139.36 130.317V67.2101C139.36 65.4022 140.763 63.9065 142.564 63.7895L154.121 63.0481L157.701 66.7072C157.701 66.7072 263.249 63.1218 267.275 63.1218C271.301 63.1218 321.839 87.7558 326.311 89.9972C330.783 92.2386 328.099 93.5826 328.549 98.5077C328.995 103.433 328.995 209.148 328.995 209.148V348.94L119.686 351.177Z" fill="#F7BC4B"/>
<path d="M157.701 66.7075L168.809 78.6907L166.138 183.686L174.869 211.472L174.354 226.395L174.246 230.652L173.843 274.761L251.93 276.816L253.471 174.942L255.003 62.4805L157.701 66.7075Z" fill="#F5894E"/>
<path d="M259.405 70.6308V209.547L294.633 210.718L297.641 168.72L284.897 156.139V74.511C284.897 74.511 280.893 59.6708 275.526 58.3268C272.335 57.5291 268.098 65.3546 264.111 65.606C261.462 65.7751 259.405 67.9775 259.405 70.6308Z" fill="#CE9436"/>
<path d="M252.349 67.622C252.349 73.3924 252.349 218.422 252.349 218.422H291.901V179.901L274.461 169.6C274.461 169.6 274.461 76.5833 274.461 71.5022C274.461 66.421 270.66 62.9917 268.626 62.9917C266.591 62.9917 258.323 63.1131 255.73 63.1131C253.133 63.1131 252.349 66.1132 252.349 67.622Z" fill="#CC6D3D"/>
<path d="M255.003 62.4804C255.003 68.2508 255.003 207.254 255.003 207.254H294.555V168.733L277.115 158.432C277.115 158.432 277.115 71.4417 277.115 66.3606C277.115 61.2794 276.383 57.8501 274.348 57.8501C272.314 57.8501 260.981 57.9715 258.384 57.9715C255.787 57.9715 255.003 60.976 255.003 62.4804Z" fill="#F7BC4B"/>
<path d="M163.065 72.5339V184.514L172.904 190.337V224.829L167.986 230.652L170.67 235.577V291.569L175.142 289.332L176.93 235.577L174.246 230.652L176.93 227.517V183.17L172.385 176.788L168.809 78.6903L163.065 72.5339Z" fill="#CC6D3D"/>
<path d="M206.521 80.1644V85.575C206.521 86.1343 206.976 86.5765 207.534 86.5635L239.558 85.6487C240.212 85.6314 240.697 85.0027 240.545 84.3698L239.259 78.9982C239.151 78.5429 238.744 78.2308 238.272 78.2438L207.534 79.1239C206.976 79.1326 206.521 79.6008 206.521 80.1644Z" fill="#FEED7F"/>
<path d="M238.104 96.6737L221.295 97.1549C220.563 97.1766 219.966 96.5956 219.966 95.8629V92.1431C219.966 91.4104 220.559 90.7992 221.295 90.7775L238.104 90.2962C238.835 90.2746 239.433 90.8512 239.433 91.5882V95.308C239.433 96.0407 238.839 96.652 238.104 96.6737Z" fill="#FEED7F"/>
<path d="M199.534 147.038L180.25 147.589C179.323 147.615 178.57 146.882 178.57 145.955V141.879C178.57 140.951 179.323 140.175 180.25 140.149L199.534 139.599C200.461 139.573 201.214 140.305 201.214 141.233V145.309C201.214 146.236 200.461 147.012 199.534 147.038Z" fill="#FEED7F"/>
<path d="M220.944 145.01L214.399 145.196C213.763 145.213 213.248 144.715 213.248 144.077V141.064C213.248 140.427 213.763 139.898 214.399 139.881L220.944 139.694C221.581 139.677 222.096 140.176 222.096 140.813V143.826C222.092 144.459 221.576 144.992 220.944 145.01Z" fill="#FEED7F"/>
<path d="M207.495 161.341L184.319 162.005C183.488 162.026 182.817 161.372 182.817 160.539V157.171C182.817 156.338 183.492 155.645 184.319 155.623L207.495 154.96C208.326 154.938 208.997 155.592 208.997 156.425V159.794C209.001 160.622 208.326 161.315 207.495 161.341Z" fill="#FEED7F"/>
<path d="M223.152 203.633H205.105V210.366H223.152V203.633Z" fill="#FEED7F"/>
<path d="M272.024 62.9353L267.976 68.4717L271.353 77.4243L270.755 97.8573L273.733 108.418L274.132 80.6412L273.534 73.297L275.521 70.7738C275.526 70.7694 273.811 63.1651 272.024 62.9353Z" fill="#FEED7F"/>
<path d="M148.667 110.426L155.035 126.371L150.788 138.068L151.853 159.334V172.088L148.667 169.964L147.074 156.143L149.195 128.5L148.667 110.426Z" fill="#CC6D3D"/>
<path d="M130.443 158.267L129.382 177.937L133.097 186.976L132.564 228.441L134.157 233.756L136.811 186.443L132.036 175.813L130.443 158.267Z" fill="#CE9436"/>
<path d="M163.705 143.384L148.845 170.554L163 187.332L161.584 204.34L175.029 224.188L172.904 190.337L164.415 176.168L163.705 143.384Z" fill="#CC6D3D"/>
<path d="M291.802 73.2102L291.097 105.817L303.126 135.589V162.525L330.021 205.762L329.064 92.9365C329.055 91.8179 328.41 90.8034 327.406 90.3222L291.802 73.2102Z" fill="#CE9436"/>
<path d="M167.069 107.591L178.215 112.373L186.708 108.12L211.123 108.653L186.708 110.777L177.151 117.159L165.476 111.31L167.069 107.591Z" fill="#CC6D3D"/>
<path d="M253.588 138.953L258.362 147.992L253.588 153.841V138.953Z" fill="#CC6D3D"/>
<path d="M137.001 240.359L151.217 240.879L158.905 250.335L162.809 278.498L157.138 312.236L141.611 324.583L132.85 298.15L137.001 240.359Z" fill="#4B3355"/>
<path d="M158.904 250.335L149.732 262.279L152.169 278.459L158.233 295.831L162.809 278.498L158.904 250.335Z" fill="#665070"/>
<path d="M361.971 222.141C361.971 222.141 352.578 198.401 350.344 195.266C348.11 192.132 346.764 190.788 336.925 190.341C327.086 189.894 315.904 186.756 315.904 186.756L295.343 196.545L292.65 205.121L301.148 361.448L325.77 372.534L351.781 372.863L357.049 365.48C357.049 365.48 355.707 269.177 355.707 262.903C355.707 256.63 358.837 255.29 360.625 253.946C362.417 252.598 361.971 222.141 361.971 222.141Z" fill="#273252"/>
<path d="M301.355 195.127L313.74 191.936L330.371 199.731C330.371 199.731 336.033 202.922 339.57 201.856C343.106 200.789 348.768 198.665 348.768 198.665L352.66 205.753L358.677 223.472L358.322 245.444L350.184 244.382L341.336 268.127L331.605 241.547L336.912 224.534L328.241 203.625L313.026 195.474L301.355 195.127Z" fill="#3E4C6F"/>
<path d="M60.4382 270.967L71.1736 261.113V220.797L71.8229 208.095C71.9744 205.155 73.7059 202.528 76.3464 201.232L112.318 183.617C112.318 183.617 125.287 185.858 131.551 189.886C137.811 193.918 140.945 200.638 140.945 200.638L142.732 220.793V251.7C142.732 251.7 144.074 253.044 140.945 255.732C137.815 258.42 137.365 259.764 137.365 259.764C137.365 259.764 136.469 262.006 136.919 264.243C137.365 266.484 136.919 342.632 136.919 342.632L117.686 369.967H68.4897L62.6762 347.561L60.4382 270.967Z" fill="#3E4C6F"/>
<path d="M60.4382 270.967L71.1736 261.113V220.797L71.6541 211.433C71.9095 206.43 74.8573 201.96 79.3506 199.762L81.0475 198.929L112.318 183.617L101.73 207.418L107.821 229.269C107.431 231.51 108.072 233.812 109.57 235.525L111.847 238.131C114.5 241.17 115.409 242.748 118.552 240.22L142.732 220.789L142.122 235.165L132.036 243.671L128.85 265.999C128.85 265.999 126.279 302.035 126.729 304.276C126.898 305.126 117.175 300.023 117.175 300.023L107.089 342.628L117.686 369.963H68.4897L62.6762 347.557L60.4382 270.967Z" fill="#273252"/>
<path d="M99.3018 232.577L92.9342 243.207L104.609 245.865L109.92 246.932L105.674 233.639L99.3018 232.577Z" fill="#3E4C6F"/>
<path d="M85.3198 214.394L94.5271 209.438L100.012 210.605C100.942 210.67 103.843 226.585 103.198 227.261L98.4836 226.199L93.0856 223.36C93.0077 224.257 91.7394 224.357 91.5229 223.485L87.0383 231.818L82.1598 232.191L75.9351 219.479L85.3198 214.394Z" fill="#48598B"/>
<path d="M78.0692 206.113L88.6877 208.593L98.2412 202.571L110.981 184.848L87.9778 196.19L75.9481 204.34L78.0692 206.113Z" fill="#48598B"/>
<path d="M333.557 244.036L331.791 261.403L338.864 276.642L340.401 292.944L343.466 304.992L337.804 292.944L336.388 278.06L328.605 261.048L331.613 241.556L333.557 244.036Z" fill="#3E4C6F"/>
<path d="M339.574 293.477L349.128 297.903L353.019 311.018L353.374 317.044L351.959 310.662L347.712 300.032L340.635 297.196L339.574 293.477Z" fill="#3E4C6F"/>
<path d="M301.399 204.609C300.247 203.455 301.784 198.084 304.082 202.432C306.377 206.781 302.546 205.758 301.399 204.609Z" fill="#288453"/>
<path d="M297.26 203.274C295.598 202.376 296.239 197.581 298.026 198.925C299.048 199.693 301 200.586 299.559 202.892C298.923 203.915 298.923 204.171 297.26 203.274Z" fill="#288453"/>
<path d="M298.074 198.851C296.286 197.572 296.286 190.15 299.096 192.196C301.909 194.243 299.862 200.13 298.074 198.851Z" fill="#288453"/>
<path d="M301.399 200.386C301.399 200.386 302.676 195.014 303.953 197.828C305.23 200.642 301.399 200.386 301.399 200.386Z" fill="#288453"/>
<path d="M296.408 210.405C296.408 210.405 297.182 205.394 295.018 207.163C292.854 208.931 293.936 211.879 296.408 210.405Z" fill="#288453"/>
<path d="M295.607 198.756C294.815 197.854 291.841 197.03 293.819 200.291C296.07 204.002 296.395 199.658 295.607 198.756Z" fill="#288453"/>
<path d="M297.052 208.19C297.052 208.19 302.671 212.282 301.394 209.213C300.117 206.143 297.308 205.888 297.052 208.19Z" fill="#288453"/>
<path d="M296.797 198.34C296.797 198.34 296.031 190.406 295.009 192.968C293.988 195.53 295.265 198.851 296.797 198.34Z" fill="#288453"/>
<path d="M291.585 200.269C289.776 199.536 287.655 201.366 291.763 202.757C295.867 204.145 293.395 201.001 291.585 200.269Z" fill="#288453"/>
<path d="M32.0241 378.022C29.7861 377.125 25.3145 365.926 27.9984 363.243C30.6822 360.555 32.47 361.001 30.2363 353.835C27.9984 346.668 28.4486 308.594 28.4486 292.917C28.4486 277.24 28.4486 263.354 31.1324 257.085C33.8162 250.816 31.1324 244.543 32.9202 241.408C34.7079 238.274 39.6298 236.032 39.6298 236.032C39.6298 236.032 40.9717 221.253 41.8677 219.011C42.7638 216.77 52.1529 213.189 55.7328 213.189C59.3126 213.189 59.3126 214.979 65.1262 221.253C70.9397 227.522 75.4113 231.107 76.7532 233.349C78.0951 235.59 77.6493 238.278 78.9912 241.412C80.3331 244.547 87.9344 274.561 89.2763 277.696C90.6183 280.83 90.6183 279.937 91.0641 287.55C91.51 295.163 92.406 321.145 92.8519 323.383C93.2978 325.624 92.8519 327.415 96.4318 329.652C100.012 331.893 100.012 335.921 100.903 338.162C101.799 340.403 101.799 348.914 101.799 352.942C101.799 356.969 100.903 373.548 101.354 376.236C101.799 378.924 104.037 382.058 98.2239 382.956C92.4104 383.853 80.7833 384.3 75.4156 384.746C70.048 385.193 68.7061 382.956 68.7061 382.956C68.7061 382.956 54.3952 382.058 48.1314 382.058C41.8677 382.058 39.6341 383.402 38.738 381.612C37.8376 379.813 34.2621 378.915 32.0241 378.022Z" fill="#856792"/>
<path d="M65.3339 379.891L65.5676 371.857L55.6591 360.043L57.5464 343.27L49.2915 337.126L47.1704 326.023L40.5647 315.865C40.5647 315.865 46.2267 297.201 45.9886 295.783C45.7549 294.366 54.9535 290.824 54.9535 290.824L65.5676 303.583L63.2085 316.342L65.5676 328.863L80.9001 371.866L75.4762 371.394L73.117 382.497L65.3339 379.891Z" fill="#665070"/>
<path d="M47.4043 236.947L50.9409 236.002C50.9409 236.002 59.8452 241.556 59.8452 246.871C59.8452 252.186 56.6592 258.568 56.6592 258.568C56.6592 258.568 55.5987 268.136 57.7198 273.985C59.8409 279.833 68.3339 293.121 68.3339 293.121L78.948 298.437C78.948 298.437 79.4805 306.943 80.541 308.538C81.5366 310.034 81.1297 316.632 81.1297 316.632C81.1297 316.632 83.7833 320.708 83.9607 318.228C84.1382 315.748 87.4411 314.387 87.4411 314.387L84.2551 306.414L84.7875 296.312L70.455 289.935L60.9014 273.456L60.369 261.23L63.5549 246.875C63.5549 246.875 59.4253 237.779 55.8887 235.3C54.378 234.237 44.8027 235.772 44.8027 235.772L47.4043 236.947Z" fill="#BB83C3"/>
<path d="M82.1425 309.067L80.5496 313.498L82.1425 345.749C82.1425 345.749 84.2074 337.36 85.2679 328.854C86.3285 320.352 82.1425 309.067 82.1425 309.067Z" fill="#BB83C3"/>
<path d="M29.9464 365.241C29.9464 365.241 34.1929 369.85 36.669 369.85C39.145 369.85 42.331 364.535 42.331 364.535C42.331 364.535 50.1141 364.179 51.5296 364.179C52.9451 364.179 58.6072 369.494 58.6072 369.494L64.2692 372.685L61.0832 373.041L56.8367 370.916L50.8197 366.663L43.3872 367.019L37.3702 373.045L31.3533 368.437L29.9464 365.241Z" fill="#BB83C3"/>
<path d="M40.9154 368.077L37.3788 375.521L38.7337 381.603L34.8985 377.645L34.1929 371.268H36.6689L40.9154 368.077Z" fill="#BB83C3"/>
<path d="M55.6029 218.161L51.8845 223.364L54.0099 229.72L59.8495 235.499L60.91 244.742L63.0311 236.075L58.7846 230.877L55.0705 224.521L55.6029 218.161Z" fill="#BB83C3"/>
<path d="M33.838 254.844C33.838 254.844 31.1844 274.514 31.7169 279.829C32.2493 285.144 35.9634 289.93 35.9634 293.117C35.9634 296.304 35.431 308.001 31.1844 315.445C26.9379 322.888 29.0633 297.37 29.0633 297.37L28.0028 274.509C27.9985 274.514 27.9985 255.377 33.838 254.844Z" fill="#BB83C3"/>
<path d="M37.7295 308.36C33.3055 318.106 31.5351 318.462 34.1929 323.777C36.8465 329.092 42.331 342.029 42.331 342.029C42.331 342.029 51.8846 354.789 54.01 355.317C56.1311 355.851 53.4776 343.092 53.4776 343.092L49.2311 344.687L46.5775 342.563L40.738 322.893L37.552 318.106L41.2661 304.285L40.5605 290.464L37.907 295.25L37.7295 308.36Z" fill="#BB83C3"/>
<path d="M45.5169 256.439L42.8634 265.479L45.5169 277.171V284.615L47.638 276.642L45.5169 265.479L47.638 252.186L45.5169 256.439Z" fill="#665070"/>
<path d="M45.517 272.918L50.824 274.514L57.7241 273.985L51.8846 278.233L45.517 277.171V272.918Z" fill="#665070"/>
<path d="M47.6379 252.186L40.7378 250.062L37.5562 245.275L33.3097 246.338L35.4308 248.995L39.1449 252.719L47.6379 252.186Z" fill="#665070"/>
<path d="M43.2618 294.092C44.2055 295.51 47.5083 296.217 48.2139 293.737C48.9195 291.257 46.0928 290.195 46.0928 290.195C46.0928 290.195 42.3181 292.675 43.2618 294.092Z" fill="#288453"/>
<path d="M43.8505 283.579C43.8505 283.579 43.1449 290.668 47.0365 288.188C50.928 285.708 46.6815 282.161 43.8505 283.579Z" fill="#33A86D"/>
<path d="M50.9281 291.378C50.9281 291.378 51.6337 296.338 53.4042 293.152C55.1746 289.961 53.7591 288.187 50.9281 291.378Z" fill="#33A86D"/>
<path d="M47.0365 298.111C47.0365 298.111 50.2225 290.667 50.5731 294.214C50.9281 297.756 47.0365 298.111 47.0365 298.111Z" fill="#33A86D"/>
<path d="M162.03 278.025C162.03 278.025 161.558 268.535 164.398 272.805C167.238 277.076 164.87 279.451 164.87 279.451C164.87 279.451 167.714 272.805 170.558 278.502C173.402 284.199 166.294 285.148 166.294 285.148C166.294 285.148 156.818 285.621 156.818 278.502C156.818 271.383 162.03 278.025 162.03 278.025Z" fill="#33A86D"/>
<path d="M71.2212 212.356C71.2212 212.356 65.9012 206.672 65.9012 209.161C65.9012 211.649 69.4465 214.489 69.4465 214.489C69.4465 214.489 64.8363 214.134 65.5462 216.622C66.2562 219.111 69.8014 217.689 69.8014 217.689C69.8014 217.689 73.3467 224.439 75.1215 217.689C76.8963 210.938 72.9917 200.989 71.2212 212.356Z" fill="#33A86D"/>
<path d="M86.6187 229.49C85.8006 226.763 91.3587 220.949 91.3587 224.743C91.3587 228.54 88.0385 234.237 86.6187 229.49Z" fill="#33A86D"/>
<path d="M83.7097 236.917C83.7097 236.917 87.4757 231.259 88.4194 234.714C89.3631 238.169 84.6491 242.886 83.7097 236.917Z" fill="#33A86D"/>
<path d="M86.1427 252.268C86.1427 252.268 80.9308 243.25 86.1427 244.2C91.3588 245.149 89.4628 256.543 86.1427 252.268Z" fill="#33A86D"/>
<path d="M91.3586 251.796C91.3586 251.796 98.4665 244.677 97.9946 248.948C97.5185 253.218 93.7265 256.066 91.3586 251.796Z" fill="#33A86D"/>
<path d="M83.3028 254.644C83.3028 254.644 76.195 254.172 79.5108 256.066C82.8266 257.965 88.0385 258.442 83.3028 254.644Z" fill="#33A86D"/>
<path d="M80.4588 248.948C80.4588 248.948 73.8228 247.525 77.6148 249.897C81.4068 252.268 80.4588 248.948 80.4588 248.948Z" fill="#33A86D"/>
<path d="M91.8306 263.185C91.8306 263.185 92.7786 254.644 96.0944 257.016C99.4146 259.391 97.5186 264.611 91.8306 263.185Z" fill="#33A86D"/>
<path d="M88.9864 268.405C88.9864 268.405 83.7746 260.337 88.5146 263.185C93.2503 266.033 94.1983 268.405 88.9864 268.405Z" fill="#33A86D"/>
<path d="M90.4105 274.102C90.4105 274.102 93.2545 265.084 95.6224 271.253C97.9902 277.423 91.3585 277.899 90.4105 274.102Z" fill="#33A86D"/>
<path d="M92.3067 282.17C92.3067 282.17 84.2509 274.574 87.0949 278.849C89.9345 283.119 92.3067 282.17 92.3067 282.17Z" fill="#33A86D"/>
<path d="M98.4666 277.899C98.4666 277.899 91.8306 282.647 97.5186 281.22C103.202 279.798 101.782 278.372 98.4666 277.899Z" fill="#33A86D"/>
<path d="M86.3807 272.914C86.3807 272.914 82.1169 277.184 86.1426 276.001C90.1684 274.817 91.1207 271.73 86.3807 272.914Z" fill="#33A86D"/>
<path d="M89.4626 284.78C89.4626 284.78 87.3285 291.66 92.5447 289.289C97.7522 286.917 96.8085 281.22 89.4626 284.78Z" fill="#33A86D"/>
<path d="M97.5185 288.816C97.5185 288.816 100.601 284.784 102.73 286.917C104.86 289.05 91.3586 294.274 97.5185 288.816Z" fill="#33A86D"/>
<path d="M90.8825 291.426C90.8825 291.426 80.6926 295.224 88.5147 294.036C96.3324 292.848 94.6745 292.61 90.8825 291.426Z" fill="#33A86D"/>
<path d="M93.2504 295.224C93.2504 295.224 95.3845 298.545 98.4622 296.412C101.54 294.279 99.1764 294.747 93.2504 295.224Z" fill="#33A86D"/>
<path d="M101.782 291.188C101.782 291.188 109.6 291.188 104.864 292.376C100.129 293.564 97.7521 293.087 101.782 291.188Z" fill="#33A86D"/>
<path d="M89.6964 297.119C89.6964 297.119 86.1425 301.866 92.7785 299.256C99.4145 296.646 89.6964 297.119 89.6964 297.119Z" fill="#33A86D"/>
<path d="M99.648 298.068C99.648 298.068 95.3841 303.288 102.254 300.678C109.128 298.068 106.756 296.407 99.648 298.068Z" fill="#33A86D"/>
<path d="M91.8305 302.343C91.8305 302.343 91.5924 305.191 95.3844 303.531C99.1764 301.866 97.9903 301.155 91.8305 302.343Z" fill="#33A86D"/>
<path d="M92.5402 307.086C92.5402 307.086 88.2764 309.457 93.7263 309.223C99.1762 308.985 92.5402 307.086 92.5402 307.086Z" fill="#33A86D"/>
<path d="M82.8265 261.052C82.8265 261.052 73.8227 259.391 78.5627 261.763C83.3027 264.134 83.7745 262.236 82.8265 261.052Z" fill="#33A86D"/>
<path d="M88.2768 258.203C88.2768 258.203 80.459 257.016 84.7229 259.153C88.9867 261.286 90.4108 260.102 88.2768 258.203Z" fill="#33A86D"/>
<path d="M96.8085 265.795C96.8085 265.795 104.626 261.763 101.782 265.084C98.9383 268.405 90.6443 271.253 96.8085 265.795Z" fill="#33A86D"/>
<path d="M72.4031 223.954C72.4031 223.954 63.2435 222.055 67.0311 224.587C70.8188 227.119 75.8791 227.119 72.4031 223.954Z" fill="#33A86D"/>
<path d="M72.7189 228.384C72.7189 228.384 67.9789 235.031 74.6149 232.499C81.2509 229.967 77.1429 227.118 72.7189 228.384Z" fill="#33A86D"/>
<path d="M72.4031 223.954C72.4031 223.954 80.2987 222.055 75.8791 225.22C71.4551 228.384 72.4031 223.954 72.4031 223.954Z" fill="#33A86D"/>
<path d="M77.4548 216.674C77.4548 216.674 71.7668 224.899 78.7188 220.472C85.6708 216.046 82.8268 212.564 77.4548 216.674Z" fill="#33A86D"/>
<path d="M81.8788 221.738C81.8788 221.738 86.3028 223.321 81.2468 224.903C76.1951 226.486 77.7708 225.536 81.8788 221.738Z" fill="#33A86D"/>
<path d="M80.9307 227.435C80.9307 227.435 76.1907 231.866 81.8787 229.967C87.5667 228.068 86.3027 226.802 80.9307 227.435Z" fill="#33A86D"/>
<path d="M77.7707 236.292C77.7707 236.292 68.927 236.925 75.5587 238.824C82.1904 240.723 80.9307 237.558 77.7707 236.292Z" fill="#33A86D"/>
<path d="M78.7186 233.127C78.7186 233.127 84.7226 228.064 83.1426 231.861C81.5626 235.659 76.8269 235.976 78.7186 233.127Z" fill="#33A86D"/>
<path d="M84.1037 232.442C84.1037 232.442 91.6877 230.543 86.6317 233.075C81.5757 235.607 84.1037 232.442 84.1037 232.442Z" fill="#33A86D"/>
<path d="M76.1949 241.672C76.1949 241.672 66.0872 242.622 72.4029 243.888C78.7185 245.149 78.0865 242.938 76.1949 241.672Z" fill="#33A86D"/>
<path d="M71.139 238.191C71.139 238.191 64.503 238.191 67.663 239.774C70.823 241.356 74.615 241.356 71.139 238.191Z" fill="#33A86D"/>
<path d="M246.276 274.279L170.19 275.047C168.701 275.047 165.354 274.102 165.354 278.532C165.354 282.963 165.385 285.296 165.385 285.296L247.172 285.031L246.276 274.279Z" fill="#4B3355"/>
<path d="M149.373 300.882C149.373 300.882 148.905 300.175 148.754 295.688C148.576 290.459 148.13 288.647 150.169 287.624C152.645 286.384 158.926 286.028 158.926 286.028L241.004 283.952L241.359 290.576V301.775L149.373 300.882Z" fill="#4B3355"/>
<path d="M148.65 289.237C148.65 289.237 148.234 287.576 150.437 286.995C155.68 285.617 158.632 284.671 165.471 284.437C172.311 284.203 241.355 284.307 241.355 284.307V290.576L148.65 289.237Z" fill="#FEED7F"/>
<path d="M149.728 300.83C149.728 300.83 149.55 300.977 144.126 302.512C138.702 304.046 138.053 305.681 138.053 307.471C138.053 309.262 142.832 308.889 142.832 308.889L240.467 310.307V301.424L149.728 300.83Z" fill="#FEED7F"/>
<path d="M139.642 317.998C137.282 317.998 135.75 319.407 131.62 321.531C128.504 323.14 126.196 323.894 125.725 326.491C125.162 329.582 241.359 336.358 241.359 336.358V318.895C241.359 318.895 142.001 317.998 139.642 317.998Z" fill="#FFACFF"/>
<path d="M129.733 323.66C127.521 324.219 126.59 323.846 125.841 325.108C125.24 326.118 125.015 328.1 125.015 329.097C125.015 331.338 124.945 336.367 124.945 336.367H241.355L239.662 325.082C239.662 325.082 193.175 324.462 160.636 324.046L158.48 325.203C158.48 325.203 156.022 323.99 155.208 323.977C141.152 323.786 130.703 323.413 129.733 323.66Z" fill="#4B3355"/>
<path d="M244.06 341.96L114.522 342.675C114.11 342.675 113.816 340.196 115.452 339.563L124.867 336.398C124.919 336.372 124.98 336.359 125.041 336.359H247.332C247.644 336.359 247.83 336.71 247.653 336.97L244.38 341.787C244.307 341.899 244.19 341.96 244.06 341.96Z" fill="#FFACFF"/>
<path d="M112.336 349.768C112.336 349.768 111.803 347.405 112.041 345.103C112.275 342.801 114.4 340.789 114.4 340.789C114.4 340.013 115.392 340.317 116.171 340.317L240.8 340.438C241.575 340.438 242.207 341.067 242.207 341.847V349.07C242.207 349.846 241.58 350.475 240.805 350.479L114.942 350.739C114.162 350.739 112.336 350.544 112.336 349.768Z" fill="#665070"/>
<path d="M113.768 349.733L99.4532 355.556L221.208 358.864L248.514 355.556L244.385 350.357L113.768 349.733Z" fill="#FFACFF"/>
<path d="M99.4533 355.53C99.4533 355.53 97.8863 362.172 97.6482 363.824C97.4144 365.476 99.4533 367.492 99.4533 367.492H244.934L249.852 355.083L225.983 356.029C225.983 356.029 221.78 357.446 220.676 357.446C216.607 357.446 212.005 355.196 212.005 355.196L99.4533 355.53Z" fill="#665070"/>
<path d="M98.5139 367.613L91.0208 369.577C87.7007 370.448 86.3285 370.544 86.3285 373.982L85.3848 377.289C85.3848 381.464 84.0472 384.85 88.2158 384.85H239.623C243.792 384.85 247.172 381.464 247.172 377.289V374.922C247.172 370.747 243.792 367.361 239.623 367.361H100.427C99.7823 367.37 99.1416 367.452 98.5139 367.613Z" fill="#665070"/>
<path d="M99.3365 367.4L88.2722 370.301C87.3848 370.535 87.3242 371.775 88.1856 372.096L94.3671 374.38C94.5099 374.432 101.038 371.645 101.189 371.623L116.69 371.632C116.738 371.627 116.786 371.623 116.833 371.623L192.206 373.383C192.526 373.392 192.825 373.561 192.989 373.838C193.353 374.445 194.227 374.45 194.595 373.847L194.924 373.309C195.093 373.032 195.396 372.863 195.725 372.863H243.259C243.9 372.863 244.354 372.234 244.151 371.623L243.186 368.718C243.06 368.337 242.701 368.077 242.298 368.077L99.5789 367.37C99.4966 367.37 99.4144 367.379 99.3365 367.4Z" fill="#FFACFF"/>
<path d="M170.783 273.807C170.783 273.807 164.415 275.519 165.831 276.053C167.246 276.586 181.756 276.287 187.241 276.642C192.725 276.998 242.09 276.287 242.09 276.287C242.09 276.287 243.978 273.807 237.433 273.985C230.879 274.158 170.783 273.807 170.783 273.807Z" fill="#FEED7F"/>
<path d="M150.377 289.046L152.736 289.752L153.914 290.815L161.935 289.635L163.822 290.108L166.653 288.69L150.377 289.046Z" fill="#FEED7F"/>
<path d="M229.87 306.479L227.403 308.538L225.84 306.505L224.464 306.513L223.862 307.597L221.083 306.535L183.522 306.765L180.856 307.575L177.86 308.005L171.843 306.088L139.758 305.937C139.758 305.937 138.049 305.681 138.049 307.471C138.049 309.262 137.399 317.512 139.17 318.574C140.94 319.637 240.463 319.784 240.463 319.784V306.409L229.87 306.479Z" fill="#4B3355"/>
<path d="M161.935 321.648L165.562 325.767C165.562 325.767 171.605 325.355 173.419 325.767C174.657 326.049 192.249 326.253 192.249 326.253L196.989 326.795L202.391 324.362L194.27 322.468L161.935 321.648Z" fill="#FFACFF"/>
<path d="M122.482 339.723L133.629 341.852L136.915 342.632L142.473 342.558L147.074 343.269L155.922 338.661L122.482 339.723Z" fill="#FFACFF"/>
<path d="M171.255 354.373L174.319 357.208L180.925 358.626L183.994 356.974L188.474 357.208L193.665 354.373H171.255Z" fill="#FFACFF"/>
<path d="M139.763 305.937L147.667 306.171L149.554 307.589L148.611 310.186L150.97 313.728V316.325L155.45 315.618L157.571 318.215L138.464 317.742C138.464 317.742 137.759 317.27 137.759 313.489C137.759 309.709 137.282 305.464 139.763 305.937Z" fill="#34283A"/>
<path d="M112.336 349.768C112.336 349.768 109.916 345.87 114.401 340.789L116.994 340.434L116.76 344.214L119.686 347.96C119.764 347.977 119.838 347.93 119.855 347.852L120.063 346.811L129.499 344.921L130.443 347.284L128.794 349.647L112.336 349.768Z" fill="#4B3355"/>
<path d="M132.391 329.803L134.161 332.106L134.603 334.143L137.966 334.23L139.646 336.003L140.001 336.268H128.322L125.041 336.363L124.872 332.37C124.872 332.37 124.872 326.786 125.136 326.257C125.4 325.728 126.465 324.397 126.465 324.397L130.001 323.422L132.832 324.839L132.391 329.803Z" fill="#34283A"/>
<path d="M103.665 371.74L104.964 376.938L108.855 377.645L110.626 381.191L114.4 384.85H95.5269L96.1199 381.308L93.1677 378.59L94.8213 374.575L101.189 371.623L103.665 371.74Z" fill="#4B3355"/>
<path d="M136.577 372.095L136.282 374.809L139.17 377.055L144.065 376.049L147.901 379.418L153.242 372.464L136.577 372.095Z" fill="#4B3355"/>
<path d="M115.344 371.385L116.288 372.802L119.353 370.678L122.656 372.802H127.374C127.374 372.802 127.608 374.692 128.318 374.927C129.027 375.161 133.508 370.912 133.508 370.912L115.816 368.788L115.344 371.385Z" fill="#FFACFF"/>
<path d="M212.066 339.489L213.482 341.852L218.2 342.086L223.624 340.668L225.983 341.852L227.637 339.489H212.066Z" fill="#FFACFF"/>
<path d="M162.03 278.025C162.03 278.025 161.558 268.535 164.398 272.805C167.237 277.076 164.869 279.451 164.869 279.451C164.869 279.451 167.713 272.805 170.557 278.502C173.401 284.199 166.294 285.148 166.294 285.148C166.294 285.148 156.818 285.621 156.818 278.502C156.818 271.383 162.03 278.025 162.03 278.025Z" fill="#33A86D"/>
<path d="M237.528 311.729C237.528 311.729 237.528 297.843 237.528 292.918C237.528 287.992 240.212 284.914 240.212 284.914C240.212 284.914 240.454 274.93 240.671 272.658C240.935 269.823 246.982 264.36 246.982 264.36L248.263 257.272V201.535C248.263 201.535 246.921 197.95 246.475 197.057C246.03 196.159 246.475 192.132 246.475 192.132C246.475 192.132 258.999 186.756 260.34 186.756C261.682 186.756 287.174 193.922 287.174 193.922C287.174 193.922 301.931 211.39 302.381 214.078C302.827 216.766 302.381 236.474 302.381 236.474L314.627 242.084L320.995 258.564C320.995 258.564 325.185 284.849 326.977 285.296C328.765 285.742 334.579 302.317 335.029 305.005C336.47 313.671 339.046 306.474 339.046 332.778L345.414 342.632L348.067 376.11L329.666 388.987L247.926 387.686L240.662 385.089L237.528 311.729Z" fill="#665070"/>
<path d="M283.62 239.783L294.434 245.098L295.927 250.769L300.031 255.728L303.386 264.59L303.468 271.323L320.112 275.221L320.467 279.296C320.467 279.296 319.406 294.002 319.406 296.837C319.406 299.672 318.575 322.178 318.575 322.178L324.54 337.772L318.575 385.263L244.467 379.414L242.973 328.026L248.566 279.829L256.769 274.158L260.501 245.805L270.197 234.463L283.62 239.783Z" fill="#856792"/>
<path d="M235.892 320.942C235.892 320.942 237.13 308.04 237.13 301.983C237.13 300.288 237.528 293.993 237.528 292.918C237.528 291.118 237.887 289.566 238.342 288.318C239.13 286.154 240.212 284.914 240.212 284.914C240.212 284.914 240.575 273.677 240.671 272.658C240.935 269.823 246.982 264.36 246.982 264.36L253.116 267.195L254.059 262.708L248.263 249.949V201.535C248.263 201.535 246.921 197.95 246.475 197.057C246.03 196.159 246.475 192.132 246.475 192.132C246.475 192.132 258.999 186.756 260.341 186.756C261.682 186.756 261.02 223.481 261.02 223.481C261.02 223.481 284.988 229.833 285.434 232.521C285.88 235.208 262.258 312.262 262.258 312.262L235.541 343.274L235.892 320.942Z" fill="#856792"/>
<path d="M251.462 275.576L253.938 257.857L268.608 243.68L287.555 245.098C287.555 245.098 290.564 247.821 291.01 250.955C291.456 254.09 297.464 260.692 297.464 260.692C297.464 260.692 298.598 268.496 299.585 274.947C299.819 276.482 314.329 278.845 314.801 279.3C318.03 282.4 315.506 305.113 315.506 307.476C315.506 309.839 332.046 323.665 332.492 325.906C332.938 328.148 336.587 338.158 336.587 338.158C336.587 338.158 328.956 386.043 328.956 388.28C328.956 390.517 248.982 387.747 248.982 387.747V282.664L251.462 275.576Z" fill="#1D2538"/>
<path d="M263.111 230.123L267.02 224.444L261.137 223.169L263.111 230.123Z" fill="#665070"/>
<path d="M262.081 196.367L257.302 200.62L263.141 205.935L262.081 196.367Z" fill="#665070"/>
<path d="M285.079 197.963L288.265 214.264C288.265 214.264 292.867 222.415 295.698 225.961C298.529 229.503 298.174 239.783 298.174 239.783L305.252 244.391L296.053 241.2C296.053 241.2 295.698 229.503 294.637 227.734C293.577 225.961 288.62 218.873 286.854 216.748C285.079 214.62 285.079 197.963 285.079 197.963Z" fill="#4B3355"/>
<path d="M250.969 300.357C250.969 300.357 245.757 300.171 242.9 300.483C239.809 300.821 237.688 301.229 234.585 306.327C231.922 310.702 230.736 314.907 229.992 316.645C229.247 318.384 229.494 319.381 231.728 321.371C233.961 323.361 247.121 329.825 254.068 322.615C261.02 315.406 260.025 306.206 257.791 303.969C255.557 301.732 250.969 300.357 250.969 300.357Z" fill="#665070"/>
<path d="M267.353 288.786C264.25 286.675 254.293 286.206 249.696 287.624C241.969 290.004 241.913 294.357 240.143 298.965C238.874 302.265 240.736 307.06 243.225 308.027C245.714 308.989 254.813 308.811 257.925 306.561C261.038 304.311 270.457 290.902 267.353 288.786Z" fill="#665070"/>
<path d="M260.527 288.04C260.527 288.04 255.709 287.624 261.02 291.526L254.332 301.246C254.332 301.246 249.878 303.305 248.51 306.734C247.142 310.164 249.783 318.969 249.605 320.365C248.861 326.331 241.164 349.204 243.151 357.411C245.138 365.614 261.769 359.401 280.14 362.137C298.512 364.873 329.791 359.401 334.258 358.409C338.726 357.416 334.899 340.338 333.142 336.155C329.168 326.708 330.285 321.362 328.302 313.654C326.315 305.945 330.042 301.519 319.865 295.302C309.68 289.085 270.704 284.81 260.527 288.04Z" fill="#856792"/>
<path d="M291.776 283.18C291.776 283.18 298.1 283.262 303.823 284.676C305.394 285.062 309.104 283.882 310.727 284.324C317.151 286.076 322.714 289.466 323.514 291.183C325.25 294.912 327.735 309.583 325.501 311.573C323.268 313.563 320.606 316.138 316.134 316.138C311.662 316.138 304.217 315.392 303.226 311.412C302.23 307.432 283.088 294.118 291.776 283.18Z" fill="#856792"/>
<path d="M253.947 322.351L249.601 317.625C241.658 317.126 236.939 317.872 233.714 320.361C230.485 322.845 228.251 327.445 227.507 333.909C226.762 340.373 226.762 344.847 233.463 349.573C240.164 354.299 241.904 353.301 249.103 355.538C256.302 357.776 268.444 355.313 268.444 355.313L269.86 351.415L270.565 344.683C270.565 344.683 269.357 338.418 269.505 336.532C269.63 334.91 265.483 329.309 263.003 329.062C260.522 328.815 255.804 328.316 253.817 327.571L253.947 322.351Z" fill="#856792"/>
<path d="M259.293 333.298H262.379C262.379 333.298 262.05 331.572 267.336 331.23C272.625 330.883 272.651 334.52 272.651 334.52C272.651 334.52 273.08 337.945 274.028 341.782C274.725 344.613 274.279 347.462 274.279 349.183C274.279 353.241 271.963 357.082 268.656 358.114C266.228 358.872 260.89 357.602 258.102 354.823C257.098 353.822 256.427 352.625 256.341 351.255C256.198 349.048 257.289 346.026 257.284 343.382C257.284 342.367 256.142 341.613 256.155 340.677C256.198 338.331 256.289 336.35 256.427 335.361C256.761 332.951 259.293 333.298 259.293 333.298Z" fill="#665070"/>
<path d="M258.903 334.59H262.73C262.73 334.59 262.704 332.895 264.449 332.713C271.007 332.4 270.189 335.531 270.189 335.531C270.189 335.531 271.885 338.036 272.747 342.298C273.288 344.956 273.314 347.444 273.314 349.009C273.314 352.695 270.189 356.193 266.089 357.13C263.076 357.819 260.886 356.666 257.432 354.143C256.189 353.232 255.354 352.144 255.246 350.904C255.073 348.901 256.419 346.157 256.414 343.755C256.414 342.831 254.995 342.151 255.016 341.297C255.068 339.164 255.185 337.369 255.354 336.471C255.761 334.278 258.903 334.59 258.903 334.59Z" fill="#856792"/>
<path d="M337.366 361.513C337.366 369.343 338.375 379.102 337.366 381.373C336.358 383.645 335.419 385.609 330.375 387.924C324.333 390.699 320.493 388.687 315.956 390.456C311.42 392.225 304.624 391.718 296.057 391.466C287.495 391.215 286.988 388.943 283.209 390.708C279.43 392.472 271.877 393.482 271.621 386.671C271.37 379.86 271.119 365.228 271.872 361.443C272.63 357.659 275.521 358.023 279.049 357.784C282.828 357.533 288.244 358.92 288.244 358.92C296.516 355.556 307.368 356.028 307.368 356.028C307.368 356.028 313.684 354.381 318.722 352.868C323.761 351.355 323.255 351.355 325.272 349.842C327.289 348.324 337.366 353.679 337.366 361.513Z" fill="#665070"/>
<path d="M236.818 346.968C236.818 346.968 224.633 351.099 221.105 353.371C217.577 355.643 216.066 357.407 216.066 363.46C216.066 369.512 216.823 374.307 216.823 376.83C216.823 379.353 221.105 383.641 223.875 386.919C226.645 390.196 228.407 388.935 234.454 389.693C240.502 390.452 241.757 388.432 246.294 388.935C250.826 389.438 257.882 387.924 257.882 387.924C257.882 387.924 259.393 389.94 263.674 390.448C267.955 390.951 264.682 390.951 268.963 390.699C273.245 390.448 275.764 389.186 275.513 378.339C275.262 367.492 277.781 363.204 273.751 360.178C269.721 357.151 268.712 356.9 264.933 356.644C261.154 356.388 260.496 357.555 257.726 357.052C254.956 356.549 243.116 354.277 241.355 351.754C239.588 349.239 241.099 348.481 236.818 346.968Z" fill="#665070"/>
<path d="M299.637 287.173C299.637 287.173 301.581 296.351 304.083 300.249C306.585 304.146 306.645 304.97 311.922 305.807C317.199 306.639 320.532 305.529 320.532 305.529C320.532 305.529 322.03 308.247 315.783 308.104C309.532 307.966 303.702 306.574 302.589 305.742C301.477 304.909 300.749 298.302 299.637 294.27C298.524 290.238 299.637 287.173 299.637 287.173Z" fill="#665070"/>
<path d="M318.865 328.104C318.865 328.104 316.091 326.868 314.641 326.951C313.19 327.033 310.295 331.069 309.45 332.6C308.606 334.13 309.684 342.996 309.684 344.579C309.684 346.161 309.087 347.18 311.26 348.025C313.433 348.871 316.45 347.835 317.056 347.874C317.658 347.913 319.472 346.269 318.506 346.031C317.541 345.793 313.437 346.937 312.593 346.53C311.749 346.122 311.143 343.62 311.143 343.62C311.143 343.62 310.541 338.127 310.779 336.385C311.017 334.642 311.987 332.769 311.987 332.769C311.987 332.769 313.675 328.655 314.645 328.72C315.606 328.776 318.865 328.104 318.865 328.104Z" fill="#665070"/>
<path d="M308.082 357.091L300.356 363.004C300.356 363.004 296.979 375.685 297.594 378.668C298.209 381.651 301.892 385.752 301.892 385.752L313.558 389.854C313.558 389.854 317.857 390.227 320.619 387.617C323.38 385.007 322.155 379.037 322.155 379.037C322.155 379.037 320.567 359.102 318.878 357.797C317.19 356.492 308.082 357.091 308.082 357.091Z" fill="#856792"/>
<path d="M279.422 358.526C279.422 358.526 272.639 356.289 272.318 358.153C271.998 360.017 271.028 369.716 271.673 372.326C272.318 374.935 272.963 376.427 272.963 376.427L271.673 379.41C271.673 379.41 271.712 390.855 273.79 391.284C275.872 391.718 280.716 386.867 280.716 386.867L282.655 380.528C282.655 380.528 283.3 361.881 282.331 360.763C281.361 359.644 279.422 358.526 279.422 358.526Z" fill="#856792"/>
<path d="M325.315 328.468C325.315 328.468 327.177 331.906 327.549 336.025C327.921 340.143 326.77 344.249 324.199 347.436C319.402 353.379 318.892 352.963 318.892 352.963C318.892 352.963 309.022 354.762 306.044 353.514L318.333 349.954C318.333 349.954 325.571 343.525 325.571 342.406C325.571 341.288 324.887 331.889 324.887 331.889L325.315 328.468Z" fill="#665070"/>
<path d="M265.362 276.525C265.362 276.525 266.042 279.018 265.475 280.497C264.907 281.971 262.925 281.689 261.341 281.689C259.756 281.689 258.341 281.52 257.549 280.839C256.756 280.159 255.609 276.391 256.189 275.511C256.769 274.631 258.678 274.943 261.059 275.286C263.44 275.628 265.362 276.525 265.362 276.525Z" fill="#856792"/>
<path d="M292.616 286.094C292.616 286.094 292.949 275.537 291.78 272.524C290.607 269.506 290.607 269.844 287.43 267.664C284.253 265.487 283.75 265.821 283.582 264.481C283.413 263.142 282.409 262.47 275.721 262.47C269.028 262.47 262.336 263.142 260.834 264.481C259.332 265.821 257.587 271.253 257.587 271.253C257.587 271.253 256.245 276.998 257.483 285.257C257.501 287.524 257.838 290.524 257.838 290.524L256.895 290.997C256.895 290.997 257.384 300.171 257.886 301.844C258.388 303.518 258.055 305.365 267.924 304.693C277.794 304.021 284.988 303.518 286.659 300.335C288.33 297.153 289.923 294.951 289.923 294.951C289.923 294.951 292.984 290.581 292.616 286.094Z" fill="#856792"/>
<path d="M271.539 278.394C271.539 278.394 272.877 281.298 273.768 282.191C274.66 283.085 281.352 283.31 281.352 283.31C281.352 283.31 277.785 283.756 275.552 283.756C273.322 283.756 272.431 282.863 272.431 282.863L271.539 278.394Z" fill="#665070"/>
<path d="M264.557 278.472C263.141 276.876 257.038 276.373 256.947 277.483C256.86 278.589 257.791 281.576 258.834 281.84C259.765 282.074 264.128 282.478 264.436 281.606C264.687 280.895 265.972 280.067 264.557 278.472Z" fill="#665070"/>
<path d="M284.361 274.058L292.114 274.084L292.07 275.311L286.928 276.543C286.928 276.543 285.698 279.625 285.257 280.397C283.491 283.462 272.699 281.247 272.699 281.247L271.816 279.122L284.361 274.058Z" fill="#665070"/>
<path d="M256.83 290.759C256.83 290.759 257.38 294.47 258.384 297.821C259.388 301.172 259.717 302.794 262.064 302.963C264.405 303.132 274.059 303.063 280.249 302.395C286.439 301.723 287.668 298.827 288.672 296.65C289.677 294.474 290.179 291.626 290.179 291.626C290.179 291.626 291.014 293.134 290.512 294.808C290.01 296.481 290.439 302.061 286.088 302.898C283.218 303.448 267.795 304.866 261.73 304.641C257.215 304.472 257.384 302.347 257.051 297.656C256.709 292.961 256.83 290.759 256.83 290.759Z" fill="#665070"/>
<path d="M271.037 276.655C271.037 276.655 271.595 279.894 273.158 280.674C274.721 281.455 279.625 281.346 281.967 281.233C284.309 281.121 283.975 281.346 284.196 279.447C284.421 277.548 284.867 273.304 283.75 272.745C282.633 272.185 273.599 274.869 271.037 276.655Z" fill="#34283A"/>
<path d="M264.539 277.666C264.539 277.666 265.042 279.508 264.622 280.596C264.202 281.684 262.743 281.476 261.57 281.476C260.401 281.476 259.354 281.351 258.769 280.848C258.185 280.345 257.336 277.566 257.765 276.916C258.194 276.265 259.605 276.495 261.358 276.746C263.12 276.994 264.539 277.666 264.539 277.666Z" fill="#34283A"/>
<path d="M292.893 272.745C292.893 272.745 292.746 274.757 291.049 274.757C289.352 274.757 284.841 273.361 281.616 274.367C278.391 275.372 273.257 278.347 271.392 278.347C269.526 278.347 266.002 278.39 264.812 278.39C263.622 278.39 262.946 277.05 260.059 276.881C257.172 276.712 255.713 277.12 255.445 276.734C254.934 274.722 255.137 271.02 256.665 269.68C258.193 268.34 254.639 262.422 265.492 261.135C285.252 258.789 284.906 262.31 285.923 263.311C286.941 264.317 288.997 264.248 290.218 264.933C293.005 266.489 292.893 270.066 292.893 272.745Z" fill="#856792"/>
<path d="M258.185 275.224C253.938 274.869 255.137 271.015 256.665 269.675C258.193 268.335 254.639 262.418 265.491 261.13C285.252 258.784 284.906 262.305 285.923 263.306C286.59 263.965 280.014 266.714 276.361 269.116C272.708 271.518 271.716 269.779 270.651 270.486C269.591 271.192 264.063 269.458 264.552 269.549C264.556 269.554 260.024 275.376 258.185 275.224Z" fill="#665070"/>
<path d="M258.168 283.982L258.501 290.295L256.865 290.767L256.925 291.838C256.925 291.838 274.764 290.685 281.79 292.358L280.452 290.685C280.452 290.685 269.708 289.176 260.116 289.961L259.168 288.452L258.168 283.982Z" fill="#665070"/>
<path d="M264.591 278.385C264.591 278.385 266.574 278.775 266.855 278.775C267.132 278.775 268.362 278.606 268.362 278.606L271.764 278.329L271.431 278.832L268.418 279.781L266.297 279.837L264.786 279.577L264.591 278.385Z" fill="#665070"/>
<path d="M292.707 282.278C292.707 282.278 292.75 288.89 292.096 290.399C290.979 293.143 290.031 294.24 290.031 294.24L290.256 292.046C290.256 292.046 291.759 290.399 291.984 289.579C292.204 288.755 292.707 282.278 292.707 282.278Z" fill="#665070"/>
<path d="M258.99 265.149C258.99 265.149 260.998 268.834 262.505 269.506C264.011 270.178 267.859 269.172 267.859 269.172C267.859 269.172 262.674 271.852 261.669 271.184C260.665 270.512 258.99 265.149 258.99 265.149Z" fill="#856792"/>
<path d="M231.961 321.93C231.961 321.93 235.173 320.443 239.147 319.086C243.121 317.729 244.857 317.486 244.857 317.486C244.857 317.486 242.497 315.644 238.234 317.599C235.489 318.856 233.849 319.16 231.961 321.93Z" fill="#856792"/>
<path d="M233.84 333.913L234.212 344.171L238.121 352.56C238.121 352.56 231.979 346.408 231.979 344.73C231.979 343.052 233.84 333.913 233.84 333.913Z" fill="#665070"/>
<path d="M279.677 330.631L283.651 328.364L291.598 329.335L294.758 331.334L295.68 331.377L289.538 327.488L281.59 326.517L277.617 328.785L277.842 332.197L280.015 331.889L279.677 330.631Z" fill="#665070"/>
<path d="M277.162 331.642L273.396 331.251C273.171 331.23 272.963 331.364 272.89 331.576L271.318 336.237C271.245 336.458 271.336 336.697 271.539 336.814L273.05 337.668C273.379 337.854 273.379 338.327 273.05 338.509L272.288 338.934C272.128 339.025 272.033 339.198 272.041 339.385L272.725 351.134C272.729 351.22 272.755 351.303 272.803 351.372L276.409 356.817C276.487 356.934 276.608 357.013 276.747 357.03L284.365 358.049C284.447 358.062 284.534 358.049 284.612 358.018L289.248 356.111C289.733 355.911 289.599 355.196 289.075 355.183L277.963 354.918C277.768 354.914 277.595 354.793 277.526 354.611L275.954 350.6C275.907 350.475 275.807 350.375 275.682 350.327L273.742 349.569C273.552 349.495 273.426 349.304 273.435 349.1L273.526 346.959C273.535 346.807 273.613 346.664 273.738 346.581L274.024 345.957C274.296 345.771 274.305 345.376 274.045 345.177L273.483 344.249C273.37 344.162 273.301 344.028 273.297 343.885L273.197 341.284C273.193 341.162 273.236 341.041 273.314 340.95L274.838 339.181C275.002 338.99 274.993 338.708 274.816 338.531L272.916 336.575C272.768 336.424 272.738 336.189 272.838 336.003L274.227 333.488C274.292 333.371 274.405 333.285 274.535 333.254L277.227 332.595C277.755 332.461 277.699 331.698 277.162 331.642Z" fill="#665070"/>
<path d="M222.325 358.963C224.628 357.641 232.788 357.654 234.749 358.963C236.71 360.273 233.416 370.734 233.416 370.734C233.416 370.734 241.16 383.823 239.199 385.787C237.238 387.751 225.468 383.168 223.178 380.875C220.888 378.581 218.88 367.01 219.711 364.201C220.486 361.582 220.023 360.286 222.325 358.963Z" fill="#856792"/>
<path d="M237.563 355.916L243.147 360.021L254.938 359.896L243.147 357.407L237.563 355.916Z" fill="#856792"/>
<path d="M317.398 326.023L300.68 329.144L295.655 332.119L300.326 327.371L311.29 324.215L317.398 326.023Z" fill="#665070"/>
<path d="M306.524 305.018L302.014 311.547C302.014 311.547 301.511 325.104 305.022 326.613C305.022 326.613 307.528 320.586 308.031 317.573C308.533 314.56 308.533 313.892 309.368 312.384C310.204 310.879 311.541 306.527 311.541 306.527L306.524 305.018Z" fill="#665070"/>
<path d="M268.942 315.882C268.942 315.882 267.799 323.43 268.028 326.63C268.258 329.829 272.825 333.718 272.825 333.718C272.825 333.718 270.314 330.059 270.314 325.945C270.314 321.831 268.942 315.882 268.942 315.882Z" fill="#665070"/>
<path d="M267.916 304.693C267.916 304.693 273.162 310.511 277.275 310.511C281.387 310.511 287.551 302.62 287.551 302.62L267.916 304.693Z" fill="#665070"/>
<path d="M287.551 356.302C287.551 356.302 296.455 352.872 297.139 352.187C297.823 351.502 297.139 344.639 297.139 344.639C297.139 344.639 301.078 351.155 298.853 353.557C296.628 355.959 287.551 356.302 287.551 356.302Z" fill="#665070"/>
<path d="M325.796 308.564C325.796 308.564 327.164 312.453 327.852 318.627C328.536 324.8 324.428 332.348 324.428 332.348C324.428 332.348 330.363 329.374 329.908 320.686C329.449 311.993 325.796 308.564 325.796 308.564Z" fill="#665070"/>
<path d="M248.506 346.699C248.332 348.242 252.047 351.559 252.047 351.559L250.904 347.128L251.332 343.014C251.332 343.009 248.679 345.151 248.506 346.699Z" fill="#665070"/>
<path d="M236.519 350.9C236.519 350.9 238.801 353.158 240.857 354.073C242.913 354.988 251.817 355.673 251.817 355.673C252.687 355.903 245.38 356.293 240.402 354.988C239.489 354.75 238.801 354.099 236.519 350.9Z" fill="#665070"/>
<path d="M239.943 300.903C239.943 300.903 243.328 298.939 245.307 298.866C247.281 298.792 247.566 300.301 247.566 300.301C247.566 300.301 245.683 299.616 244.229 299.785C241.891 300.062 239.943 300.903 239.943 300.903Z" fill="#856792"/>
<path d="M254.328 327.042C254.328 327.042 250.397 325.225 247.982 325.225C245.566 325.225 241.484 328.858 241.484 328.858C241.484 328.858 247.982 327.193 249.341 327.345C250.7 327.497 254.328 327.042 254.328 327.042Z" fill="#665070"/>
<path d="M267.513 332.118C267.513 331.433 264.946 329.144 262.89 329.144C260.834 329.144 260.466 329.287 258.895 329.829C257.241 330.402 256.155 331.199 255.7 331.889C255.7 331.889 255.7 328.689 259.354 328.23C263.007 327.774 262.7 327.384 264.033 327.774C265.401 328.173 267.513 332.118 267.513 332.118Z" fill="#665070"/>
<path d="M247.649 327.488C247.649 327.488 254.328 327.662 256.726 329.89C256.726 329.89 259.15 328.269 256.726 327.488C251.93 325.945 247.649 327.488 247.649 327.488Z" fill="#665070"/>
<path d="M39.9285 379.904L40.5605 373.557L19.0119 358.322L6.33731 364.032L0 373.557L11.4063 382.44L39.9285 379.904Z" fill="#665070"/>
<path d="M11.4063 382.44L22.1806 381.174L13.0988 373.977L19.0119 358.322L6.33731 364.032L6.96931 369.746L0 373.557L11.4063 382.44Z" fill="#4B3355"/>
<path d="M311.589 394.276L305.074 383.697L297.681 386.515L294.425 394.709L298.568 395.442L304.607 396.981L311.589 394.276Z" fill="#4B3355"/>
<path d="M304.901 383.784L305.607 388.808L302.788 391.631L302.524 394.804L304.55 396.742C308.953 396.391 311.593 394.271 311.593 394.271L311.944 389.155L304.901 383.784Z" fill="#665070"/>
<path d="M296.049 397.137L297.464 391.466L290.625 389.104L286.14 393.595L289.443 396.665L296.049 397.137Z" fill="#4B3355"/>
<path d="M296.049 397.137L292.274 391.939L288.737 393.595L289.443 396.665L296.049 397.137Z" fill="#665070"/>
<path d="M246.861 315.626C246.861 315.626 246.861 310.311 249.692 311.729C252.523 313.147 251.107 317.044 251.107 317.044C251.107 317.044 254.293 314.92 254.999 317.751C255.705 320.586 252.878 319.524 252.878 319.524L246.861 315.626Z" fill="#33A86D"/>
<path d="M240.138 318.106C240.138 318.106 238.368 314.916 241.199 315.271C244.03 315.627 241.909 318.462 240.138 318.106Z" fill="#33A86D"/>
<path d="M247.571 320.231C247.571 320.231 243.324 314.915 242.619 318.813C241.909 322.715 245.8 323.777 247.571 320.231Z" fill="#288453"/>
<path d="M247.216 324.484C247.216 324.484 246.51 315.978 249.692 317.751C252.878 319.524 250.757 325.55 247.216 324.484Z" fill="#288453"/>
<path d="M245.445 328.386C245.445 328.386 237.662 331.221 243.324 331.928C248.986 332.639 245.445 328.386 245.445 328.386Z" fill="#288453"/>
<path d="M220.04 385.132C220.04 385.132 218.563 379.916 220.511 380.116C222.459 380.315 221.533 384.317 221.533 384.317C221.533 384.317 225.091 378.2 225.849 382.448C226.606 386.697 225.52 388.262 225.52 388.262C225.52 388.262 227.914 384.82 229.043 386.537C230.169 388.254 228.658 389.454 228.658 389.454C228.658 389.454 226.186 391.982 224.312 390.673C222.438 389.363 222.438 389.363 222.438 389.363C222.438 389.363 220.819 391.024 217.503 387.781C214.191 384.534 214.663 379.518 220.04 385.132Z" fill="#33A86D"/>
<path d="M85.1469 384.027C85.1469 384.027 84.0864 376.938 87.623 378C91.1596 379.063 89.3934 381.898 89.3934 381.898C89.3934 381.898 93.64 380.836 91.8695 384.733C90.099 388.631 88.3329 388.631 88.3329 388.631C88.3329 388.631 83.3808 391.466 81.6103 385.089C79.8399 378.711 85.1469 384.027 85.1469 384.027Z" fill="#33A86D"/>
<path d="M69.5805 384.027C69.5805 384.027 67.4594 379.418 69.5805 378.712C71.7016 378.005 71.7016 381.547 71.7016 381.547C71.7016 381.547 74.1777 376.938 74.8876 380.485C75.5932 384.027 74.1777 388.631 69.5805 384.027Z" fill="#33A86D"/>
<path d="M70.6411 371.623C70.6411 371.623 70.6411 375.876 72.7622 374.458C74.8876 373.041 75.9482 367.37 70.6411 371.623Z" fill="#33A86D"/>
<path d="M60.0227 372.33C60.0227 372.33 58.9622 376.938 61.0833 376.583C63.2043 376.227 63.9143 375.876 63.2043 373.748C62.5031 371.623 60.0227 372.33 60.0227 372.33Z" fill="#33A86D"/>
<path d="M57.9016 367.014C57.9016 367.014 58.9622 371.267 61.0876 368.787C63.2087 366.303 60.3777 364.179 57.9016 367.014Z" fill="#33A86D"/>
<path d="M63.5636 369.139C63.5636 369.139 64.9791 372.33 66.3946 371.974C67.8101 371.619 68.1651 365.241 63.5636 369.139Z" fill="#33A86D"/>
<path d="M60.7325 364.534C60.7325 364.534 61.0875 370.205 64.2691 366.659C67.4508 363.112 63.9185 362.05 60.7325 364.534Z" fill="#33A86D"/>
<path d="M60.3776 359.926C60.3776 359.926 60.0226 364.179 62.4987 361.699C64.9791 359.215 63.2086 355.673 60.3776 359.926Z" fill="#33A86D"/>
<path d="M315.156 332.99C315.156 332.99 315.688 326.079 319.935 328.737C324.181 331.394 317.281 335.119 315.156 332.99Z" fill="#33A86D"/>
<path d="M316.748 335.647C316.748 335.647 309.199 340.49 317.692 337.893C326.185 335.296 325.008 334.351 316.748 335.647Z" fill="#33A86D"/>
<path d="M318.402 340.022C318.402 340.022 319.346 347.817 321.233 343.33C323.12 338.838 322.411 339.311 318.402 340.022Z" fill="#33A86D"/>
<path d="M316.987 340.256C316.987 340.256 310.147 341.674 315.809 342.38C321.467 343.091 316.987 340.256 316.987 340.256Z" fill="#33A86D"/>
<path d="M317.692 351.359C317.692 351.359 323.354 348.051 318.636 348.051C313.918 348.051 312.03 351.359 317.692 351.359Z" fill="#33A86D"/>
<path d="M323.177 320.352C323.177 320.352 322.233 326.023 326.48 322.949C330.726 319.879 328.133 318.696 323.177 320.352Z" fill="#33A86D"/>
<path d="M330.964 312.791C330.964 312.791 324.597 315.154 328.843 315.626C333.085 316.099 332.38 313.025 330.964 312.791Z" fill="#33A86D"/>
<path d="M326.952 307.12C326.952 307.12 326.246 312.791 329.544 309.956C332.852 307.12 331.198 307.12 326.952 307.12Z" fill="#33A86D"/>
<path d="M325.302 309.956C325.302 309.956 321.294 309.483 324.597 310.901C327.895 312.319 325.302 309.956 325.302 309.956Z" fill="#33A86D"/>
<path d="M325.064 304.047C325.064 304.047 331.67 307.354 329.073 304.047C326.48 300.739 321.289 300.504 325.064 304.047Z" fill="#33A86D"/>
<path d="M328.367 382.96C328.367 382.96 327.423 387.447 330.488 386.268C333.553 385.089 332.609 382.726 331.432 382.488C330.254 382.249 328.367 382.96 328.367 382.96Z" fill="#33A86D"/>
<path d="M328.367 379.891C328.367 379.891 331.432 372.568 330.726 377.528C330.021 382.488 328.367 379.891 328.367 379.891Z" fill="#33A86D"/>
<path d="M326.951 381.547C326.951 381.547 319.402 372.334 322.943 373.279C326.48 374.224 326.246 377.06 326.246 377.06C326.246 377.06 326.951 367.136 328.367 370.916C329.782 374.697 326.951 381.547 326.951 381.547Z" fill="#33A86D"/>
<path d="M333.09 376.045C333.09 376.045 338.232 372.347 337.496 375.477C336.761 378.607 332.354 377.185 333.09 376.045Z" fill="#33A86D"/>
<path d="M336.86 384.378C336.86 384.378 336.626 378.235 334.739 378.235C332.852 378.235 334.739 385.323 336.86 384.378Z" fill="#33A86D"/>
<path d="M338.986 383.671C338.986 383.671 335.921 371.623 339.691 373.747C343.466 375.876 341.817 385.795 338.986 383.671Z" fill="#33A86D"/>
<path d="M330.726 372.33C330.726 372.33 331.198 366.186 332.375 370.205C333.557 374.22 331.67 374.693 330.726 372.33Z" fill="#33A86D"/>
<path d="M341.344 382.487C341.344 382.487 342.288 375.165 344.175 375.637C346.063 376.11 344.881 378.945 344.881 378.945C344.881 378.945 347.002 372.095 348.89 373.986C350.777 375.876 347.474 378.711 347.474 378.711C347.474 378.711 352.898 375.876 351.249 378.477C349.599 381.074 345.825 380.129 345.825 380.129C345.825 380.129 347.24 384.616 341.344 382.487Z" fill="#33A86D"/>
<path d="M321.528 390.994C321.528 390.994 314.688 385.561 317.753 384.85C320.818 384.144 320.112 386.502 320.112 386.502C320.112 386.502 323.649 384.378 323.415 385.796C323.181 387.213 324.121 387.447 324.121 387.447C324.121 387.447 329.549 392.177 321.528 390.994Z" fill="#33A86D"/>
<path d="M241.554 381.547C241.554 381.547 241.554 376.821 242.731 377.766C243.909 378.711 243.675 381.074 243.675 381.074C243.675 381.074 248.155 378.239 247.683 380.602C247.212 382.965 244.852 383.199 244.852 383.199C244.852 383.199 244.852 387.213 243.437 386.034C242.021 384.855 241.554 381.547 241.554 381.547Z" fill="#33A86D"/>
<path d="M242.969 371.385C242.969 371.385 247.216 372.802 245.329 374.22C243.441 375.638 242.969 371.385 242.969 371.385Z" fill="#33A86D"/>
<path d="M246.272 376.349C246.272 376.349 247.449 381.547 249.809 377.766C252.172 373.986 251.934 375.165 246.272 376.349Z" fill="#33A86D"/>
<path d="M227.399 352.009C227.399 352.009 224.334 346.811 227.87 347.995C231.407 349.178 228.814 351.064 228.814 351.064C228.814 351.064 234.004 350.358 232.589 352.716C231.173 355.079 228.108 353.661 228.108 353.661L227.399 352.009Z" fill="#33A86D"/>
<path d="M225.983 352.72C225.983 352.72 226.455 349.178 224.568 348.467C222.68 347.756 221.265 353.9 225.983 352.72Z" fill="#33A86D"/>
<path d="M227.399 345.159C227.399 345.159 223.862 340.434 226.221 340.906C228.58 341.379 229.052 342.558 229.052 342.558C229.052 342.558 232.355 342.324 230.939 345.628C229.524 348.931 227.399 345.159 227.399 345.159Z" fill="#33A86D"/>
<path d="M225.749 336.415C225.749 336.415 228.814 339.957 230.23 337.36C231.645 334.763 225.749 336.415 225.749 336.415Z" fill="#33A86D"/>
<path d="M235.658 337.832C235.658 337.832 238.723 334.997 237.307 334.997C235.892 334.997 235.892 334.997 235.186 334.997C234.476 334.997 234.004 337.598 235.658 337.832Z" fill="#33A86D"/>
<path d="M231.411 332.873C231.411 332.873 229.29 336.653 232.589 334.763C235.887 332.873 236.364 331.928 231.411 332.873Z" fill="#33A86D"/>
<path d="M231.939 319.879C231.939 319.879 231.234 315.865 233.589 317.282C235.948 318.7 234.061 320.352 234.061 320.352C234.061 320.352 238.779 319.407 236.892 322.242C235.004 325.078 233.355 323.421 233.355 323.421L231.939 319.879Z" fill="#33A86D"/>
<path d="M229.818 315.388C229.818 315.388 222.507 314.681 225.1 317.04C227.697 319.407 232.178 316.333 229.818 315.388Z" fill="#33A86D"/>
<path d="M229.113 319.168C229.113 319.168 225.338 322.238 228.641 321.293C231.94 320.352 230.29 318.934 229.113 319.168Z" fill="#33A86D"/>
<path d="M226.987 324.605C226.987 324.605 233.121 323.66 229.58 322.953C226.039 322.247 225.1 323.894 226.987 324.605Z" fill="#33A86D"/>
<path d="M230.996 329.565C230.996 329.565 233.117 326.73 230.524 326.73C227.931 326.73 227.931 329.093 230.996 329.565Z" fill="#33A86D"/>
<path d="M291.096 365.714C291.096 365.714 286.378 369.022 289.919 368.076C293.456 367.131 291.096 365.714 291.096 365.714Z" fill="#33A86D"/>
<path d="M292.04 369.26C291.382 369.802 294.399 373.513 295.105 369.967C295.815 366.425 296.049 365.952 292.04 369.26Z" fill="#33A86D"/>
<path d="M288.971 372.33C288.971 372.33 295.577 376.817 292.98 373.747C290.387 370.678 287.794 371.623 288.971 372.33Z" fill="#33A86D"/>
<path d="M289.915 376.11C289.915 376.11 292.979 381.07 293.217 378.473C293.455 375.876 293.927 375.876 289.915 376.11Z" fill="#33A86D"/>
<path d="M288.737 379.891C288.737 379.891 297.23 382.015 291.802 382.253C286.374 382.492 284.491 380.129 288.737 379.891Z" fill="#33A86D"/>
<path d="M298.646 357.919C298.646 357.919 296.287 361.227 299.59 359.809C302.892 358.391 305.957 356.263 298.646 357.919Z" fill="#33A86D"/>
<path d="M297.702 362.644C297.702 362.644 301.711 362.878 299.823 361.938C297.936 360.988 295.577 360.754 297.702 362.644Z" fill="#33A86D"/>
<path d="M297.702 365.241C297.702 365.241 300.295 368.077 301.71 365.007C303.126 361.933 295.815 364.062 297.702 365.241Z" fill="#33A86D"/>
<path d="M265.6 221.582C265.6 221.582 262.137 214.26 265.6 215.031C269.063 215.803 266.756 218.5 266.756 218.5C266.756 218.5 272.145 215.803 271.375 219.657C270.604 223.511 269.067 224.669 269.067 224.669C269.067 224.669 273.686 220.815 273.301 225.827C272.916 230.838 269.067 227.37 269.067 227.37C269.067 227.37 266.76 231.224 264.063 227.756C261.367 224.287 264.063 225.445 264.063 225.445C264.063 225.445 255.977 219.271 265.6 221.582Z" fill="#33A86D"/>
<path d="M257.834 262.699C255.947 263.406 253.588 270.494 260.488 266.241C267.388 261.993 259.721 261.993 257.834 262.699Z" fill="#33A86D"/>
<path d="M260.886 257.887C262.635 257.887 268.279 257.774 262.834 260.844C257.388 263.913 259.137 257.887 260.886 257.887Z" fill="#33A86D"/>
<path d="M262.513 270.59C262.513 270.59 265.427 267.182 261.055 268.73C256.687 270.282 257.778 272.762 262.513 270.59Z" fill="#33A86D"/>
<path d="M263.938 273.451C261.211 274.435 261.41 277.435 265.383 275.224C269.353 273.009 266.665 272.467 263.938 273.451Z" fill="#33A86D"/>
<path d="M266.184 265.951C264.457 266.246 265.691 270.425 269.955 268.136C272.154 266.952 267.912 265.652 266.184 265.951Z" fill="#33A86D"/>
<path d="M255.475 287.273C255.475 287.273 256.89 284.676 254.297 285.148C251.705 285.621 253.12 287.039 253.12 287.039C253.12 287.039 249.112 282.079 247.458 284.203C245.809 286.328 250.289 287.984 250.289 287.984C250.289 287.984 243.683 286.566 242.268 288.929C240.852 291.292 245.571 289.402 245.571 289.402C245.571 289.402 239.909 292.944 241.562 293.889C243.212 294.834 245.809 292.944 245.809 292.944C245.809 292.944 247.224 296.252 248.168 293.178C249.112 290.108 249.112 290.108 249.112 290.108C249.112 290.108 253.12 292.705 252.886 290.108C252.653 287.511 252.886 288.218 252.886 288.218C252.886 288.218 256.18 290.581 255.475 287.273Z" fill="#33A86D"/>
<path d="M290.387 223.126C290.387 223.126 285.079 220.29 287.201 225.605C289.322 230.921 292.157 225.25 290.387 223.126Z" fill="#288453"/>
<path d="M290.032 219.579C290.032 219.579 296.754 214.264 293.923 218.517C291.092 222.77 290.032 219.579 290.032 219.579Z" fill="#288453"/>
<path d="M285.079 214.264C285.079 214.264 282.603 218.162 286.85 217.455C291.096 216.748 285.079 214.264 285.079 214.264Z" fill="#288453"/>
<path d="M286.495 209.66C286.495 209.66 293.927 214.975 288.971 213.913C284.019 212.846 286.495 209.66 286.495 209.66Z" fill="#288453"/>
<path d="M293.218 224.543C293.218 224.543 287.556 229.152 291.802 228.796C296.049 228.441 293.218 224.543 293.218 224.543Z" fill="#288453"/>
<path d="M295.694 229.858C295.694 229.858 302.416 230.92 297.815 232.338C293.213 233.756 295.343 229.152 295.694 229.858Z" fill="#288453"/>
<path d="M58.4902 301.766C58.4902 301.766 67.3382 296.095 64.8578 300.704C62.3818 305.312 58.4902 301.766 58.4902 301.766Z" fill="#33A86D"/>
<path d="M59.5509 306.019C59.5509 306.019 57.7804 312.045 61.672 309.21C65.5679 306.375 59.5509 306.019 59.5509 306.019Z" fill="#33A86D"/>
<path d="M56.3648 304.601C56.3648 304.601 51.7633 295.033 48.9323 299.993C46.1013 304.952 51.7633 301.766 51.7633 301.766C51.7633 301.766 46.8112 306.726 50.3478 306.019C53.8888 305.312 56.3648 304.601 56.3648 304.601Z" fill="#33A86D"/>
<path d="M54.9494 296.451C54.9494 296.451 52.4733 302.828 57.7804 298.224C63.0874 293.62 56.3649 296.806 56.3649 296.806L54.9494 296.451Z" fill="#33A86D"/>
<path d="M129.733 195.483C129.733 195.483 134.685 191.23 134.335 195.127C133.98 199.025 129.733 195.483 129.733 195.483Z" fill="#33A86D"/>
<path d="M130.798 199.025C130.798 199.025 134.334 203.984 136.105 200.442C137.875 196.9 130.798 199.025 130.798 199.025Z" fill="#33A86D"/>
<path d="M139.291 202.571C139.291 202.571 132.923 210.366 139.291 206.824C145.658 203.282 145.658 201.505 139.291 202.571Z" fill="#33A86D"/>
<path d="M131.858 203.989C131.858 203.989 122.305 205.406 128.322 206.824C134.339 208.242 136.81 208.242 131.858 203.989Z" fill="#33A86D"/>
<path d="M138.581 213.202C138.581 213.202 146.719 210.722 143.533 210.011C140.352 209.304 136.105 213.202 138.581 213.202Z" fill="#33A86D"/>
<path d="M138.936 215.33C135.044 214.268 129.382 217.455 139.642 218.521C149.905 219.579 142.828 216.392 138.936 215.33Z" fill="#33A86D"/>
<path d="M324.518 166.832C322.397 161.4 321.925 154.546 326.167 146.512C326.167 146.512 328.059 150.483 330.383 150.262C332.712 150.041 334.625 146.985 334.742 142.389C334.859 137.711 333.751 135.678 333.751 135.678L337.733 140.828C337.733 140.828 338.288 136.579 337.98 133.189C337.638 129.43 335.604 125.823 335.604 125.823C335.604 125.823 346.17 128.997 348.594 137.494C350.443 143.967 349.915 148.086 349.915 148.086L353.3 144.388C353.3 144.388 357.546 159.037 353.988 166.789C351.04 173.205 345.469 176.825 339.855 177.229C333.396 177.688 326.643 172.264 324.518 166.832Z" fill="#FFACFF"/>
<path d="M340.682 170.374C340.682 170.374 335.5 169.62 332.86 164.443C330.145 159.128 333.963 157.645 333.963 157.645L336.435 161.868L341.037 149.464C341.037 149.464 343.868 152.889 344.456 154.424C345.045 155.959 349.452 167.452 340.682 170.374Z" fill="#9E54C7"/>
<path d="M344.218 123.946C344.218 123.946 343.863 121.466 344.924 121.466C345.989 121.466 347.049 123.595 344.218 123.946Z" fill="#9E54C7"/>
<path d="M329.002 131.745C329.002 131.745 327.232 126.786 330.063 124.302C330.063 124.302 323.695 128.555 329.002 131.745Z" fill="#FFACFF"/>
<path d="M340.357 113.199C340.443 113.949 339.452 114.291 339.071 113.641C338.223 112.184 337.305 110.272 338.907 111.191C339.911 111.764 340.279 112.509 340.357 113.199Z" fill="#FFACFF"/>
<path d="M98.5139 180.504C98.5139 180.504 88.311 183.231 81.7313 171.36C77.4155 164.354 80.2595 152.193 80.2595 152.193C80.2595 152.193 84.6749 151.899 87.6227 155.142C85.8566 145.408 90.8607 140.692 90.8607 140.692L93.5099 141.871C93.5099 141.871 95.2284 139.876 98.9771 133.499C98.9771 133.499 111.981 141.567 110.106 151.665C108.232 161.762 108.825 158.38 108.825 158.38L116.188 154.253C116.18 154.257 122.253 179.442 98.5139 180.504Z" fill="#FFACFF"/>
<path d="M103.371 173.87C103.371 173.87 98.5142 177.85 94.536 174.313C90.5622 170.775 91.4453 165.464 91.4453 165.464L93.2114 167.233C93.2114 167.233 92.7699 163.695 95.8606 158.827C98.9514 153.962 98.9514 153.962 98.9514 153.962L100.718 160.595L103.367 158.384C103.371 158.384 110.44 170.328 103.371 173.87Z" fill="#9E54C7"/>
<path d="M80.1948 138.424C80.1948 138.424 79.961 142.677 81.6103 144.095C83.2595 145.512 80.6666 139.842 82.7877 136.534L80.1948 138.424Z" fill="#9E54C7"/>
<path d="M93.168 127.789C93.168 127.789 90.5751 131.097 92.2243 132.042C93.8736 132.987 93.168 127.789 93.168 127.789Z" fill="#FFACFF"/>
<path d="M106.379 128.973C106.379 128.973 106.146 132.515 107.557 131.57C108.977 130.624 108.033 126.371 106.379 128.973Z" fill="#9E54C7"/>
<path d="M98.5962 116.686C98.5962 116.686 100.717 117.159 100.484 119.283C100.25 121.407 98.5962 116.686 98.5962 116.686Z" fill="#FFACFF"/>
<path d="M111.245 367.842C111.128 368.671 119.946 373.041 125.608 372.802C131.27 372.564 141.737 372.932 142.763 371.783C143.749 370.678 140.351 369.789 140.351 369.789C140.351 369.789 132.343 367.045 125.136 365.683C115.755 363.915 111.362 367.014 111.245 367.842Z" fill="#C94039"/>
<path d="M137.343 386.004C137.343 387.924 137.075 406.12 136.694 409.498C136.439 411.752 133.595 413.183 133.322 410.118C132.928 405.726 131.603 399.084 131.409 397.28C130.833 391.874 132.24 386.641 132.24 386.641C132.24 386.641 137.343 385.115 137.343 386.004Z" fill="#F5894E"/>
<path d="M135.344 392.325C134.768 393.001 136.512 405.947 136.131 409.328C135.876 411.583 133.595 413.183 133.322 410.118C132.928 405.726 131.603 399.084 131.409 397.28C130.833 391.874 131.876 386.658 131.876 386.658C131.876 386.658 135.919 391.649 135.344 392.325Z" fill="#CC6D3D"/>
<path d="M138.464 375.521C138.378 377.411 138.538 380.944 138.222 383.528C138.17 383.966 138.265 383.571 137.624 389.919L131.2 389.962L130.915 382.886C130.543 381.703 129.543 374.719 129.525 374.814C129.88 373.041 138.581 372.906 138.464 375.521Z" fill="#273252"/>
<path d="M135.101 409.779C137.222 410.959 137.555 411.154 139.334 412.129C141.243 413.174 134.196 413.417 133.685 412.043C133.17 410.673 133.283 408.765 135.101 409.779Z" fill="#CC6D3D"/>
<path d="M133.058 410.469C133.283 409.97 134.482 410.213 134.716 410.309C134.949 410.404 137.425 411.358 137.425 411.358C137.425 411.358 139.888 412.403 140.564 412.502C142.481 412.784 143.923 414.145 139.269 414.618C137.421 414.804 135.529 414.02 135.529 414.02L135.369 414.596L134.928 414.683C134.928 414.683 133.222 414.796 133.131 414.596C133.01 414.319 132.833 410.968 133.058 410.469Z" fill="#992C29"/>
<path d="M140.239 414.505C140.239 414.505 137.538 415.004 135.525 413.929C135.525 413.929 135.235 413.33 136.166 413.499C138.992 414.015 139.334 414.414 140.239 414.505Z" fill="#C94039"/>
<path d="M137.417 375.521C137.309 377.645 136.789 380.129 136.577 382.136C136.529 382.574 136.469 388.397 135.88 389.342C135.291 390.287 131.417 389.576 131.417 389.576L130.46 382.201C130.118 381.044 129.387 374.692 129.365 374.814C129.681 373.041 137.547 372.906 137.417 375.521Z" fill="#1D2538"/>
<path d="M127.906 365.419C127.906 365.419 129.114 373.67 129.716 375.794C130.318 377.918 138.049 380.598 138.343 377.589C138.637 374.58 139.378 365.775 137.772 362.939C136.166 360.104 127.906 360.811 127.906 365.419Z" fill="#273252"/>
<path d="M127.906 365.419C127.906 365.419 128.993 373.67 129.538 375.794C130.084 377.918 137.044 380.598 137.313 377.589C137.577 374.576 138.248 365.775 136.798 362.939C135.343 360.104 127.906 360.811 127.906 365.419Z" fill="#1D2538"/>
<path d="M119.162 379.453C119.162 379.453 118.483 383.849 117.067 388.371C116.093 391.484 115.846 392.62 115.851 399.188C115.851 400.692 115.392 405.999 115.427 407.039C115.487 408.847 115.457 410.126 116.383 409.953C117.838 409.675 118.284 409.081 119.941 401.863C122.158 392.216 124.526 379.535 124.526 379.535L119.162 379.453Z" fill="#F5894E"/>
<path d="M119.162 379.453C119.162 379.453 118.483 383.849 117.067 388.371C116.093 391.484 115.846 392.62 115.851 399.188C115.851 400.692 114.985 407.399 115.02 408.44C115.08 410.248 115.457 410.126 116.379 409.953C117.833 409.675 117.223 407.312 118.881 400.094C121.097 390.448 120.413 389.936 120.413 389.936L119.162 379.453Z" fill="#CC6D3D"/>
<path d="M128.664 364.335C128.664 364.335 126.608 376.405 125.101 379.171C123.097 382.852 119.162 382.176 118.816 379.826C118.27 376.089 117.872 369.321 118.205 365.662C118.565 361.73 124.309 358.491 128.664 364.335Z" fill="#273252"/>
<path d="M118.872 378.941C117.69 379.548 116.799 388.341 116.799 388.341L122.552 389.489C122.552 389.489 124.08 385.574 124.963 380.125C125.777 375.109 119.859 377.086 118.872 378.941Z" fill="#273252"/>
<path d="M126.789 363.945C126.789 363.945 126.551 369.911 125.383 373.951C125.058 375.078 124.136 379.206 123.807 379.808C121.803 383.489 119.158 382.171 118.812 379.817C118.266 376.08 117.868 369.312 118.201 365.653C118.565 361.73 122.435 358.101 126.789 363.945Z" fill="#1D2538"/>
<path d="M116.011 407.2C116.474 407.074 116.972 407.204 117.366 407.486C118.911 408.596 118.816 408.838 120.842 410.234C122.305 411.245 115.34 412.116 114.959 411.002C114.626 410.044 114.479 407.616 116.011 407.2Z" fill="#CC6D3D"/>
<path d="M114.526 408.977C114.846 408.253 114.565 406.593 116.643 407.755C119.556 409.385 120.677 409.714 121.504 410.039C122.331 410.365 122.777 410.568 123.404 410.672C125.266 410.971 124.798 411.245 122.677 412.19C121.045 412.918 117.712 411.99 117.712 411.99L117.587 412.35C117.5 412.602 117.266 412.766 117.002 412.766L115.188 412.645C115.188 412.645 114.786 412.502 114.686 412.25C114.548 411.899 114.206 409.701 114.526 408.977Z" fill="#992C29"/>
<path d="M118.872 378.941C117.69 379.548 116.799 388.341 116.799 388.341L121.868 389.316C121.868 389.316 123.01 385.34 123.894 379.895C124.707 374.879 119.859 377.086 118.872 378.941Z" fill="#1D2538"/>
<path d="M135.045 342.797L134.339 347.05C134.339 347.05 137.876 354.372 139.884 359.336C141.888 364.296 143.07 367.014 142.949 371.385C142.949 371.385 138.23 369.733 133.867 369.611C129.504 369.494 116.292 363.113 111.219 367.838C111.219 367.838 117.708 355.317 120.301 349.291C120.301 349.291 116.881 335.587 121.244 333.224C125.608 330.861 131.153 331.806 132.33 332.396C133.508 332.99 137.282 336.181 135.045 342.797Z" fill="#F7BC4B"/>
<path d="M132.036 342.797L131.331 347.05L134.867 359.571L127.967 362.584L135.222 362.94C135.222 362.94 130.746 364.661 124.959 365.42C119.881 366.087 113.587 365.632 111.219 367.843C111.219 367.843 117.708 355.322 120.301 349.296C120.301 349.296 116.881 335.592 121.245 333.229C125.608 330.866 131.153 331.811 132.33 332.401C133.508 332.99 134.278 336.181 132.036 342.797Z" fill="#CE9436"/>
<path d="M121.084 312.77C121.084 312.77 122.573 314.439 124.062 315.115C125.188 315.631 126.071 315.696 126.071 315.696L125.833 315.263L126.365 314.816C126.365 314.816 124.3 314.686 121.504 312.488L121.084 312.77Z" fill="#EE5D4F"/>
<path d="M120.932 312.57C120.932 312.57 121.763 314.647 122.928 315.796C123.807 316.663 124.616 317.032 124.616 317.032L124.538 316.542L125.188 316.303C125.188 316.303 123.292 315.471 121.417 312.449L120.932 312.57Z" fill="#EE5D4F"/>
<path d="M121.881 313.65C122.4 313.537 122.785 310.71 121.534 310.702C120.357 310.693 119.028 310.901 119.288 311.781C119.543 312.657 121.361 313.762 121.881 313.65Z" fill="#992C29"/>
<path d="M122.266 312.037C122.266 312.037 122.023 310.84 121.651 310.884C121.279 310.927 121.634 311.426 121.764 312.215C121.894 312.999 122.357 312.54 122.266 312.037Z" fill="#F7BC4B"/>
<path d="M121.422 313.086C121.422 313.086 121.318 312.536 122.101 311.968C122.885 311.4 123.486 311.083 124.01 311.378C124.534 311.673 124.772 313.069 124.508 313.784C124.244 314.5 122.43 314.04 121.967 313.793C121.508 313.546 121.422 313.086 121.422 313.086Z" fill="#992C29"/>
<path d="M124.335 312.497C124.335 312.497 124.551 313.611 124.058 313.815C123.326 314.118 123.707 311.972 123.733 311.634C123.764 311.3 124.435 311.686 124.335 312.497Z" fill="#F7BC4B"/>
<path d="M130.603 314.682C130.603 314.682 133.174 315.497 134.256 319.152C135.339 322.811 135.239 327.792 130.369 327.792C122.729 327.792 122.807 321.631 123.028 320.235C123.976 314.274 130.603 314.682 130.603 314.682Z" fill="#CC6D3D"/>
<path d="M130.192 314.564C130.192 314.564 132.763 315.38 133.845 319.034C134.928 322.693 134.828 327.675 129.958 327.675C122.318 327.675 122.396 321.514 122.617 320.118C123.565 314.157 130.192 314.564 130.192 314.564Z" fill="#F5894E"/>
<path d="M132.166 321.297C132.166 321.297 133.006 316.247 130.439 314.387C128.322 312.852 126.4 312.718 123.699 313.116C123.699 313.116 127.487 312.804 130.408 316.437C131.439 317.716 132.166 321.297 132.166 321.297Z" fill="#F7BC4B"/>
<path d="M128.144 313.854C128.144 313.854 124.075 311.729 120.361 314.738C116.647 317.751 116.409 319.403 117.119 321.176C117.825 322.949 117.825 322.949 117.825 322.949C117.825 322.949 114.994 323.483 114.994 325.074C114.994 326.665 114.976 330.445 120.301 330.744C123.989 330.953 124.517 329.622 124.517 329.622C124.517 329.622 131.681 331.924 134.101 328.854C135.906 326.565 136.148 322.889 132.434 321.826C132.434 321.826 131.859 314.387 128.144 313.854Z" fill="#273252"/>
<path d="M126.729 313.854C126.729 313.854 122.249 311.283 118.946 314.738C116.292 317.513 115.465 319.642 115.704 321.176C115.994 323.062 116.409 322.949 116.409 322.949C116.409 322.949 113.578 323.483 113.578 325.074C113.578 326.665 113.578 330.211 118.885 330.745C124.192 331.278 124.725 330.038 124.725 330.038C124.725 330.038 132.668 331.928 133.984 327.809C134.928 324.857 134.971 323.379 131.257 322.316C131.252 322.316 130.443 314.387 126.729 313.854Z" fill="#1D2538"/>
<path d="M125.577 313.663C125.577 313.663 126.876 309.527 128.525 310.238C130.175 310.945 127.348 314.374 127.348 314.374C127.348 314.374 129.824 311.656 131.239 312.722C132.655 313.784 131.239 316.386 128.525 316.503C125.811 316.615 125.577 313.663 125.577 313.663Z" fill="#273252"/>
<path d="M125.136 313.615C125.136 313.615 126.435 309.479 128.084 310.19C129.733 310.897 126.906 314.326 126.906 314.326C126.906 314.326 129.383 311.608 130.798 312.674C132.214 313.736 130.798 316.338 128.084 316.455C125.37 316.572 125.136 313.615 125.136 313.615Z" fill="#1D2538"/>
<path d="M133.196 320.248C133.196 320.248 132.309 317.734 131.369 318.193C130.43 318.653 130.53 321.237 132.603 322.264C134.672 323.296 133.196 320.248 133.196 320.248Z" fill="#CC6D3D"/>
<path d="M133.573 320.439C133.573 320.439 132.867 318.445 132.123 318.809C131.378 319.178 131.456 321.224 133.101 322.039C134.75 322.858 133.573 320.439 133.573 320.439Z" fill="#F5894E"/>
<path d="M148.078 361.578C148.299 361.803 148.844 362.61 149.108 363.112C149.191 363.264 149.446 363.568 149.42 363.889C149.355 364.708 149.195 365.211 148.559 365.15C148.403 364.795 148.191 363.646 147.754 363.468C147.295 363.282 146.922 360.407 148.078 361.578Z" fill="#CC6D3D"/>
<path d="M141.477 359.414C141.447 359.358 141.598 358.894 142.295 358.452C143.114 357.936 143.525 358.435 143.525 358.435L152.416 368.931L149.421 371.293L141.477 359.414Z" fill="#1D2538"/>
<path d="M139.806 355.157C138.694 355.868 138.564 357.381 139.482 358.478C140.352 359.519 141.841 359.774 142.832 359.107C143.815 358.443 144.014 357.078 143.256 355.998C142.455 354.862 140.901 354.455 139.806 355.157ZM141.958 358.11C141.546 358.322 140.888 358.144 140.477 357.702C140.057 357.247 140.057 356.696 140.49 356.479C140.919 356.263 141.594 356.466 141.992 356.926C142.386 357.368 142.365 357.897 141.958 358.11Z" fill="#1D2538"/>
<path d="M140.529 355.669C139.889 356.063 139.819 356.93 140.36 357.585C140.469 357.715 140.59 357.823 140.72 357.915C140.633 357.854 140.551 357.78 140.477 357.702C140.057 357.247 140.057 356.696 140.49 356.48C140.919 356.263 141.594 356.467 141.992 356.926C142.382 357.373 142.365 357.897 141.958 358.114C141.702 358.248 141.356 358.227 141.027 358.092C141.482 358.292 141.997 358.283 142.382 358.04C142.975 357.663 143.07 356.848 142.585 356.202C142.088 355.526 141.166 355.279 140.529 355.669Z" fill="#F7BC4B"/>
<path d="M140.785 357.958C140.798 357.967 140.807 357.976 140.821 357.981C140.807 357.972 140.798 357.967 140.785 357.958Z" fill="#F6BE4A"/>
<path d="M140.932 358.04C140.954 358.049 140.971 358.058 140.993 358.071C140.971 358.062 140.949 358.049 140.932 358.04Z" fill="#F6BE4A"/>
<path d="M141.893 358.916C141.875 358.933 141.854 358.946 141.828 358.951C141.633 358.981 141.447 358.981 141.278 358.951C141.217 358.938 141.178 358.873 141.196 358.808C141.213 358.738 141.274 358.695 141.339 358.708C141.481 358.734 141.642 358.738 141.81 358.708C141.875 358.699 141.932 358.743 141.936 358.812C141.936 358.851 141.919 358.89 141.893 358.916Z" fill="#3E4C6F"/>
<path d="M145.706 363.039C146.256 362.453 146.455 361.868 146.455 361.868L150.788 367.01C151.277 367.543 152.684 369.104 152.684 369.104C152.684 369.104 149.927 371.358 149.459 371.632C149.459 371.632 148.182 369.668 147.845 369.091L144.464 363.988C144.464 363.98 145.156 363.628 145.706 363.039Z" fill="#C94039"/>
<path d="M145.555 365.554L145.135 364.825C145.135 364.825 145.866 364.383 147.009 363.16C147.009 363.16 147.316 363.364 145.555 365.554Z" fill="#1D2538"/>
<path d="M146.421 361.829C146.421 361.829 144.997 363.321 144.2 363.603L143.702 362.735C143.702 362.735 145.646 361.669 145.979 361.309L146.421 361.829Z" fill="#C73F37"/>
<path d="M147.974 363.672L148.143 363.876C148.143 363.876 147.018 365.224 145.953 365.827L147.974 363.672Z" fill="#1D2538"/>
<path d="M146.321 366.793L146.745 367.426C146.745 367.426 148.312 366.321 148.923 364.786C148.923 364.786 147.39 366.646 146.321 366.793Z" fill="#1D2538"/>
<path d="M147.845 369.082L147.213 368.116C147.213 368.116 148.988 367.344 149.892 365.917L151.252 367.522C151.252 367.526 150.048 367.964 147.845 369.082Z" fill="#1D2538"/>
<path d="M148.615 370.297L148.94 370.834C148.94 370.834 150.697 370.301 151.632 368.632C151.632 368.636 149.143 370.483 148.615 370.297Z" fill="#1D2538"/>
<path d="M157.775 368.727C157.636 368.775 157.55 368.892 157.433 368.979L147.312 376.951C147.174 377.047 146.866 376.977 146.057 376.843C145.511 376.752 144.983 376.453 145.156 375.907C145.386 375.191 145.507 374.268 145.758 374.12L155.684 366.676C155.84 366.564 156.584 366.46 156.892 366.416C157.238 366.369 157.446 366.174 157.866 366.252C158.177 366.308 158.363 366.629 158.342 367.015L157.775 368.727Z" fill="#C94039"/>
<path d="M157.476 368.241C157.424 368.38 157.333 368.506 157.212 368.597L146.71 376.479C146.68 376.5 145.356 376.483 145.165 376.149C144.975 375.815 145.563 374.237 145.563 374.237C145.563 374.237 156.113 366.061 156.312 366.082C156.675 366.126 157.138 366.069 157.58 366.147C157.909 366.208 158.099 366.542 157.987 366.854L157.476 368.241Z" fill="#F5894E"/>
<path d="M157.476 368.241C157.424 368.38 157.333 368.506 157.212 368.597L154.771 368.527L145.563 374.233C145.563 374.233 156.113 366.056 156.312 366.078C156.762 366.061 157.139 366.065 157.58 366.143C157.909 366.204 158.1 366.537 157.987 366.85L157.476 368.241Z" fill="#FEED7F"/>
<path opacity="0.5" d="M167.822 388.57L165.757 385.861L158.615 384.755L160.584 387.447L167.822 388.57Z" fill="#FEED7F"/>
<path opacity="0.5" d="M165.116 385.098L164.281 384.092L157.138 382.986L157.879 383.975L165.116 385.098Z" fill="#FEED7F"/>
<path d="M155.952 369.715L155.307 369.624C155.086 369.59 155.043 369.603 155.004 369.828L154.857 370.535L155.952 369.715Z" fill="#C94039"/>
<path d="M179.648 403.011C179.648 403.011 155.697 372.633 155.368 372.16C155.039 371.688 154.693 371.241 154.693 371.241C154.467 371.059 154.238 371.167 153.416 371.852L150.026 374.51L174.059 407.377C174.176 407.542 179.025 408.829 179.025 408.829C179.141 408.782 179.362 408.873 179.475 408.4L179.899 403.666C179.886 403.328 179.747 403.141 179.648 403.011Z" fill="#F7BC4B"/>
<path d="M179.648 403.011C179.648 403.011 155.706 372.594 155.377 372.121C155.043 371.649 154.537 371.02 154.537 371.02C154.537 371.02 154.506 370.999 154.074 371.345L179.141 403.727C179.141 403.727 179.362 408.873 179.475 408.4L179.899 403.666C179.886 403.328 179.747 403.142 179.648 403.011Z" fill="#F5894E"/>
<path d="M168.06 388.492L169.06 389.658C169.151 389.732 168.999 389.879 168.787 389.923L167.346 390.218C167.216 390.244 167.129 390.2 167.151 390.122L167.744 388.527C167.779 388.401 167.965 388.418 168.06 388.492Z" fill="#F5894E"/>
<path d="M168.558 399.825L169.77 399.985L169.475 401.069L168.558 399.825Z" fill="#F5894E"/>
<path d="M170.683 401.425L172.332 401.338L171.384 402.491L170.683 401.425Z" fill="#F5894E"/>
<path d="M179.263 408.7L152.16 372.863" stroke="#F3E7D9" stroke-miterlimit="10"/>
<path d="M164.415 394.085L165.164 393.521L166.393 394.176L166.402 395.451L168.982 396.17L169.973 396.461" stroke="#F3E7D9" stroke-miterlimit="10"/>
<path d="M138.581 339.844C138.581 339.844 141.412 346.694 142.001 348.94C142.252 349.89 142.646 351.706 141.988 352.352C141.092 353.232 138.927 352.634 138.109 351.069C136.694 348.35 133.33 342.09 133.802 340.438C134.278 338.778 137.343 337.009 138.581 339.844Z" fill="#F5894E"/>
<path d="M136.633 341.319C136.633 341.319 139.109 346.634 140.083 349.027C140.603 350.302 139.525 353.783 138.109 351.065C136.694 348.346 133.33 342.086 133.802 340.434C134.278 338.778 135.395 338.483 136.633 341.319Z" fill="#CC6D3D"/>
<path d="M145.481 362.406C145.481 362.406 147.737 362.762 145.776 358.743C144.265 355.647 143.49 352.838 142.516 350.267C141.594 347.835 138.33 349.56 138.447 351.329C138.564 353.102 139.958 354.906 141.412 357.559C143.416 361.227 144.066 362.523 145.481 362.406Z" fill="#F5894E"/>
<path d="M145.481 362.406C145.481 362.406 147.399 363.1 145.438 359.085C143.927 355.99 141.797 351.75 140.352 349.382C138.672 346.634 137.521 348.229 137.638 350.002C137.754 351.776 139.958 354.91 141.412 357.563C143.416 361.227 144.066 362.523 145.481 362.406Z" fill="#CC6D3D"/>
<path d="M143.771 360.871C143.771 360.871 144.204 359.614 145.836 360.061C146.996 360.377 146.923 360.407 148.079 361.582C148.299 361.808 148.814 362.675 149.083 363.178C149.351 363.681 146.905 363.949 146.784 364.062C146.551 364.283 146.771 366.039 146.771 366.039L147.126 367.236C147.126 367.236 147.421 368.12 147.537 368.476C147.654 368.831 147.109 368.831 146.88 368.662C146.65 368.493 146.018 367.635 146.018 367.635C145.641 367.799 145.533 367.947 144.646 366.373C144.377 365.9 143.94 365.042 143.94 365.042C143.94 365.042 143.416 362.289 143.771 360.871Z" fill="#CC6D3D"/>
<path d="M133.452 331.694C133.452 331.694 135.045 331.46 136.46 334.291C137.876 337.126 138.88 340.317 138.88 340.317L134.101 342.442C134.101 342.442 132.98 341.908 131.742 336.415C130.651 331.577 133.452 331.694 133.452 331.694Z" fill="#C94039"/>
<path d="M134.334 331.867C134.334 331.867 134.114 336.003 134.378 336.623C134.642 337.243 136.724 341.232 136.724 341.232L134.101 342.441C134.101 342.441 132.98 341.908 131.741 336.415C131.196 333.996 131.508 332.279 132.508 331.806C133.365 331.407 134.334 331.867 134.334 331.867Z" fill="#992C29"/>
<path d="M134.897 335.518C134.897 335.518 134.503 337.971 135.343 339.263L136.014 339.935C136.014 339.931 134.802 335.994 134.897 335.518Z" fill="#992C29"/>
<path d="M130.205 330.627C128.356 330.627 118.353 331.395 116.582 334.23C113.686 338.869 111.569 344.154 109.093 346.105C106.617 348.056 95.1158 352.482 90.6919 351.953C86.2679 351.424 83.7918 350.536 80.7833 354.433C77.7748 358.331 71.4072 365.775 70.1692 366.304C70.1692 366.304 78.251 367.838 80.5496 366.776C82.8481 365.714 86.5665 365.948 92.2286 368.077C97.8906 370.201 99.8385 368.61 99.8385 368.61C99.8385 368.61 104.791 365.419 108.509 361.344C112.223 357.268 119.833 357.151 123.253 354.611C126.673 352.07 128.538 350.752 130.391 345.693C131.495 342.671 133.629 337.347 133.871 335.708C134.213 333.406 134.057 331.585 133.638 331.338C132.772 330.835 131.62 330.627 130.205 330.627Z" fill="#1689CB"/>
<path d="M130.252 333.159C130.252 333.159 125.404 337.364 120.223 338.864C118.197 339.454 116.201 339.393 114.435 337.039C112.673 334.685 113.66 332.235 115.015 329.842C116.37 327.449 119.482 327.987 123.997 327.718C128.512 327.449 132.512 328.637 130.252 333.159Z" fill="#29ABE2"/>
<path d="M129.028 328.264C130.179 329.149 117.747 334.481 116.73 333.554C115.717 332.626 115.929 330.276 117.18 328.711C118.08 327.584 119.379 327.848 123.149 327.714C126.534 327.597 127.876 327.38 129.028 328.264Z" fill="#992C29"/>
</g>
<defs>
<clipPath id="clip0_144_2543">
<rect width="362" height="429" fill="white"/>
</clipPath>
</defs>
</svg>
