<svg width="362" height="429" viewBox="0 0 362 429" fill="none" xmlns="http://www.w3.org/2000/svg">
<g clip-path="url(#clip0_144_2543)">
<path d="M114.312 70.5948C83.3079 58.407 52.304 32.9625 45.8894 30.3966C39.4748 27.8308 66.4161 11.5805 83.9494 15.4292C101.483 19.278 99.3444 42.3705 99.3444 47.5022C99.3444 47.5022 103.621 40.66 113.029 44.5087C122.437 48.3575 125.003 62.8972 125.003 69.7395C125.003 76.5817 119.225 72.5277 114.312 70.5948Z" fill="#F3E7D9"/>
<path d="M342.026 207.735C342.026 207.735 282.387 178.908 255.052 163.004C227.718 147.1 223.245 129.207 221.256 119.765C219.268 110.323 220.76 101.872 244.614 113.799C244.614 113.799 239.149 103.861 247.594 93.4223C256.045 82.9836 275.926 93.4223 285.368 106.346C294.81 119.269 295.306 121.753 295.306 121.753C295.306 121.753 302.264 110.323 312.703 113.799C323.141 117.276 326.122 145.111 318.168 153.561C318.168 153.561 327.114 151.573 339.041 163.5C350.968 175.427 358.922 185.369 355.441 189.842C351.96 194.315 342.518 194.315 331.583 187.358C331.583 187.358 354.445 208.231 354.445 211.216C354.449 214.196 342.026 207.735 342.026 207.735Z" fill="#F3E7D9"/>
<path d="M93.8452 243.785C89.2438 238.307 80.9305 228.385 80.9305 228.385C80.9305 228.385 68.3835 240.479 64.1713 244.516C59.6939 248.805 50.9016 255.288 54.9727 255.776C59.0695 256.263 63.7992 255.416 65.0736 255.049C65.0736 255.049 65.6253 267.608 82.517 264.611C98.7844 261.72 98.8529 249.746 93.8452 243.785Z" fill="#1D2538"/>
<path d="M64.6929 252.44C64.6929 252.44 34.2278 281.224 35.1558 283.948C36.1137 286.762 57.9319 291.907 71.7831 275.703C83.385 262.134 84.2659 247.06 64.6929 252.44Z" fill="#1D2538"/>
<path d="M45.2439 285.697C43.6017 286.634 10.0577 320.794 10.3313 325.985C10.6221 331.434 27.6208 338.943 42.8748 328.132C56.7645 318.292 67.1348 273.227 45.2439 285.697Z" fill="#1D2538"/>
<path d="M270.824 244.293L313.276 276.961C313.276 276.961 309.696 279.796 299.814 277.555L244.823 290.051L270.824 244.293Z" fill="#1D2538"/>
<path d="M297.154 272.513L330.202 300.789C330.202 300.789 315.525 312.686 301.148 299.951C297.038 296.312 247.132 300.113 247.132 300.113L269.284 270.213C269.284 270.213 290.303 271 297.154 272.513Z" fill="#1D2538"/>
<path d="M319.28 302.247C320.776 302.876 333.867 312.13 348.607 324.686C348.607 324.686 331.267 337.968 319.459 332.939C307.644 327.906 297.671 293.151 319.28 302.247Z" fill="#1D2538"/>
<path d="M218.343 209.531L245.844 241.505C245.844 241.505 242.509 243.926 235.175 241.92L189.4 248.818L218.343 209.531Z" fill="#1D2538"/>
<path d="M230.436 236.168L254.345 258.713C254.345 258.713 221.067 306.887 212.172 295.794C209.627 292.625 189.327 257.516 189.327 257.516L212.283 231.887C212.291 231.883 225.351 234.813 230.436 236.168Z" fill="#1D2538"/>
<path d="M245.506 259.889C246.563 260.445 255.098 268.519 264.314 279.463C264.314 279.463 248.23 290.791 239.913 286.365C231.591 281.939 230.265 251.884 245.506 259.889Z" fill="#1D2538"/>
<path d="M208.606 152.06C208.606 152.06 217.159 104.164 174.823 93.9011C132.487 83.6378 118.597 116.322 116.236 123.408C111.532 137.52 111.532 146.073 111.532 146.073L208.606 152.06Z" fill="#C94039"/>
<path d="M207.093 147.014C207.093 147.014 194.148 128.318 163.105 120.791C132.063 113.265 126.529 120.338 125.208 121.805C122.163 125.187 122.163 137.2 122.163 137.2C122.163 137.2 144.567 132.513 167.335 135.002C196.774 138.218 207.093 147.014 207.093 147.014Z" fill="#EE5D4F"/>
<path d="M111.425 146.347C111.002 152.757 125.016 157.927 161.994 160.04C198.972 162.157 208.606 155.481 208.606 152.218C209.03 145.808 187.152 139.248 166.698 137.097C142.322 134.527 111.849 139.936 111.425 146.347Z" fill="#1D2538"/>
<path d="M118.114 141.318L118.413 141.207C118.409 141.138 117.442 134.625 122.8 118.127C128.257 101.334 146.992 93.5078 147.176 93.4265L146.415 93.6318L145.97 93.7601C145.786 93.8413 127.932 101.984 122.561 118.14C117.233 134.168 118.109 141.249 118.114 141.318Z" fill="#1D2538"/>
<path d="M175.058 128.181C165.776 128.181 158.252 120.656 158.252 111.375C158.252 102.093 165.776 94.5684 175.058 94.5684C184.34 94.5684 191.865 102.093 191.865 111.375C191.865 120.656 184.34 128.181 175.058 128.181Z" fill="#EE5D4F"/>
<path d="M169.478 126.83C159.44 126.83 151.303 118.693 151.303 108.655C151.303 98.6173 159.44 90.4802 169.478 90.4802C179.515 90.4802 187.652 98.6173 187.652 108.655C187.652 118.693 179.515 126.83 169.478 126.83Z" fill="#34283A"/>
<path d="M171.616 124.691C161.578 124.691 153.441 116.554 153.441 106.516C153.441 96.4789 161.578 88.3418 171.616 88.3418C181.653 88.3418 189.79 96.4789 189.79 106.516C189.79 116.554 181.653 124.691 171.616 124.691Z" fill="#1689CB"/>
<path d="M172.685 120.843C164.182 120.843 157.29 113.95 157.29 105.448C157.29 96.9451 164.182 90.0525 172.685 90.0525C181.187 90.0525 188.08 96.9451 188.08 105.448C188.08 113.95 181.187 120.843 172.685 120.843Z" fill="#29ABE2"/>
<path d="M173.112 118.704C165.555 118.704 159.428 112.578 159.428 105.02C159.428 97.4622 165.555 91.3354 173.112 91.3354C180.67 91.3354 186.797 97.4622 186.797 105.02C186.797 112.578 180.67 118.704 173.112 118.704Z" fill="#665070"/>
<path d="M171.68 118.097C165.185 118.097 159.92 112.832 159.92 106.337C159.92 99.8421 165.185 94.5769 171.68 94.5769C178.175 94.5769 183.44 99.8421 183.44 106.337C183.44 112.832 178.175 118.097 171.68 118.097Z" fill="#FEED7F"/>
<path d="M162.503 111.836C166.903 119.076 175.503 116.049 175.503 116.049L162.092 100.949C162.092 100.949 158.102 104.596 162.503 111.836Z" fill="#F7BC4B"/>
<path d="M165.474 83.2315L173.595 0" stroke="#F7BC4B" stroke-miterlimit="10"/>
<path d="M204.048 93.3838L262.921 19.2866" stroke="#F7BC4B" stroke-miterlimit="10"/>
<path d="M180.703 82.218L203.034 34.5105" stroke="#F7BC4B" stroke-miterlimit="10"/>
<path d="M223.334 81.2045C223.334 81.2045 212.168 49.7388 173.595 51.7658" stroke="#F7BC4B" stroke-miterlimit="10"/>
<path d="M288.75 74.3238L284.183 93.6104L287.732 90.0567L291.286 73.8149L288.75 74.3238Z" fill="#3E4C6F"/>
<path d="M281.981 75.9018L277.414 95.1884L280.967 91.6347L284.521 75.3972L281.981 75.9018Z" fill="#3E4C6F"/>
<path d="M282.716 75.115L286.774 89.3255L283.73 93.8927L279.162 80.6957L280.176 97.4463L272.564 95.9239L276.622 75.6196L282.716 75.115Z" fill="#1D2538"/>
<path d="M285.355 155.049C291.064 151.072 292.826 108.591 292.475 96.5184C292.137 84.9978 292.27 89.5136 292.27 89.5136C292.27 89.5136 292.86 87.0291 287.737 87.0291C282.614 87.0291 282.618 87.1745 281.972 88.7824C281.322 90.3989 280.895 93.0716 280.232 94.115C279.565 95.167 278.393 95.5434 277.328 95.5177C276.263 95.492 277.833 93.666 274.651 93.666C271.469 93.666 270.306 93.0673 269.413 96.8263C268.502 100.637 261.839 133.184 261.745 136.528C261.647 139.915 267.039 140.925 271.427 141.878C274.292 142.502 279.005 148.964 279.68 150.824C280.347 152.68 282.926 156.743 285.355 155.049Z" fill="#1D2538"/>
<path d="M274.086 138.555C274.086 138.555 273.24 151.072 265.628 157.671C258.016 164.269 251.332 166.639 251.332 166.639" stroke="#4B3355" stroke-width="3" stroke-miterlimit="10"/>
<path d="M275.609 138.555C275.609 138.555 275.1 152.257 267.488 158.855C259.876 165.454 252.854 166.639 252.854 166.639" stroke="#665070" stroke-width="3" stroke-miterlimit="10"/>
<path d="M267.903 131.679C267.903 131.679 265.833 144.008 258.187 150.568C250.541 157.124 243.13 161.225 243.13 161.225" stroke="#665070" stroke-width="3" stroke-miterlimit="10"/>
<path d="M270.101 131.846C270.101 131.846 268.031 144.175 260.385 150.735C252.739 157.29 245.328 161.391 245.328 161.391" stroke="#4B3355" stroke-width="3" stroke-miterlimit="10"/>
<path d="M273.821 134.048C273.821 134.048 271.752 146.377 264.105 152.937C256.459 159.493 249.048 163.594 249.048 163.594" stroke="#4B3355" stroke-width="3" stroke-miterlimit="10"/>
<path d="M278.795 82.5602C278.795 82.5602 271.371 86.0369 269.404 84.8823C267.437 83.7277 265.461 81.6878 264.024 78.7285C262.587 75.7693 261.215 73.909 262.455 72.6945C263.695 71.4843 265.038 70.2442 265.038 70.2442C265.038 70.2442 263.742 71.2491 262.583 69.7738C261.424 68.2984 257.729 61.3749 258.362 59.5446C258.995 57.7143 260.432 55.1185 260.996 54.306C261.561 53.4935 262.036 54.0366 262.036 54.0366C262.036 54.0366 262.014 51.8214 263.045 50.6625C264.075 49.5036 266 48.7809 266 48.7809C266 48.7809 265.931 47.2414 267.12 46.2664C268.309 45.2914 268.818 45.3256 271.042 44.6884C273.265 44.0512 274.698 44.0127 274.698 44.0127C274.698 44.0127 276.404 42.6785 277.341 42.4347C278.277 42.191 282.819 41.2844 284.837 42.6486C286.86 44.0085 290.529 48.721 292.005 53.1086C293.48 57.4962 295.263 69.0297 293.382 73.7423C291.5 78.4591 283.559 81.6493 278.795 82.5602Z" fill="#992C29"/>
<path d="M272.603 76.1884C272.603 76.1884 266.539 81.8803 265.298 79.4898C264.264 77.4884 262.985 75.0551 262.985 75.0551C262.985 75.0551 262.596 73.9775 262.81 73.1521C263.023 72.3268 264.217 71.5656 264.217 71.5656C263.267 70.3597 259.722 65.3948 260.244 63.8937C260.761 62.3927 261.937 60.2674 262.399 59.6045C262.861 58.9417 263.25 59.3821 263.25 59.3821C263.25 59.3821 263.233 57.5689 264.075 56.6196C264.918 55.6702 266.496 55.0801 266.496 55.0801C266.496 55.0801 266.44 53.8228 267.415 53.0231C268.39 52.2234 268.805 52.2534 270.627 51.7317C272.449 51.2099 273.62 51.18 273.62 51.18C273.62 51.18 275.019 50.0895 275.784 49.8885C276.55 49.6875 280.27 48.9477 281.925 50.0639C283.58 51.18 286.586 55.0373 287.797 58.6338C289.007 62.2302 290.341 66.8402 287.433 69.808C285.188 72.1044 279.355 71.1764 272.603 76.1884Z" fill="#C94039"/>
<path d="M276.246 43.0293C276.246 43.0293 273.531 45.4027 273.488 46.831C273.445 48.2593 275.729 56.0766 276.473 58.3003C277.217 60.524 277.495 60.9474 278.949 61.405C280.403 61.8626 282.84 61.3066 282.84 61.3066C282.84 61.3066 282.028 62.0165 280.052 62.1149C278.077 62.2132 276.952 61.0885 276.46 60.802C275.968 60.5155 275.357 58.172 274.771 55.9098C274.181 53.6476 272.543 47.9942 272.299 47.0577C272.055 46.1211 273.15 44.2523 276.246 43.0293Z" fill="#121721"/>
<path d="M266.09 48.7041C266.09 48.7041 266.304 51.8686 268.1 58.1207C268.686 60.1606 269.182 63.2268 272.171 62.6708C274.07 62.0807 277.448 60.9645 277.448 60.9645L277.602 61.3409C277.602 61.3409 275.07 62.4998 273.377 63.0258C271.679 63.5518 270.216 63.6843 269.306 62.7521C268.395 61.8198 266.71 56.098 266.214 53.2285C265.718 50.3548 264.952 49.6663 266.09 48.7041Z" fill="#121721"/>
<path d="M262.032 54.0324C262.032 54.0324 263.93 61.3151 264.58 63.4789C265.226 65.6428 266.641 66.1645 268.882 67.4132L268.181 67.4859C268.181 67.4859 264.713 66.002 264.183 63.975C263.652 61.948 261.535 53.8784 261.535 53.8784C261.535 53.8784 261.625 53.8399 261.792 53.8784C261.955 53.9169 262.032 54.0324 262.032 54.0324Z" fill="#121721"/>
<path d="M263.934 71.5615C263.934 71.5615 268.237 67.6101 270.293 66.2374C272.35 64.8647 274.3 66.2759 274.882 67.5417C275.459 68.8075 277.17 70.2358 275.836 71.5016C274.506 72.7674 271.675 73.9991 270.238 75.1751C270.238 75.1751 270.366 75.2734 270.755 76.2655C271.144 77.2577 271.765 77.4587 271.765 77.4587L270.815 75.1793C270.815 75.1793 276.704 71.9849 276.811 70.7918C276.918 69.5986 275.429 67.4048 274.574 66.045C273.719 64.6851 272 64.8005 269.746 66.0535C267.492 67.3022 263.934 71.5615 263.934 71.5615Z" fill="#121721"/>
<path d="M267.488 166.891C260.108 166.891 254.124 160.908 254.124 153.527C254.124 146.147 260.108 140.164 267.488 140.164C274.869 140.164 280.852 146.147 280.852 153.527C280.852 160.908 274.869 166.891 267.488 166.891Z" fill="#992C29"/>
<path d="M270.195 159.446C267.486 159.446 265.29 157.25 265.29 154.541C265.29 151.832 267.486 149.636 270.195 149.636C272.904 149.636 275.1 151.832 275.1 154.541C275.1 157.25 272.904 159.446 270.195 159.446Z" fill="#4B3355"/>
<path d="M279.163 137.371C279.163 137.371 278.316 149.888 270.704 156.487C263.092 163.085 256.408 165.454 256.408 165.454" stroke="#856792" stroke-width="3" stroke-miterlimit="10"/>
<path d="M282.883 136.695C282.883 136.695 282.036 149.212 274.424 155.811C266.812 162.409 260.128 164.778 260.128 164.778" stroke="#BB83C3" stroke-width="3" stroke-miterlimit="10"/>
<path d="M281.699 139.992C281.699 139.992 280.005 156.486 272.393 163.085C264.781 169.683 258.097 172.053 258.097 172.053" stroke="#665070" stroke-width="3" stroke-miterlimit="10"/>
<path d="M207.546 172.194C211.429 168.589 209.23 169.324 228.658 159.899C240.538 154.134 249.424 151.158 253.474 149.939C254.984 149.486 257.614 150.264 257.969 152.283C258.773 156.824 259.482 159.634 260.787 162.059C262.07 164.436 263.237 165.339 265.251 164.274C267.188 163.247 269.656 160.481 270.383 163.265C271.097 166.014 271.217 172.48 268.822 174.075C263.549 177.595 232.879 198.04 219.507 201.299C204.261 205.015 203.543 175.914 207.546 172.194Z" fill="#C94039"/>
<path d="M222.919 174.558C225.695 172.091 221.726 172.959 235.778 166.356C244.489 162.264 251.058 160.091 254.069 159.193C255.193 158.855 257.16 159.36 257.426 160.75C258.029 163.889 258.559 165.835 259.542 167.507C260.509 169.153 261.39 169.773 262.912 169.008C264.379 168.272 266.248 166.309 266.804 168.251C267.355 170.175 267.454 174.717 265.636 175.854C261.634 178.356 238.652 192.434 228.906 194.888C223.668 196.218 220.067 177.094 222.919 174.558Z" fill="#EE5D4F"/>
<path d="M270.721 168.811L214.623 198.536" stroke="#1D2538" stroke-width="0.5" stroke-miterlimit="10"/>
<path d="M204.578 168.05C204.578 168.05 213.434 163.666 214.675 166.852C215.363 174.875 219.755 190.368 223.835 200.978C222.654 202.53 216.864 207.055 212.139 205.511C207.191 203.899 204.578 168.05 204.578 168.05Z" fill="#F7BC4B"/>
<path d="M214.106 188.692C215.833 187.606 216.714 185.562 216.342 183.552C215.154 177.103 213.665 164.269 214.675 166.857C215.363 174.879 219.755 190.372 223.835 200.982C222.654 202.535 216.864 207.059 212.139 205.515C209.581 204.681 207.995 189.817 207.995 189.817C211.01 189.722 212.669 189.594 214.106 188.692Z" fill="#FEED7F"/>
<path d="M286.428 154.31C292.953 149.875 295.391 103.716 294.236 92.0368C293.184 81.3928 293.591 85.5067 293.591 85.5067C293.591 85.5067 294.057 83.2317 288.724 83.2317C283.426 83.2317 283.434 83.3643 282.831 84.8225C282.22 86.2979 281.882 88.7568 281.228 89.7233C280.569 90.6983 279.359 91.0404 278.247 91.0147C277.139 90.9848 278.713 89.2999 275.416 89.2871C272.132 89.2742 270.926 88.7226 270.062 92.1907C269.172 95.7615 263.002 126.761 261.731 136.075C263.634 135.348 267.954 136.037 273.487 138.637C279.111 141.28 282.784 145.299 283.828 148.896C284.892 152.548 283.639 156.204 286.428 154.31Z" fill="#C94039"/>
<path d="M267.15 106.41L268.446 99.5847C268.446 99.5847 282.656 95.2998 294.613 101.163L294.387 108.381C294.387 108.386 280.232 101.676 267.15 106.41Z" fill="#F7BC4B"/>
<path d="M294.22 111.738L294.305 109.369C294.305 109.369 286.77 106.568 280.518 106.072C273.073 105.482 266.817 107.847 266.817 107.847L266.393 110.301C266.393 110.301 271.67 107.569 280.386 108.184C284.341 108.467 289.011 109.703 294.22 111.738Z" fill="#F7BC4B"/>
<path d="M287.39 152.33C291.004 141.767 292.766 116.789 292.766 116.789C292.766 116.789 293.185 114.736 288.378 114.736C283.601 114.736 274.052 119.928 271.546 122.818C266.752 128.344 264.721 133.984 265.623 134.433C266.526 134.882 270.73 135.849 275.72 138.192C280.792 140.574 284.106 144.2 285.047 147.446C286.005 150.739 286.407 155.212 287.39 152.33Z" fill="#EE5D4F"/>
<path d="M289.537 83.2317C292.094 87.9742 292.073 110.541 289.31 127.557C287.206 140.527 283.221 147.352 283.221 147.352" stroke="#1D2538" stroke-width="0.5" stroke-miterlimit="10"/>
<path d="M207.751 167.823C207.751 167.823 197.958 152.937 165.813 150.568C128.146 146.732 110.249 160.613 110.249 160.613L78.1806 339.153L225.554 334.821L207.751 167.823Z" fill="#992C29"/>
<path d="M213.691 223.314C213.691 223.314 190.346 207.581 157.354 207.581C124.361 207.581 99.0451 222.976 99.0451 222.976L94.5891 247.45C94.5891 247.45 123.857 232.448 155.323 231.943C186.788 231.439 216.454 248.805 216.454 248.805L213.691 223.314Z" fill="#F7BC4B"/>
<path d="M217.27 257.23C217.27 257.23 191.77 243.19 156.315 243.19C120.859 243.19 93.0667 256.862 93.0667 256.862L88.6663 279.364C88.6663 279.364 129.044 262.109 154.758 262.336C180.472 262.562 219.836 279.501 219.836 279.501L217.27 257.23Z" fill="#F7BC4B"/>
<path d="M204.287 181.691C204.287 181.691 198.061 174.434 172.582 172.557C138.747 178.646 92.0534 294.024 92.0534 294.024C92.0534 294.024 119.799 282.182 155.327 281.673C190.855 281.165 218.601 299.438 218.601 299.438L204.287 181.691Z" fill="#EE5D4F"/>
<path d="M112.341 249.639C112.341 249.639 109.651 254.942 106.773 260.954C104.382 265.949 101.893 271.44 100.422 274.703C157.696 242.262 215.953 278.12 215.953 278.12L213.225 255.31C213.225 255.31 187.815 243.327 155.212 243.502C134.009 243.614 121.377 247.107 112.341 249.639Z" fill="#FEED7F"/>
<path d="M209.013 220.598L212.224 246.603C212.224 246.603 198.125 236.339 167.592 233.718C137.054 231.097 118.165 238.371 118.165 238.371C118.165 238.371 125.593 223.822 134.518 209.95C134.518 209.945 167.168 199.627 209.013 220.598Z" fill="#FEED7F"/>
<path d="M107.619 173.237C107.619 173.237 126.906 155.811 163.503 158.736C176.893 159.805 192.318 163.987 208.226 173.579" stroke="#1D2538" stroke-width="0.5" stroke-miterlimit="10"/>
<path d="M193.276 166.074L195.196 207.324" stroke="#1D2538" stroke-width="0.5" stroke-miterlimit="10"/>
<path d="M213.054 218.272L213.139 218.344L213.114 218.041C213.114 218.041 209.398 214.41 202.055 210.471C195.277 206.841 183.979 202.235 168.635 200.918C134.33 197.967 106.627 207.833 100.328 215.864L100.247 216.313L100.375 216.155C106.392 208.132 134.154 198.168 168.618 201.127C183.927 202.445 195.2 207.033 201.957 210.655C209.269 214.581 213.015 218.233 213.054 218.272Z" fill="#1D2538"/>
<path d="M92.7291 286.754C92.7291 286.754 120.868 265.398 158.368 268.481C187.293 270.859 207.769 278.124 217.369 285.749" stroke="#1D2538" stroke-width="0.5" stroke-miterlimit="10"/>
<path d="M156.567 158.462L156.34 178.988C156.34 178.988 138.491 179.245 131.529 180.793C121.377 183.047 119.123 184.402 119.123 184.402L120.928 165.227C120.928 165.227 137.605 157.842 156.567 158.462Z" stroke="#1D2538" stroke-width="0.5" stroke-miterlimit="10"/>
<path d="M120.025 174.477C120.025 174.477 111.904 176.957 109.197 179.438" stroke="#1D2538" stroke-width="0.5" stroke-miterlimit="10"/>
<path d="M156.341 174.477C156.341 174.477 177.77 173.126 193.785 181.242" stroke="#1D2538" stroke-width="0.5" stroke-miterlimit="10"/>
<path d="M119.123 184.403L117.712 206.195" stroke="#1D2538" stroke-width="0.5" stroke-miterlimit="10"/>
<path d="M30.4728 74.3238L35.04 93.6104L31.4864 90.0567L27.9369 73.8149L30.4728 74.3238Z" fill="#3E4C6F"/>
<path d="M37.2381 75.9018L41.8096 95.1884L38.2559 91.6347L34.7022 75.3972L37.2381 75.9018Z" fill="#3E4C6F"/>
<path d="M36.5069 75.1152L32.4486 89.3257L35.4934 93.8929L40.0606 80.6959L39.0428 97.4466L46.6591 95.9242L42.5965 75.6198L36.5069 75.1152Z" fill="#1D2538"/>
<path d="M46.4751 138.949C48.5919 138.401 49.9347 136.657 49.8064 134.724C49.2547 126.342 48.0702 105.473 47.959 104.083C47.8264 102.386 47.0396 100.726 44.3967 100.26C41.771 99.7984 38.5252 99.7984 38.1831 98.4257C37.8496 97.0786 38.2216 94.842 35.9509 94.6795C33.6844 94.517 30.584 93.9868 29.3567 95.1115C27.6889 96.6381 20.7996 125.529 19.9443 138.842C18.9393 154.494 31.5333 162.054 32.5041 160.609C33.4577 159.185 29.2412 155.841 32.936 146.013C35.0956 140.262 42.8572 139.885 46.4751 138.949Z" fill="#1D2538"/>
<path d="M32.8424 132.803C32.8424 132.803 33.6892 145.32 41.3012 151.919C48.9132 158.517 55.5972 160.887 55.5972 160.887" stroke="#4B3355" stroke-width="3" stroke-miterlimit="10"/>
<path d="M31.3197 132.803C31.3197 132.803 31.8286 146.505 39.4406 153.104C47.0526 159.702 54.0745 160.887 54.0745 160.887" stroke="#665070" stroke-width="3" stroke-miterlimit="10"/>
<path d="M40.8047 124.148C40.8047 124.148 42.8745 136.477 50.5207 143.037C58.1669 149.593 65.5779 153.694 65.5779 153.694" stroke="#665070" stroke-width="3" stroke-miterlimit="10"/>
<path d="M38.6024 124.319C38.6024 124.319 40.6722 136.648 48.3184 143.208C55.9646 149.764 63.3756 153.865 63.3756 153.865" stroke="#4B3355" stroke-width="3" stroke-miterlimit="10"/>
<path d="M33.1073 128.296C33.1073 128.296 35.1771 140.625 42.8233 147.185C50.4695 153.741 57.8805 157.842 57.8805 157.842" stroke="#4B3355" stroke-width="3" stroke-miterlimit="10"/>
<path d="M43.3105 85.3098C43.3105 85.3098 50.8926 88.2648 52.7613 86.9862C54.6301 85.7075 56.4433 83.5522 57.6621 80.5288C58.8809 77.5011 60.1125 75.5639 58.7996 74.452C57.491 73.3402 56.0755 72.2069 56.0755 72.2069C56.0755 72.2069 57.4269 73.1092 58.4746 71.5697C59.5223 70.0302 62.6997 62.9229 61.947 61.1567C61.1944 59.3863 59.595 56.9188 58.9792 56.1533C58.3634 55.3878 57.9315 55.9566 57.9315 55.9566C57.9315 55.9566 57.7989 53.7628 56.6999 52.6894C55.6009 51.6161 53.6466 51.0345 53.6466 51.0345C53.6466 51.0345 53.6081 49.5078 52.3636 48.6226C51.1192 47.7374 50.6189 47.8058 48.3738 47.3311C46.1286 46.8564 44.7089 46.9163 44.7089 46.9163C44.7089 46.9163 42.9256 45.7146 41.9848 45.5393C41.0397 45.364 36.4854 44.7781 34.5781 46.2663C32.6708 47.7545 29.3652 52.6638 28.2063 57.1112C27.0474 61.5587 26.0766 73.0921 28.2661 77.6251C30.4514 82.1538 38.5337 84.741 43.3105 85.3098Z" fill="#992C29"/>
<path d="M47.7794 79.8403C47.7794 79.8403 53.2361 82.9407 54.5618 82.637C55.8875 82.3334 56.7513 81.7475 57.7007 79.3784C58.65 77.0093 59.6165 75.4954 58.5902 74.6231C57.5638 73.7507 57.5125 73.5711 58.3336 72.3694C59.1546 71.1635 61.6393 65.6041 61.0491 64.2229C60.459 62.8373 59.2103 60.9087 58.727 60.3057C58.2438 59.7027 57.9059 60.1517 57.9059 60.1517C57.9059 60.1517 57.8033 58.4369 56.9437 57.5944C56.0842 56.752 54.5575 56.2987 54.5575 56.2987C54.5575 56.2987 54.5276 55.1056 53.5526 54.4128C52.5775 53.72 52.1884 53.7756 50.4308 53.4036C48.6775 53.0315 47.5656 53.0786 47.5656 53.0786C47.5656 53.0786 46.1715 52.1378 45.436 52.0009C44.7004 51.8641 41.1339 51.4065 39.6415 52.5697C38.149 53.7329 35.5618 57.5773 34.6552 61.054C33.7486 64.535 33.1584 68.0203 34.869 71.5654C36.5795 75.1106 41.5444 74.2596 47.7794 79.8403Z" fill="#C94039"/>
<path d="M43.1053 46.0439C43.1053 46.0439 45.9534 48.2035 46.0988 49.6147C46.2442 51.026 44.5165 58.9202 43.9307 61.1696C43.3448 63.419 43.1011 63.8637 41.6941 64.4111C40.2872 64.9585 37.8368 64.5821 37.8368 64.5821C37.8368 64.5821 38.6921 65.2321 40.6507 65.1894C42.6093 65.1509 43.6484 63.9621 44.1146 63.6413C44.5807 63.3206 45.0254 60.9643 45.4488 58.685C45.8764 56.4057 47.1081 50.6967 47.2877 49.7559C47.4673 48.8151 46.257 47.0403 43.1053 46.0439Z" fill="#121721"/>
<path d="M53.5482 50.9575C53.5482 50.9575 53.5568 54.1049 52.2097 60.4169C51.7693 62.4781 51.4913 65.5443 48.4936 65.1979C46.5735 64.7446 43.1566 63.8722 43.1566 63.8722L43.0326 64.2571C43.0326 64.2571 45.6155 65.2279 47.3304 65.6341C49.0452 66.0361 50.5034 66.066 51.3373 65.0825C52.1712 64.0989 53.4456 58.3172 53.7407 55.4435C54.0315 52.5654 54.7414 51.8299 53.5482 50.9575Z" fill="#121721"/>
<path d="M57.9317 55.9526C57.9317 55.9526 56.5504 63.2909 56.0629 65.4762C55.5754 67.6614 54.2112 68.2729 52.0773 69.6628L52.7786 69.6841C52.7786 69.6841 56.1099 67.9779 56.4905 65.9337C56.8754 63.8896 58.4149 55.7602 58.4149 55.7602C58.4149 55.7602 58.3251 55.726 58.1626 55.7773C58.0001 55.8329 57.9317 55.9526 57.9317 55.9526Z" fill="#121721"/>
<path d="M57.256 73.4301C57.256 73.4301 52.7273 69.8165 50.5933 68.602C48.4594 67.3875 46.6291 68.9185 46.1416 70.21C45.6541 71.5014 45.0854 72.0873 46.4837 73.7337C47.8821 75.3801 50.7815 78.0401 50.7815 78.0401C50.7815 78.0401 48.2029 79.4085 47.1038 80.6914C47.4972 79.2161 49.5371 77.4627 49.5371 77.4627C49.5371 77.4627 45.0682 73.5327 44.8801 72.3567C44.6919 71.1807 45.59 70.1073 46.3426 68.7004C47.0953 67.2935 48.8058 67.2892 51.1236 68.3754C53.4414 69.4616 57.256 73.4301 57.256 73.4301Z" fill="#121721"/>
<path d="M43.781 163.987C36.4004 163.987 30.4173 158.004 30.4173 150.623C30.4173 143.243 36.4004 137.26 43.781 137.26C51.1616 137.26 57.1448 143.243 57.1448 150.623C57.1448 158.004 51.1616 163.987 43.781 163.987Z" fill="#992C29"/>
<path d="M41.7497 155.19C39.3195 155.19 37.3493 153.22 37.3493 150.79C37.3493 148.36 39.3195 146.39 41.7497 146.39C44.18 146.39 46.1501 148.36 46.1501 150.79C46.1501 153.22 44.18 155.19 41.7497 155.19Z" fill="#4B3355"/>
<path d="M31.1227 134.437C31.1227 134.437 31.9695 146.954 39.5814 153.553C47.1934 160.151 53.8774 162.52 53.8774 162.52" stroke="#856792" stroke-width="3" stroke-miterlimit="10"/>
<path d="M27.3981 133.761C27.3981 133.761 28.2448 146.278 35.8568 152.877C43.4688 159.475 50.1528 161.845 50.1528 161.845" stroke="#BB83C3" stroke-width="3" stroke-miterlimit="10"/>
<path d="M29.4295 141.036C29.4295 141.036 30.2762 153.553 37.8882 160.151C45.5002 166.75 52.1842 169.119 52.1842 169.119" stroke="#665070" stroke-width="3" stroke-miterlimit="10"/>
<path d="M108.877 160.031C108.877 160.031 68.3919 146.817 62.7813 145.209C57.393 143.661 55.2035 144.547 54.5406 149.071C53.8864 153.527 51.6669 155.652 47.5573 156.166C43.5931 156.662 42.5111 156.521 41.6986 156.683C40.8861 156.846 40.3772 158.573 40.3259 162.657C40.2789 166.574 38.9532 167.224 47.4504 172.476C56.5035 178.069 93.8536 194.533 93.8536 194.533C93.8536 194.533 104.887 188.688 108.368 180.327C111.994 171.629 108.877 160.031 108.877 160.031Z" fill="#C94039"/>
<path d="M79.8184 170.569C70.5514 167.455 58.817 162.003 55.5755 162.375C52.4366 162.734 48.2671 163.949 45.6115 163.88C42.9729 163.816 42.2374 162.572 42.1903 165.736C42.1476 168.777 45 169.423 51.6711 173.541C58.7614 177.915 91.3091 191.356 91.3091 191.356C91.3091 191.356 96.1371 186.058 96.8128 179.493C97.1806 175.863 89.2393 173.733 79.8184 170.569Z" fill="#EE5D4F"/>
<path d="M92.6945 184.368C92.6474 185.138 93.2076 185.793 93.9517 185.831C94.6958 185.869 95.3416 185.271 95.3929 184.501C95.4442 183.727 94.8797 183.068 94.1356 183.034C93.3872 182.996 92.7458 183.594 92.6945 184.368Z" fill="#3E4C6F"/>
<path d="M99.2844 189.688L40.377 164.778" stroke="#1D2538" stroke-width="0.5" stroke-miterlimit="10"/>
<path d="M105.78 158.372C105.78 158.372 112.721 159.634 114.076 161.237C115.441 162.85 113.55 177.428 109.334 185.938C105.297 194.08 100.867 197.839 96.65 195.983C94.5888 195.072 92.5019 193.969 92.5019 193.969C92.5019 193.969 96.8125 189.179 100.888 177.035C105.374 163.654 105.78 158.372 105.78 158.372Z" fill="#FEED7F"/>
<path d="M105.78 158.372C105.78 158.372 112.721 159.634 114.076 161.237C115.441 162.85 110.66 177.655 110.66 177.655C110.66 177.655 108.863 180.118 100.888 177.035C105.374 163.654 105.78 158.372 105.78 158.372Z" fill="#F7BC4B"/>
<path d="M43.7812 133.308C47.7283 133.308 49.5885 136.165 49.5885 136.165C49.5885 136.165 49.9691 136.037 49.7168 133.385C48.8145 122.262 47.972 97.8483 47.8822 96.6766C47.7368 94.7779 46.8858 92.9219 44.0207 92.4002C41.1769 91.8827 37.6574 91.8827 37.2896 90.3475C36.9261 88.8422 37.3281 86.3363 34.8692 86.1566C32.4145 85.977 29.0533 85.3826 27.7233 86.6399C25.9144 88.3504 18.4521 120.663 17.5241 135.558C16.4336 153.065 30.4474 161.934 31.4951 160.318C32.53 158.723 25.9016 154.237 29.9043 143.242C32.252 136.806 39.8341 133.308 43.7812 133.308Z" fill="#C94039"/>
<path d="M47.1935 114.702C47.1935 114.702 39.0726 115.715 35.3521 113.688C31.6317 111.657 35.5617 95.8811 35.5617 95.8811L46.5991 98.2075L47.1935 114.702Z" stroke="#1D2538" stroke-width="0.5" stroke-miterlimit="10"/>
<path d="M42.5538 132.085C47.2493 132.29 48.1773 132.709 47.9549 130.379C47.5615 122.091 24.7768 118.482 23.0278 118.537C20.8639 118.606 18.5162 127.334 19.1918 138.162C19.8675 148.99 25.7818 157.889 26.637 147.634C27.0903 142.22 31.8286 131.619 42.5538 132.085Z" fill="#EE5D4F"/>
<path d="M31.9398 85.8274C31.3026 87.6919 18.2938 126.881 25.3969 156.657" stroke="#1D2538" stroke-width="0.5" stroke-miterlimit="10"/>
<path d="M99.0236 133.509C101.029 135.511 105.618 138.829 103.347 141.001C101.589 142.686 99.3956 140.895 95.6709 137.217C93.2761 134.852 97.018 131.508 99.0236 133.509Z" fill="#CC6D3D"/>
<path d="M100.649 138.577L99.4899 140.544L96.1885 137.183L100.649 138.577Z" fill="#F5894E"/>
<path d="M92.1215 129.725C92.1215 129.725 94.1058 127.894 96.3936 130.323C98.9723 133.064 99.0963 133.27 99.0963 133.27L95.6752 137.217C95.6752 137.217 91.2149 130.464 92.1215 129.725Z" fill="#C94039"/>
<path d="M103.741 140.984C102.069 141.929 101.299 141.934 100.225 140.569C99.152 139.205 102.039 137.341 106.371 135.061C110.707 132.782 112.165 131.743 112.836 132.731C113.512 133.719 111.592 136.006 108.581 137.961C105.571 139.915 105.413 140.039 103.741 140.984Z" fill="#CC6D3D"/>
<path d="M104.023 140.642C102.351 141.587 101.602 141.074 101.602 141.074L102.77 139.334C102.77 139.334 112.208 135.31 109.197 137.264C106.187 139.218 105.695 139.697 104.023 140.642Z" fill="#F5894E"/>
<path d="M112.952 135.023C113.717 134.514 114.196 134.27 114.641 133.821C115.154 133.056 115.586 131.563 115.975 130.926C116.779 129.617 115.894 128.518 115.548 129.399C115.201 130.28 113.512 131.798 113.512 131.798L114.248 129.143L116.386 126.543C116.386 126.543 116.484 124.285 115.804 124.503C115.124 124.721 113.829 127.424 112.682 127.71C111.536 127.997 110.031 132.572 110.348 133.577C110.664 134.582 111.955 135.622 112.952 135.023Z" fill="#CC6D3D"/>
<path d="M103.069 152.244C103.069 152.244 103.959 155.481 97.0224 154.305C90.0861 153.129 77.428 150.05 77.428 150.05C77.428 150.05 98.8228 147.005 103.069 152.244Z" fill="#EE5D4F"/>
<path d="M93.871 165.633L88.5554 173.836L86.2077 171.308L90.3044 162.879L93.871 165.633Z" fill="#CC6D3D"/>
<path d="M99.5584 151.376C100.025 151.491 102.787 152.017 100.161 156.401C97.1337 161.455 96.4067 162.588 93.8109 165.796L90.2102 163.127C90.2102 163.127 92.2586 157.996 93.2465 155.083C94.4652 151.491 99.0923 151.26 99.5584 151.376Z" fill="#1D2538"/>
<path d="M93.9305 163.269C95.8549 162.764 102.787 152.017 100.161 156.401C97.1335 161.455 96.4066 162.589 93.8108 165.796L90.2101 163.128C90.2101 163.132 92.0019 163.773 93.9305 163.269Z" fill="#3E4C6F"/>
<path d="M88.7649 172.925C88.7649 172.925 89.9409 177.736 88.6623 178.27C87.3836 178.805 85.4079 172.442 86.2076 171.308C87.0073 170.175 88.7649 172.925 88.7649 172.925Z" fill="#CC6D3D"/>
<path d="M88.9529 173.72C88.9529 173.72 89.3121 176.884 88.6664 176.927C88.0249 176.97 86.8831 174.81 86.5239 174.156C86.1647 173.502 86.6223 171.274 86.1091 171.192C85.6002 171.111 84.7834 172.557 84.762 173.198C84.7535 173.421 85.2111 173.964 85.5831 175.281C85.8226 176.127 85.8995 177.646 86.2374 178.445C86.8874 179.981 88.0463 181.05 88.5081 181.285C89.5772 181.836 89.8296 180.241 89.8381 178.189C89.8509 176.136 88.9529 173.72 88.9529 173.72Z" fill="#C94039"/>
<path d="M86.4214 173.463C86.3573 172.604 86.6181 171.278 86.1092 171.197C85.6003 171.116 84.7836 172.561 84.7622 173.203C84.7536 173.425 85.2112 173.968 85.5833 175.285C85.8227 176.132 85.8997 177.65 86.2375 178.45C86.8875 179.985 88.0464 181.054 88.5083 181.289C89.5774 181.841 86.7165 179.536 86.7293 177.483C86.7336 176.979 88.1705 176.688 88.1705 176.688C88.1705 176.688 86.5369 174.99 86.4214 173.463Z" fill="#992C29"/>
<path d="M92.78 146.71C92.78 146.71 98.6686 149.31 100.371 151.316C102.073 153.322 101.91 157.547 93.6395 154.31C87.9262 152.073 82.089 149.879 84.8087 149.174C87.5243 148.468 89.8806 145.282 92.78 146.71Z" fill="#1D2538"/>
<path d="M92.9555 178.381C92.9555 178.381 94.0203 180.224 94.4694 181.268C94.8585 182.179 95.6283 183.385 95.7737 184.09C96.0859 185.613 95.9661 186.455 95.3118 186.536C94.6575 186.618 92.9085 186.044 91.9206 184.958C91.3647 184.347 90.2871 181.482 90.069 180.109C89.8936 179.04 91.0782 175.79 92.9555 178.381Z" fill="#C94039"/>
<path d="M91.9249 182.504C92.4937 185.258 95.9661 186.459 95.3118 186.536C94.6575 186.617 92.9085 186.044 91.9207 184.958C91.3647 184.347 89.6199 180.566 89.3976 179.194C89.2265 178.12 90.039 177.192 90.2742 176.966C90.5052 176.743 93.7381 179.946 91.9249 182.504Z" fill="#992C29"/>
<path d="M91.9934 169.136L92.5707 177.24C92.5707 177.24 94.4908 182.632 93.9819 182.654C93.473 182.675 91.6769 181.396 90.7105 179.403C90.0861 178.108 88.4611 171.073 87.8282 169.281C85.7071 163.247 91.8095 164.175 91.9934 169.136Z" fill="#F5894E"/>
<path d="M83.2053 148.335C84.4925 148.964 90.0261 150.174 90.5692 153.899C91.2406 158.483 92.0061 169.303 92.0061 169.303L87.9221 169.448C87.9221 169.448 85.2793 163.422 84.5224 159.587C83.9836 156.858 83.7612 154.664 83.7612 154.664C83.7612 154.664 78.1933 150.533 77.7186 149.024C77.2482 147.514 81.9181 147.707 83.2053 148.335Z" fill="#1D2538"/>
<path d="M91.1723 159.599L91.5273 163.564L92.0105 169.307L87.9223 169.448L90.8131 166.309L91.1723 159.599Z" fill="#3E4C6F"/>
<path d="M80.6441 142.857C80.0882 142.156 81.2343 140.98 81.3882 139.436C81.6448 136.819 81.3754 133.346 82.0682 130.84C82.5471 129.1 82.53 128.882 83.6804 128.061C84.4416 127.518 87.3923 128.518 90.3815 128.638C93.4006 128.762 93.6016 128.946 94.7263 132.192C95.7954 135.275 94.8845 135.831 93.6786 137.973C92.7164 139.684 91.1641 141.523 91.1641 141.523C91.1641 141.523 90.8134 143.623 88.1278 144.153C84.6126 144.854 82.1452 144.752 80.6441 142.857Z" fill="#CE9436"/>
<path d="M92.7461 125.076L91.5487 128.861C91.5487 128.861 90.8987 130.533 89.6286 130.545C88.3585 130.558 87.5716 128.95 87.6828 128.557C87.794 128.164 89.2523 123.592 89.2523 123.592L92.7461 125.076Z" fill="#CC6D3D"/>
<path d="M90.839 141.938C92.4041 142.729 96.3213 146.372 98.746 147.805C104.015 151.598 103.069 152.244 103.069 152.244C103.069 152.244 101.265 150.576 99.1266 151.072C97.9506 151.346 95.2693 153.505 91.7413 151.868C89.1498 150.666 84.9889 150.097 84.9889 150.097C84.9889 150.097 81.0118 150.828 80.272 151.012C78.0012 151.577 76.6456 150.037 76.6456 150.037C77.5009 147.698 80.4559 140.817 82.5171 140.039C84.5869 139.265 89.2738 141.147 90.839 141.938Z" fill="#F7BC4B"/>
<path d="M80.276 151.017C78.0223 151.628 76.6496 150.042 76.6496 150.042C77.8898 146.334 80.1947 142.682 80.1947 142.682L78.2789 148.776L80.276 151.017Z" fill="#CE9436"/>
<path d="M89.4491 137.238C90.206 137.661 94.414 134.929 94.0248 135.917C93.6357 136.9 90.98 142.827 89.8126 143.306C88.6494 143.785 87.4648 141.253 85.9424 140.886C84.42 140.518 81.7729 141.6 81.8542 140.95C81.9354 140.3 85.1513 134.835 89.4491 137.238Z" fill="#F7BC4B"/>
<path d="M91.3178 150.144C92.5922 150.88 95.2051 151.333 95.2051 151.333C95.2051 151.333 92.203 149.768 89.7911 146.03C89.7869 146.03 90.0435 149.409 91.3178 150.144Z" fill="#CE9436"/>
<path d="M78.574 133.706C78.574 133.706 76.8335 136.819 76.1707 139.133C75.5078 141.446 77.1713 142.519 78.2148 142.472C79.2582 142.43 81.3237 137.2 82.6622 135.049C84.0007 132.898 80.4214 130.105 78.574 133.706Z" fill="#CC6D3D"/>
<path d="M82.7093 135.707C82.7093 135.707 86.0577 130.028 83.5432 128.36C81.0329 126.688 78.8477 132.265 78.3003 133.873L82.7093 135.707Z" fill="#C94039"/>
<path d="M74.0197 150.619C74.0197 150.619 78.8947 143.588 79.6174 141.074C80.3402 138.559 77.3253 138.17 76.2263 139.15C75.1315 140.125 72.5357 147.27 71.9884 149.049C71.441 150.828 72.9206 151.491 74.0197 150.619Z" fill="#CC6D3D"/>
<path d="M74.7938 149.109C74.7938 149.109 78.5484 143.691 79.1044 141.758C79.6603 139.821 73.6477 146.531 73.2286 147.903C72.8095 149.272 73.9428 149.781 74.7938 149.109Z" fill="#F5894E"/>
<path d="M74.1563 149.635C74.1563 149.635 74.3873 151.367 74.0708 152.501C73.9554 153.014 73.0017 153.116 72.2448 153.245C71.4879 153.373 70.7267 153.356 70.2948 153.326C69.8671 153.296 69.2556 152.813 70.6625 152.471C71.2655 152.325 72.5228 151.752 72.5228 151.752C72.5228 151.752 72.7109 150.538 72.9846 149.926C73.4336 148.913 74.1563 149.635 74.1563 149.635Z" fill="#CC6D3D"/>
<path d="M72.0483 152.013C72.0483 152.013 69.7647 151.842 68.9864 151.945C68.161 152.056 66.613 152.492 66.3179 152.069C66.0314 151.65 67.0534 151.013 67.3784 150.987C67.6949 150.957 70.064 150.833 70.064 150.833C70.064 150.833 74.5756 151.081 72.0483 152.013Z" fill="#CC6D3D"/>
<path d="M72.7922 150.743C72.7922 150.743 70.329 149.853 69.8886 149.793C69.4353 149.734 66.3349 151.842 67.3099 151.838C68.2293 151.833 69.2257 150.914 70.0083 151.414C70.7823 151.906 73.0403 152.248 72.7922 150.743Z" fill="#CC6D3D"/>
<path d="M72.9799 149.926C72.9799 149.926 71.295 149.178 70.8545 149.345C70.3926 149.52 68.7206 150.863 69.7298 150.863C70.6749 150.867 72.8729 152.278 72.9799 149.926Z" fill="#CC6D3D"/>
<path d="M97.215 124.687C97.215 124.687 95.5216 127.509 92.9386 126.355C90.3557 125.196 89.7185 118.623 93.5502 118.751C97.3818 118.88 98.6476 122.758 97.215 124.687Z" fill="#273252"/>
<path d="M95.3677 115.869C94.0763 114.475 93.593 112.683 90.7706 113.269C90.7706 113.269 87.8798 112.333 85.1044 114.317C81.7773 116.699 83.0389 120.15 83.0389 120.15C83.0389 120.15 79.3783 123.828 83.7616 126.287C85.8741 127.471 89.7443 126.287 91.442 125.743C95.2266 124.537 96.6592 117.263 95.3677 115.869Z" fill="#273252"/>
<path d="M91.5573 115.018C92.9856 115.377 98.0874 114.706 98.2028 113.53C98.3183 112.354 93.9649 111.071 93.3192 113.543C93.3192 113.543 94.3498 111.139 92.8787 110.476C91.4033 109.809 90.129 114.659 91.5573 115.018Z" fill="#273252"/>
<path d="M96.6506 119.992C97.2578 125.538 93.7255 126.864 89.9024 126.372C87.0287 126.004 86.6267 124.178 86.7849 120.552C86.9432 116.925 88.3672 114.223 91.258 114.022C95.0769 113.757 96.2572 116.391 96.6506 119.992Z" fill="#CC6D3D"/>
<path d="M95.4446 123.007C94.7774 124.961 93.2636 126.385 90.6379 126.068C88.5296 125.816 87.298 124.195 87.2039 122.185C87.1098 120.176 91.5659 118.781 93.657 118.717C96.4153 118.636 96.1117 121.048 95.4446 123.007Z" fill="#F5894E"/>
<path d="M86.1263 121.253L88.5638 121.129C88.5638 121.129 88.6707 116.695 91.4803 115.63C94.431 114.509 95.7781 116.399 95.7781 116.399C95.7781 116.399 94.3711 112.606 90.0092 114.197C86.5411 115.459 86.1263 121.253 86.1263 121.253Z" fill="#F7BC4B"/>
<path d="M85.5446 121.531C85.2513 120.421 85.7151 119.336 86.5805 119.107C87.4459 118.879 88.3852 119.593 88.6785 120.703C88.9717 121.812 88.5079 122.897 87.6425 123.126C86.7771 123.355 85.8378 122.641 85.5446 121.531Z" fill="#F5894E"/>
<path d="M92.1983 117.845C92.1983 117.845 92.9426 117.353 93.4218 117.357" stroke="#1D2538" stroke-width="0.25" stroke-miterlimit="10" stroke-linecap="round" stroke-linejoin="round"/>
<path d="M92.8086 119.3C92.7145 118.866 92.8271 118.473 93.0603 118.422C93.2934 118.372 93.5587 118.683 93.6528 119.117C93.7469 119.551 93.6343 119.943 93.4011 119.994C93.168 120.044 92.9027 119.734 92.8086 119.3Z" fill="#273252"/>
<path d="M95.5593 118.942C95.521 118.542 95.612 118.206 95.7625 118.192C95.9131 118.177 96.0661 118.49 96.1044 118.89C96.1427 119.289 96.0517 119.625 95.9012 119.64C95.7506 119.654 95.5976 119.342 95.5593 118.942Z" fill="#273252"/>
<path d="M95.2259 117.075C95.2259 117.075 95.7735 117.037 96.043 117.298" stroke="#1D2538" stroke-width="0.25" stroke-miterlimit="10" stroke-linecap="round" stroke-linejoin="round"/>
<path d="M85.9939 122.797C85.9939 122.797 88.5383 121.711 90.0223 123.417C91.5062 125.123 89.1199 129.413 86.2205 127.856C83.3211 126.308 84.0439 123.43 85.9939 122.797Z" fill="#273252"/>
<path d="M89.7612 115.061C89.7612 115.061 89.8767 116.964 89.3977 118.277C89.0342 119.269 88.5424 119.846 88.5424 119.846L88.4227 119.444L87.8326 119.5C87.8326 119.5 88.9957 118.165 89.3378 115.155L89.7612 115.061Z" fill="#EE5D4F"/>
<path d="M89.7356 114.851C89.7356 114.851 90.4968 116.6 90.4968 117.994C90.4968 119.051 90.2317 119.761 90.2317 119.761L89.9837 119.423L89.4491 119.675C89.4491 119.675 90.082 118.024 89.3764 115.074L89.7356 114.851Z" fill="#EE5D4F"/>
<path d="M89.8163 116.074C89.4357 116.322 87.49 114.86 88.2384 114.099C88.9397 113.38 89.8634 112.696 90.2397 113.38C90.6203 114.06 90.2012 115.826 89.8163 116.074Z" fill="#EE5D4F"/>
<path d="M88.6059 115.34C88.6059 115.34 88.0284 114.476 88.2765 114.275C88.5246 114.073 88.6145 114.591 89.0166 115.139C89.4144 115.695 88.8583 115.699 88.6059 115.34Z" fill="#F7BC4B"/>
<path d="M89.7529 115.454C89.7529 115.454 89.4793 115.061 88.6668 115.198C87.85 115.33 87.2983 115.506 87.1615 116.002C87.0246 116.498 87.7302 117.477 88.3203 117.747C88.9148 118.016 89.723 116.639 89.8513 116.211C89.9796 115.784 89.7529 115.454 89.7529 115.454Z" fill="#EE5D4F"/>
<path d="M87.6441 116.87C87.6441 116.87 88.1915 117.67 88.6105 117.49C89.2349 117.225 87.7039 116.173 87.4816 115.989C87.2635 115.805 87.0924 116.447 87.6441 116.87Z" fill="#F7BC4B"/>
<path d="M275.015 310.005C275.015 310.005 328.919 344.1 344.433 350.665C360.487 357.456 329.924 358.054 329.924 358.054C329.924 358.054 344.044 366.723 333.742 367.924C323.381 369.134 317.531 367.924 317.531 367.924C317.531 367.924 341.799 377.82 322.838 386.886C303.025 396.358 188.319 429.094 119.046 410.65C55.0581 393.608 53.6811 387.985 30.8366 389.28C7.85094 390.585 19.3031 380.206 27.3641 377.131C27.3641 377.131 -1.74531 379.18 6.45683 366.855C22.6302 342.552 34.8778 335.051 34.8778 335.051L275.015 310.005Z" fill="#1D2538"/>
<path d="M162.815 404.705C162.182 403.217 151.85 393.895 156.918 393.001C161.985 392.107 169.341 397.645 169.341 397.645C169.341 397.645 170.919 388.558 173.412 391.218C175.909 393.878 177.402 398.453 177.402 398.453C177.402 398.453 179.228 388.887 182.294 391.816C185.36 394.746 186.626 397.722 186.626 397.722C186.626 397.722 191.424 391.936 192.852 395.289C194.281 398.642 195.867 402.362 195.867 402.362C195.867 402.362 199.806 393.493 202.987 393.497C206.169 393.501 208.046 400.044 208.046 400.044C208.046 400.044 209.941 391.701 213.281 392.077C216.62 392.454 218.275 397.401 218.275 397.401C218.275 397.401 225.661 397.098 226.999 401.297C228.333 405.501 220.153 401.293 202.316 404.74C188.217 407.468 162.815 404.705 162.815 404.705Z" fill="#3E4C6F"/>
<path d="M295.379 380.181C295.379 380.181 306.45 371.961 303.585 371.572C300.664 371.174 297.154 375.258 297.154 375.258C297.154 375.258 297.299 368.502 294.37 371.324C291.479 374.104 288.806 383.666 288.806 383.666C288.806 383.666 291.962 370.589 287.822 375.1C283.79 379.496 282.336 384.859 282.336 384.859C282.336 384.859 270.105 368.412 264.448 374.916C258.991 381.19 262.818 384.983 262.818 384.983C262.818 384.983 258.833 375.553 255.202 381.292C251.708 386.813 268.014 396.328 295.379 380.181Z" fill="#3E4C6F"/>
<path d="M141.629 409.337C141.629 409.337 158.607 412.305 157.029 408.298C155.455 404.291 148.715 405.783 148.715 405.783C148.715 405.783 153.377 395.084 149.571 396.191C145.765 397.303 145.157 398.697 145.157 398.697C145.157 398.697 144.332 391.697 141.719 393.878C139.106 396.063 139.106 396.063 139.106 396.063C139.106 396.063 135.369 385.577 134.68 389.704C133.988 393.831 133.988 393.831 133.988 393.831C133.988 393.831 127.436 385.997 126.987 394.656C126.538 403.316 122.672 403.295 141.629 409.337Z" fill="#3E4C6F"/>
<path d="M122.843 390.795C122.843 390.795 117.767 382.165 117.262 384.705C116.754 387.241 118.785 393.839 118.785 393.839C118.785 393.839 110.155 383.183 108.128 387.75C106.097 392.317 111.682 396.38 111.682 396.38C111.682 396.38 97.4712 387.75 97.9801 391.303C98.489 394.857 115.235 405.514 124.37 402.469C133.5 399.424 122.843 390.795 122.843 390.795Z" fill="#3E4C6F"/>
<path d="M78.2446 380.95C78.2446 380.95 83.8125 373.21 86.5622 377.85C89.3119 382.49 84.0477 383.063 84.0477 383.063C84.0477 383.063 92.5876 381.553 89.6669 386.172C86.7461 390.79 84.6549 390.919 84.6549 390.919C84.6549 390.919 93.1393 392.492 88.9014 395.836C84.6678 399.181 65.2272 389.892 59.1462 389.276C53.0652 388.665 54.1428 380.086 58.539 381.421C62.9394 382.755 62.9394 382.755 62.9394 382.755C62.9394 382.755 59.5268 373.347 64.5131 374.27C69.5036 375.198 69.5036 375.198 69.5036 375.198C69.5036 375.198 75.6659 367.052 78.2446 380.95Z" fill="#3E4C6F"/>
<path d="M117.258 335.779C117.258 335.779 129.574 353.068 125.85 356.729C122.065 360.449 102.325 354.069 102.325 354.069C102.325 354.069 97.185 361.146 88.6664 361.219C80.1435 361.296 69.0976 350.019 69.0976 350.019C69.0976 350.019 50.9913 359.551 46.3172 358.054C41.673 356.566 33.7403 343.442 33.7403 343.442C33.7403 343.442 17.1179 348.133 14.1287 345.614C11.1737 343.126 42.9346 311.476 42.9346 311.476L54.5578 298.92L117.258 335.779Z" fill="#33A86D"/>
<path d="M74.5842 330.313C74.597 331.25 77.5648 390.097 77.5648 390.097L60.5704 384.106L66.4676 327.525L74.5842 330.313Z" fill="#4B3355"/>
<path d="M74.627 331.079C74.6398 332.015 76.3461 361.031 76.3461 361.031L68.7084 348.727L64.5347 345.007L65.6636 330.908L74.627 331.079Z" fill="#34283A"/>
<path d="M99.6226 305.232L115.407 329.668C115.407 329.668 125.131 343.587 123.215 346.649C121.27 349.754 97.7538 331.955 97.7538 331.955C97.7538 331.955 91.1468 345.61 85.7243 345.747C80.2975 345.884 70.4661 333.64 70.4661 333.64C70.4661 333.64 53.322 342.711 48.0663 341.68C42.832 340.654 37.85 325.344 37.85 325.344C37.85 325.344 29.7419 332.631 26.0044 329.176C22.3267 325.776 46.2617 302.286 50.6835 295.863C54.9171 289.713 54.9171 289.713 54.9171 289.713L99.6226 305.232Z" fill="#288453"/>
<path d="M94.8029 279.403L94.8756 280.498C96.3125 284.192 111.353 310.171 111.353 310.171C111.353 310.171 111.695 318.288 107.243 318.057C102.8 317.826 91.7966 309.65 91.7966 309.65C91.7966 309.65 82.2003 322.509 74.7722 320.978C67.3954 319.46 63.9102 306.502 63.9102 306.502C63.9102 306.502 52.3383 312.913 48.1902 310.056C44.0976 307.242 47.2836 302.577 47.2836 302.577C47.2836 302.577 39.2867 305.403 41.3736 302.252C43.4305 299.147 65.7661 268.793 65.7661 268.793C65.7661 268.793 76.44 254.578 82.5767 261.711C88.9656 269.135 95.7908 279.403 95.7908 279.403" fill="#33A86D"/>
<path d="M94.8671 271.953L94.9355 272.847C96.3211 275.862 111.947 302.885 111.947 302.885C111.947 302.885 109.266 306.738 106.572 306.541C103.877 306.344 91.9848 296.577 91.9848 296.577C91.9848 296.577 80.7336 307.148 75.6746 305.763C70.6584 304.386 66.9422 294.08 66.9422 294.08C66.9422 294.08 52.6077 299.109 50.7304 298.309C48.8573 297.513 49.9906 293.173 49.9906 293.173C49.9906 293.173 41.2496 296.115 43.1612 293.579C45.0428 291.082 66.8952 263.285 66.8952 263.285C66.8952 263.285 77.15 251.636 83.0771 257.486C89.2394 263.567 95.8165 271.958 95.8165 271.958" fill="#288453"/>
<path d="M79.4079 245.303C79.4079 245.303 92.9812 264.7 101.568 279.689C101.568 279.689 97.6211 284.671 94.8842 283.581C92.1602 282.495 84.9972 271.923 84.9972 271.923C84.9972 271.923 80.7465 279.873 75.2384 280.972C69.6962 282.076 64.0428 274.716 64.0428 274.716C64.0428 274.716 53.54 280.622 54.0446 277.543C54.5364 274.511 78.5013 247.043 79.4079 245.303Z" fill="#FFFCF3"/>
<path d="M67.5579 351.883L68.0625 361.3L67.2244 372.812L67.5023 383.802L64.4233 373.599L66.104 364.178L65.2102 344.78L68.6826 341.962L67.5579 351.883Z" fill="#34283A"/>
<path d="M70.851 372.299L71.7533 377.486L69.4954 382.224V376.584L69.9487 368.916L70.851 372.299Z" fill="#34283A"/>
<path d="M166.377 302.808C166.377 302.808 123.519 367.959 133.671 371.512C143.823 375.066 165.612 362.861 165.612 362.861C165.612 362.861 171.526 375.481 182.628 377.217C193.729 378.953 200.665 366.774 200.665 366.774C200.665 366.774 227.902 371.003 233.487 366.098C239.067 361.193 221.308 338.524 221.308 338.524L187.4 299.459L166.377 302.808Z" fill="#33A86D"/>
<path d="M189.128 346.637L191.501 408.217L179.099 407.361L182.794 345.781L189.128 346.637Z" fill="#4B3355"/>
<path d="M189.5 344.443L190.513 372.41L187.763 370.495L181.323 369.986L182.097 343.412L189.5 344.443Z" fill="#34283A"/>
<path d="M168.409 300.015C168.409 300.015 127.804 350.797 136.716 354.184C145.628 357.567 167.643 346.47 167.643 346.47C167.643 346.47 176.602 356.69 184.659 357.576C192.716 358.461 202.697 349.497 202.697 349.497C202.697 349.497 224.69 359.863 231.793 351.529C238.901 343.194 199.652 295.38 199.652 295.38L168.409 300.015Z" fill="#288453"/>
<path d="M204.202 297.278C204.202 297.278 187.434 275.456 180.853 260.112C180.853 260.112 171.565 281.156 167.724 287.434C163.884 293.712 156.341 303.192 159.06 304.608C161.78 306.023 170.209 298.211 170.209 298.211C170.209 298.211 176.14 303.556 179.963 304.39C183.786 305.224 187.071 302.188 187.071 302.188C187.071 302.188 195.795 306.943 199.4 306.391C203.005 305.84 204.202 297.278 204.202 297.278Z" fill="#FFFCF3"/>
<path d="M185.215 367.561L186.566 378.277L186.002 384.82L186.117 392.488L184.761 385.381L185.099 378.615L183.072 367.338L185.215 367.561Z" fill="#34283A"/>
<path d="M188.144 373.201L188.824 390.345L188.144 395.083L189.726 389.105L189.5 379.517L188.144 373.201Z" fill="#34283A"/>
<path d="M184.086 393.164L182.73 400.156L181.828 406.361L181.943 399.253L183.41 393.728L183.632 388.43L184.086 393.164Z" fill="#34283A"/>
<path d="M298.163 305.591C304.855 315.064 334.063 327.653 341.307 335.064C348.564 342.492 349.928 347.568 342.633 351.319C335.278 355.095 322.132 345.554 322.132 345.554C322.132 345.554 324.167 357.597 316.196 361.629C299.411 370.118 287.925 360.244 287.925 360.244C287.925 360.244 290.491 371.683 282.789 373.27C275.036 374.865 266.094 367.655 266.094 367.655C266.094 367.655 254.18 385.196 246.393 385.171C238.567 385.145 237.404 374.993 237.404 374.993C237.404 374.993 226.931 385.406 217.574 385.38C208.157 385.35 207.494 366.025 207.494 366.025C207.494 366.025 192.318 381.51 189.948 371.495C187.596 361.548 204.249 340.748 222.197 303.936C238.999 269.477 285.231 287.297 298.163 305.591Z" fill="#288453"/>
<path d="M259.085 317.039L253.615 391.162L274.305 394.96L266.701 312.784L259.085 317.039Z" fill="#665070"/>
<path d="M258.901 314.615L255.335 367.467L267.347 355.121L270.956 357.332L266.06 311.527L258.901 314.615Z" fill="#4B3355"/>
<path d="M307.669 308.773C307.669 308.773 350.138 339.833 344.117 342.407C338.057 344.999 314.721 330.797 314.721 330.797C314.721 330.797 315.503 351.4 302.747 353.603C289.858 355.826 279.706 341.522 279.706 341.522L267.762 339.687C267.762 339.687 254.749 365.923 249.506 365.859C240.962 365.756 244.524 351.948 244.524 351.948C244.524 351.948 230.313 369.152 220.093 369.032C209.808 368.912 213.054 350.891 213.054 350.891C213.054 350.891 201.533 365.076 193.34 364.794C185.103 364.507 206.793 329.355 224.403 296.709C240.145 267.532 276.144 284.663 307.669 308.773Z" fill="#33A86D"/>
<path d="M277.777 266.48C277.777 266.48 330.522 303.539 329.141 308.44C327.905 312.827 324.595 311.035 317.932 310.514C311.244 309.988 303.072 305.314 303.072 305.314C303.072 305.314 301.716 312.13 296.149 313.362C292.886 314.085 281.412 308.136 281.412 308.136C281.412 308.136 279.663 314.961 271.127 317.412C265.008 319.165 252.003 309.586 252.003 309.586C252.003 309.586 249.591 325.485 241.573 325.349C233.512 325.207 223.788 300.374 223.788 300.374L207.516 313.524C207.516 313.524 225.267 266.018 234.975 245.906C244.447 226.281 277.777 266.48 277.777 266.48Z" fill="#288453"/>
<path d="M232.242 293.181C232.242 293.181 235.984 315.868 228.949 319.734C221.859 323.629 223.929 310.762 223.929 310.762C223.929 310.762 213.627 323.086 211.065 319.665C208.508 316.248 214.025 309.09 214.025 309.09C214.025 309.09 204.749 318.369 209.248 307.409C213.755 296.427 214.944 295.281 214.944 295.281L232.242 293.181Z" fill="#288453"/>
<path d="M281.296 267.224C291.65 276.944 322.2 296.859 320.904 301.533C319.6 306.233 298.629 288.589 298.629 288.589C298.629 288.589 307.169 303.984 301.609 303.864C296.05 303.744 283.674 298.219 283.674 298.219C283.674 298.219 279.265 310.437 271.456 309.975C263.656 309.513 250.173 298.185 250.173 298.185C250.173 298.185 243.506 310.74 236.236 309.757C228.983 308.773 224.959 294.588 224.959 294.588C224.959 294.588 206.943 317.36 209.372 307.067C211.305 298.869 242.24 230.07 242.24 230.07C242.24 230.07 271.076 257.627 281.296 267.224Z" fill="#33A86D"/>
<path d="M242.565 223.583L288.413 266.625C288.413 266.625 285.774 268.344 280.728 268.31C275.665 268.271 270.362 261.553 270.362 261.553C270.362 261.553 273.33 269.182 267.745 269.965C262.138 270.752 256.605 260.655 256.605 260.655C256.605 260.655 248.351 273.403 241.428 272.809C234.479 272.21 236.176 263.811 236.176 263.811C229.099 272.005 215.889 288.439 216.103 281.293C216.317 274.19 234.158 242.318 242.565 223.583Z" fill="#F3E7D9"/>
<path d="M284.752 331.844C284.752 331.844 286.668 345.165 279.663 347.735C275.348 349.318 271.811 342.471 266.911 336.104C264.772 333.324 265.807 327.803 269.104 327.996L284.752 331.844Z" fill="#33A86D"/>
<path d="M259.547 361.552L256.934 368.912L256.772 377.61L255.271 388.759L258.503 381.031L258.722 370.777L261.069 361.073L259.547 361.552Z" fill="#4B3355"/>
<path d="M258.525 386.06L260.543 386.894L260.103 391.474L262.164 387.698L262.074 371.422L258.525 386.06Z" fill="#4B3355"/>
<path d="M264.559 353.239L261.57 356.284L264.277 378.953L266.103 371.238L264.559 353.239Z" fill="#4B3355"/>
<path d="M175.392 331.998C137.404 275.452 130.481 276.953 130.481 276.953C130.481 276.953 64.8382 359.205 72.1252 363.627C84.7577 371.29 104.763 355.04 104.763 355.04C104.763 355.04 98.2669 370.828 105.926 372.53C113.636 374.241 132.995 368.472 132.995 368.472C132.995 368.472 140.133 379.864 149.913 382.007C159.779 384.166 170.08 356.198 170.08 356.198C170.08 356.198 183.825 371.059 196.607 362.724C200.541 359.047 184.719 345.88 175.392 331.998Z" fill="#288453"/>
<path d="M135.39 331.451L136.335 406.506L119.461 402.751L129.929 325.806L135.39 331.451Z" fill="#665070"/>
<path d="M128.364 366.402L126.906 376.208L127.706 385.735L127.766 394.789L128.809 387.929L128.001 375.408L128.364 366.402Z" fill="#4B3355"/>
<path d="M133.025 351.041L130.691 361.604L131.678 376.494L133.53 398.701L133.872 388.43L133.265 374.66L132.226 361.026L133.025 351.041Z" fill="#4B3355"/>
<path d="M129.891 381.66L130.725 398.701L133.684 404.787L132.059 395.379L129.891 381.66Z" fill="#4B3355"/>
<path d="M135.985 341.261L135.989 357.417L128.847 358.97L124.199 367.548L129.023 335.616L135.985 341.261Z" fill="#4B3355"/>
<path d="M168.199 309.436C139.128 262.892 132.337 271.474 132.337 271.474C132.337 271.474 92.6989 323.321 85.9551 333.696C78.048 345.854 74.7723 347.244 79.9424 350.224C85.1768 353.243 108.693 339.696 108.693 339.696C108.693 339.696 112.999 348.817 122.163 350.575C131.396 352.35 137.926 344.297 137.926 344.297C137.926 344.297 150.939 356.292 159.103 355.39C167.237 354.492 166.822 342.018 166.822 342.018C166.822 342.018 188.195 351.99 195.375 352.345C202.568 352.705 175.285 320.781 168.199 309.436Z" fill="#33A86D"/>
<path d="M151.936 286.258L176.812 320.897C176.812 320.897 172.864 326.824 165.573 327.119C158.273 327.418 151.966 321.372 151.966 321.372C151.966 321.372 141.493 332.494 136.365 332.464C131.238 332.435 125.503 322.026 125.503 322.026C125.503 322.026 114.175 330.489 109.775 329.749C105.387 329.013 103.587 319.067 103.587 319.067C103.587 319.067 95.6455 322.56 94.508 319.37C93.3833 316.218 117.66 287.43 121.706 277.953C125.319 269.477 142.908 277.308 151.936 286.258Z" fill="#288453"/>
<path d="M149.053 279.621C158.35 292.916 175.918 310.428 173.596 313.653C171.239 316.924 168.096 313.345 162.939 313.144C157.786 312.943 150.794 302.41 150.794 302.41C150.794 302.41 141.664 316.052 135.596 316.163C129.523 316.274 125.046 302.38 125.046 302.38C125.046 302.38 113.538 315.29 109.625 313.866C105.738 312.455 106.336 303.556 106.336 303.556C106.336 303.556 101.684 308.619 98.9938 307.563C96.3168 306.507 122.54 273.39 122.54 273.39C122.54 273.39 140.33 267.142 149.053 279.621Z" fill="#33A86D"/>
<path d="M134.035 255.896L158.727 290.975L146.949 287.498C146.949 287.498 143.939 295.371 141.206 295.371C138.469 295.371 128.625 288.537 128.625 288.537C128.625 288.537 123.981 295.508 120.65 295.144C117.327 294.781 114.945 288.477 114.945 288.477C114.945 288.477 104.737 294.37 108.321 289.914C128.163 265.239 134.035 255.896 134.035 255.896Z" fill="#F3E7D9"/>
<path d="M7.46607 391.252C7.46607 391.252 25.2644 376.34 59.9033 384.517C94.5421 392.693 120.521 409.05 163.336 405.685C206.152 402.319 250.896 394.622 280.24 383.555C309.585 372.492 338.934 374.416 351.442 378.265C363.951 382.113 351.909 380.989 340.063 383.016C328.217 385.043 310.547 392.698 303.812 396.063C303.812 396.063 324.215 391.44 324.018 393.66C323.821 395.875 259.709 427.418 221.064 429.034C172.578 431.065 130.4 423.201 83.2524 406.365C47.0869 393.442 17.088 388.845 7.46607 391.252Z" fill="#1D2538"/>
</g>
<defs>
<clipPath id="clip0_144_2543">
<rect width="362" height="429" fill="white"/>
</clipPath>
</defs>
</svg>
