<svg width="362" height="429" viewBox="0 0 362 429" fill="none" xmlns="http://www.w3.org/2000/svg">
<g clip-path="url(#clip0_144_2543)">
<path d="M103.984 203.223C103.984 203.223 39.9632 256.067 24.2099 265.212C8.4567 274.356 -5.76809 253.016 2.36219 234.723C10.4925 216.43 21.1627 214.908 21.1627 214.908C21.1627 214.908 -1.19561 177.307 28.7856 147.836C58.7669 118.365 90.7743 113.286 95.8573 128.021C95.8573 128.021 118.177 99.08 162.422 87.88C202.563 77.7171 201.548 96.0103 179.19 118.369C179.19 118.369 194.432 110.746 201.548 113.289C208.657 115.829 103.984 203.223 103.984 203.223Z" fill="#F4E8D8"/>
<path d="M290.972 199.668C290.972 199.668 161.401 263.689 151.241 270.298C141.078 276.903 138.031 278.428 138.538 283C139.046 287.573 158.353 277.921 158.353 277.921C158.353 277.921 144.125 293.671 182.744 286.558C221.36 279.446 268.616 267.25 312.823 239.812C357.029 212.374 367.191 207.294 361.601 197.131C356.011 186.969 338.735 189.001 329.083 193.574C319.431 198.146 344.833 182.396 334.673 180.871C324.507 179.342 290.972 199.668 290.972 199.668Z" fill="#F4E8D8"/>
<path d="M213.483 150.633C213.483 150.633 213.483 139.202 192.143 134.626C170.802 130.05 170.802 139.963 172.328 148.347C173.853 156.731 186.048 162.067 188.335 162.067C190.621 162.067 213.483 150.633 213.483 150.633Z" fill="#48598B"/>
<path d="M185.791 209.321C185.791 209.321 179.694 223.549 189.857 232.187C200.02 240.824 217.802 244.382 234.063 232.187C250.323 219.991 210.69 180.361 185.791 209.321Z" fill="#273150"/>
<path d="M197.476 154.191C197.476 154.191 216.592 131.595 239.65 136.915C266.073 143.013 275.472 158.002 280.044 180.868C280.044 180.868 294.526 174.009 299.099 195.349C303.671 216.69 276.233 226.599 260.229 225.838C244.226 225.074 197.476 154.191 197.476 154.191Z" fill="#48598B"/>
<path d="M192.396 157.495C192.396 157.495 211.512 134.899 234.57 140.22C260.993 146.318 270.392 161.307 274.964 184.172C274.964 184.172 289.446 177.313 294.019 198.654C298.591 219.994 271.153 229.903 255.146 229.142C239.142 228.375 192.396 157.495 192.396 157.495Z" fill="#273150"/>
<path d="M178.932 184.933C178.932 184.933 167.501 192.556 162.926 181.122C158.35 169.687 175.882 159.781 182.741 160.542C189.603 161.306 187.316 175.024 178.932 184.933Z" fill="#273150"/>
<path d="M210.943 152.922C210.943 152.922 210.943 141.491 189.603 136.916C168.262 132.34 168.262 142.252 169.788 150.636C171.313 159.02 183.508 164.357 185.794 164.357C188.077 164.354 210.943 152.922 210.943 152.922Z" fill="#273150"/>
<path d="M206.625 243.367C206.625 243.367 191.636 258.863 183.252 268.772C175.536 277.888 158.1 285.794 155.56 297.989C153.02 310.185 179.694 313.996 187.824 305.866C195.954 297.736 222.885 265.218 226.95 256.58C231.012 247.939 220.342 230.153 206.625 243.367Z" fill="#CE6D3E"/>
<path d="M234.063 238.284C234.063 238.284 225.932 232.186 220.852 232.694C215.773 233.201 201.037 249.208 201.037 249.208C201.037 249.208 206.881 249.461 210.693 253.019C214.504 256.577 219.33 267.501 219.33 267.501C219.33 267.501 239.653 244.382 234.063 238.284Z" fill="#C93F37"/>
<path d="M217.295 306.373C217.295 306.373 200.781 294.265 186.132 290.79C173.407 287.775 167.248 287.233 160.643 290.79C154.038 294.348 148.955 304.765 154.799 307.051C160.64 309.337 217.295 306.373 217.295 306.373Z" fill="#F6874E"/>
<path d="M294.019 315.011C294.019 315.011 296.052 282.493 293.004 262.168C289.957 241.842 285.381 226.599 275.729 220.501C266.074 214.404 248.291 224.059 235.081 229.646C224.308 234.203 219.838 255.559 212.723 267.755C206.638 278.187 202.052 288.08 217.295 306.37C232.538 324.66 285.381 348.037 294.019 315.011Z" fill="#D09435"/>
<path d="M294.02 315.011C294.02 315.011 296.052 282.493 293.005 262.168C289.958 241.842 285.382 226.599 275.73 220.502C266.074 214.404 277.255 261.15 267.6 280.461C261.332 292.997 255.911 306.374 270.139 317.044C289.187 331.33 285.382 348.037 294.02 315.011Z" fill="#F6BE4A"/>
<path d="M212.213 217.451C229.906 238.136 234.572 246.414 234.572 246.414C234.572 246.414 252.865 245.907 252.354 233.712C251.844 221.516 245.38 219.516 237.619 208.306C228.474 195.096 206.305 210.544 212.213 217.451Z" fill="#F6874E"/>
<path d="M212.212 217.451C220.849 228.375 233.806 227.614 233.806 227.614C233.806 227.614 257.432 231.804 237.617 208.306C227.262 196.021 206.303 210.544 212.212 217.451Z" fill="#CE6D3E"/>
<path d="M198.876 152.033C198.876 152.033 180.955 150.456 176.646 178.074C171.056 213.896 179.693 227.617 214.754 223.805C249.816 219.994 250.577 197.382 248.29 181.378C246.004 165.368 219.452 146.696 198.876 152.033Z" fill="#F6874E"/>
<path d="M198.876 152.033C198.876 152.033 180.955 150.456 176.646 178.074C171.056 213.896 179.693 227.617 214.754 223.805C214.754 223.805 198.748 206.53 196.461 190.523C194.175 174.516 222.885 151.567 198.876 152.033Z" fill="#CE6D3E"/>
<path d="M179.947 166.704C179.947 166.704 186.963 151.564 208.657 155.208C224.535 157.877 241.557 174.009 241.557 174.009L248.29 168.165C248.29 168.165 233.549 145.376 203.066 148.982C186.427 150.95 181.79 160.606 179.947 166.704Z" fill="#F6BE4A"/>
<path d="M179.947 166.704C179.947 166.704 186.963 151.564 208.657 155.209L203.066 148.986C186.427 150.951 181.79 160.606 179.947 166.704Z" fill="#D09435"/>
<path d="M254.388 184.933C246.004 184.933 239.653 194.078 237.62 204.748C235.813 214.246 233.809 226.088 262.011 225.327C290.21 224.566 270.392 184.933 254.388 184.933Z" fill="#273150"/>
<path d="M241.683 195.603C246.804 195.603 250.956 189.716 250.956 182.454C250.956 175.192 246.804 169.305 241.683 169.305C236.561 169.305 232.409 175.192 232.409 182.454C232.409 189.716 236.561 195.603 241.683 195.603Z" fill="#F6874E"/>
<path d="M206.278 178.101C207.979 177.672 208.772 175.008 208.051 172.15C207.33 169.292 205.367 167.323 203.666 167.752C201.966 168.182 201.172 170.846 201.893 173.704C202.614 176.562 204.577 178.531 206.278 178.101Z" fill="#263052"/>
<path d="M187.495 183.257C187.666 180.846 186.641 178.809 185.207 178.707C183.772 178.606 182.471 180.478 182.3 182.889C182.129 185.3 183.153 187.337 184.588 187.439C186.023 187.54 187.324 185.668 187.495 183.257Z" fill="#263052"/>
<path d="M180.879 177.817L186.723 178.241" stroke="#273150" stroke-width="2" stroke-miterlimit="10"/>
<path d="M195.276 168.418C195.276 168.418 196.885 164.607 199.765 164.437" stroke="#273150" stroke-width="2" stroke-miterlimit="10"/>
<path d="M233.497 163.085C233.497 163.085 242.392 173.893 251.514 178.524C258.411 182.027 263.937 182.672 263.937 182.672L262.557 179.911L265.993 177.262C265.993 177.262 253.1 175.913 236.185 161.463L233.497 163.085Z" fill="#C93F37"/>
<path d="M232.595 161.823C232.595 161.823 237.251 175.024 244.235 182.499C249.517 188.15 254.487 190.652 254.487 190.652L254.137 187.585L258.27 186.275C258.27 186.275 246.62 180.592 235.674 161.223L232.595 161.823Z" fill="#C93F37"/>
<path d="M238.25 168.798C241.538 168.22 244.666 150.668 236.837 150.299C229.468 149.949 221.113 150.89 222.5 156.445C223.89 162 234.965 169.376 238.25 168.798Z" fill="#C93F37"/>
<path d="M241.088 158.815C241.088 158.815 239.878 151.288 237.543 151.455C235.206 151.622 237.296 154.836 237.9 159.794C238.503 164.752 241.512 161.99 241.088 158.815Z" fill="#F7BC4B"/>
<path d="M235.52 165.16C235.52 165.16 235.026 161.695 240.073 158.343C245.121 154.99 248.962 153.163 252.173 155.154C255.384 157.145 256.495 165.901 254.661 170.316C252.828 174.728 241.595 171.376 238.767 169.716C235.938 168.056 235.52 165.16 235.52 165.16Z" fill="#C93F37"/>
<path d="M253.894 162.228C253.894 162.228 254.95 169.251 251.81 170.4C247.144 172.105 250.085 158.805 250.358 156.702C250.631 154.599 254.735 157.196 253.894 162.228Z" fill="#F7BC4B"/>
<path d="M153.398 239.048C153.398 239.048 156.446 227.996 154.924 222.28C153.398 216.565 152.637 214.657 147.301 211.61C141.964 208.563 136.248 208.942 137.013 202.844C137.774 196.746 139.299 199.797 146.54 200.94C153.781 202.083 153.665 206.553 159.878 208.942C164.833 210.846 171.31 213.896 174.742 221.898C178.171 229.9 187.699 236.38 179.315 242.096C170.927 247.811 154.16 245.143 153.398 239.048Z" fill="#F6874E"/>
<path d="M237.109 231.679C237.109 231.679 225.421 256.577 221.866 266.74C218.309 276.903 222.881 282.49 231.011 287.066C239.142 291.638 248.794 293.417 256.924 277.157C265.055 260.896 272.167 249.972 269.12 241.842C266.072 233.712 247.272 217.451 237.109 231.679Z" fill="#F6874E"/>
<path d="M237.109 231.679C237.109 231.679 225.421 256.577 221.866 266.74C218.309 276.903 222.881 282.49 231.011 287.066C239.142 291.638 239.142 285.033 247.272 268.773C255.402 252.512 272.17 249.972 269.12 241.842C266.069 233.712 247.272 217.451 237.109 231.679Z" fill="#CE6D3E"/>
<path d="M236.602 233.204C236.602 233.204 246.257 210.339 249.305 205.766C252.352 201.194 258.96 198.143 266.073 200.686C273.185 203.226 276.743 220.501 276.743 227.11C276.743 233.715 267.087 253.533 266.58 257.598C266.073 261.664 265.055 242.863 254.892 236.765C244.729 230.668 236.602 233.204 236.602 233.204Z" fill="#C93F37"/>
<path d="M249.305 205.766C252.352 201.194 258.961 198.143 266.073 200.686C273.185 203.226 276.743 220.501 276.743 227.11C276.743 233.715 267.088 253.533 266.58 257.598C266.073 261.663 269.628 219.997 265.566 214.407C259.792 206.466 249.305 205.766 249.305 205.766Z" fill="#EE5D4F"/>
<path d="M251.026 270.645C251.026 270.645 245.458 250.033 226.433 250.842C207.408 251.651 215.759 282.365 234.785 284.789C253.81 287.213 251.026 270.645 251.026 270.645Z" fill="#CE6D3E"/>
<path d="M251.337 274.36C251.337 274.36 245.24 249.802 224.407 250.817C203.574 251.831 191.889 242.857 183.248 239.806C176.591 237.456 165.083 247.429 175.246 255.049C185.409 262.672 212.718 289.092 233.552 292.143C254.385 295.193 251.337 274.36 251.337 274.36Z" fill="#F6874E"/>
<path d="M159.878 234.093C159.878 234.093 147.304 229.139 145.779 227.996C144.253 226.853 143.492 221.516 138.538 221.516C133.583 221.516 137.777 226.853 138.156 229.9C138.538 232.947 142.192 235.821 144.889 239.555C146.54 241.842 148.319 246.035 153.402 248.193C161.943 251.821 171.313 255.052 178.171 252.765C185.03 250.479 171.692 231.425 159.878 234.093Z" fill="#F6874E"/>
<path d="M166.991 221.346C166.991 221.346 168.262 236.759 170.548 237.902C172.835 239.045 178.55 239.806 178.55 239.806C178.55 239.806 171.309 244.378 167.88 239.806C164.451 235.237 166.991 221.346 166.991 221.346Z" fill="#CE6D3E"/>
<path d="M158.53 213.302C157.74 212.355 154.895 211.247 151.889 212.67C148.887 214.092 148.887 214.41 149.044 217.412C149.202 220.414 149.044 226.58 149.991 227.53C150.939 228.477 153.944 229.585 155.681 227.53C157.419 225.475 158.212 221.84 158.212 218.835C158.215 215.829 159.319 214.249 158.53 213.302Z" fill="#F6874E"/>
<path d="M162.036 211.44C161.188 210.425 158.141 209.237 154.924 210.762C151.706 212.288 151.706 212.625 151.876 215.842C152.047 219.06 151.876 225.665 152.891 226.683C153.906 227.697 157.126 228.885 158.989 226.683C160.851 224.48 161.699 220.585 161.699 217.368C161.699 214.15 162.884 212.455 162.036 211.44Z" fill="#CE6D3E"/>
<path d="M163.054 211.44C162.206 210.425 159.159 209.237 155.941 210.762C152.724 212.288 152.724 212.625 152.894 215.842C153.064 219.06 152.894 225.665 153.909 226.683C154.923 227.697 158.144 228.885 160.006 226.683C161.869 224.48 162.716 220.585 162.716 217.368C162.716 214.15 163.898 212.455 163.054 211.44Z" fill="#F6874E"/>
<path d="M160.681 212.371C158.012 213.132 155.344 221.516 155.344 223.802C155.344 226.088 157.547 228.503 162.244 228.628C166.566 228.744 164.701 221.853 164.701 221.853C164.701 221.853 163.349 211.607 160.681 212.371Z" fill="#CE6D3E"/>
<path d="M183.505 240.57C183.505 240.57 182.997 228.375 181.854 225.328C180.711 222.28 176.139 219.23 170.802 216.183C165.465 213.135 164.704 211.61 162.036 212.371C159.367 213.132 156.699 221.516 156.699 223.802C156.699 226.089 157.714 227.106 162.415 227.232C166.737 227.347 166.056 221.853 166.056 221.853C166.056 221.853 167.748 223.802 168.13 229.897C168.512 235.991 169.912 245.143 183.505 240.57Z" fill="#F6874E"/>
<path d="M65.6224 291.34L85.6913 290.62L115.798 290.492L123.039 288.841L81.6261 286.555L65.6224 291.34Z" fill="#634874"/>
<path d="M72.6509 200.557L93.4839 202.969L130.828 187.98L131.107 186.172L112.792 181.25L72.6509 200.557Z" fill="#634874"/>
<path d="M39.9596 154.637L51.0858 148.462L51.4069 148.456L65.394 140.618H65.7151L79.5931 132.638L130.151 151.143V168.419L80.1037 152.624L39.9596 173.055V154.637Z" fill="#29ACE4"/>
<path d="M80.1037 152.453L39.9596 173.055V154.637L51.089 148.456H51.4069L65.394 140.618H65.7151L79.5931 132.638" fill="#48598B"/>
<path d="M39.9596 173.055L97.379 182.772L130.151 168.419L80.1037 152.453L65.7376 159.823L65.4037 159.813L51.4133 167.121L51.0826 167.118L39.9596 173.055Z" fill="#634874"/>
<path d="M53.6803 253.777L82.0336 257.511L128.118 246.854L110.779 241.485L53.6803 253.777Z" fill="#634874"/>
<path d="M83.1507 205.13L64.774 196.194L78.0709 187.091L130.915 201.659L83.1507 205.13Z" fill="#634874"/>
<path d="M39.4523 219.358V236.887L82.8138 240.316L127.103 230.407L116.815 220.248L129.897 217.197L101.444 199.286L79.8469 201.826L39.4523 219.358Z" fill="#634874"/>
<path d="M39.9596 174.009L79.5931 153.301L98.2877 159.206L98.3937 170.368L115.682 164.697L131.085 169.562V186.837L80.1037 173.12L39.9596 192.427V174.009Z" fill="#29ACE4"/>
<path d="M80.1037 173.12L39.9596 192.427V174.009L79.5931 153.301" fill="#48598B"/>
<path d="M98.4061 170.367L115.672 164.735V182.772L98.3933 186.288L98.4061 170.367Z" fill="#48598B"/>
<path d="M39.9596 192.427L57.9156 193.23L98.4161 178.042L80.1037 173.119L39.9596 192.427Z" fill="#634874"/>
<path d="M64.774 181.757V196.194L80.0167 189.801V174.388L64.774 181.757Z" fill="#48598B"/>
<path d="M130.915 187.177V201.659L80.0171 189.888V174.388L130.915 187.177Z" fill="#29ACE4"/>
<path d="M39.4523 207.163V220.161L79.8469 204.918V190.395L39.4523 207.163Z" fill="#48598B"/>
<path d="M79.8466 190.395V204.918L96.4892 208.942V194.46L79.8466 190.395Z" fill="#29ACE4"/>
<path d="M113.681 198.438L113.299 213.427L129.897 217.197V202.336L113.681 198.438Z" fill="#29ACE4"/>
<path d="M39.494 221.262V236.887L53.9757 230.407V215.547L39.494 221.262Z" fill="#48598B"/>
<path d="M65.028 211.989V226.47L79.8468 221.262V206.02L65.028 211.989Z" fill="#48598B"/>
<path d="M79.8466 206.02L127.103 217.833V230.407L79.8466 221.262V206.02Z" fill="#29ACE4"/>
<path d="M68.2487 256.217V241.781L110.618 228.131V244.112L68.2487 256.217Z" fill="#48598B"/>
<path d="M110.563 228.137V244.08L128.118 246.876V231.602L110.563 228.137Z" fill="#29ACE4"/>
<path d="M37.6956 263.718L85.5268 271.463L113.437 263.788L68.4475 253.237L37.6956 263.718Z" fill="#634874"/>
<path d="M51.0662 241.443L50.7258 260.282L80.7328 264.864L81.0539 245.958L51.0662 241.443Z" fill="#29ACE4"/>
<path d="M51.8948 259.704L64.7967 256.313L88.4458 258.683L71.8545 262.109L51.8948 259.704Z" fill="#634874"/>
<path d="M38.0134 246.122L37.6956 263.718L50.9089 260.347L51.2493 241.427L38.0134 246.122Z" fill="#48598B"/>
<path d="M52.293 241.53L51.8948 259.704L64.7998 256.384L65.0567 237.455L52.293 241.53Z" fill="#48598B"/>
<path d="M65.0181 237.474L64.7291 256.516L113.533 263.789L113.797 247.756L65.0181 237.474Z" fill="#29ACE4"/>
<path d="M130.321 278.171L109.064 284.14L76.1895 282.194L114.95 275.927L130.321 278.171Z" fill="#634874"/>
<path d="M114.95 260.407L130.321 262.53V278.171L114.95 275.926V260.407Z" fill="#29ACE4"/>
<path d="M115.014 260.43V275.927L89.6726 280.881V266.57L115.014 260.43Z" fill="#48598B"/>
<path d="M98.1597 274.035L59.2711 282.153L40.4706 280.839L75.4225 270.497L98.1597 274.035Z" fill="#634874"/>
<path d="M80.9488 255.79V271.36L40.4707 280.839V266.229L80.9488 255.79Z" fill="#48598B"/>
<path d="M80.9485 255.79V271.36L98.0953 274.132V258.61L80.9485 255.79Z" fill="#29ACE4"/>
<path d="M127.951 292.906L94.2453 299.852L71.126 293.459L113.553 284.863L127.951 292.906Z" fill="#634874"/>
<path d="M65.6224 276.434V291.339L81.7 287.615V272.16L65.6224 276.434Z" fill="#48598B"/>
<path d="M127.951 279.609V292.906L79.4263 288.375V272.921L127.951 279.609Z" fill="#29ACE4"/>
<path d="M42.0791 294.814V309.886H80.9484L100.048 306.329L99.9608 291.764L81.3723 289.606L42.0791 294.814Z" fill="#48598B"/>
<path d="M76.546 297.266V311.045H112.069L129.525 307.792L129.447 294.479L112.458 292.508L76.546 297.266Z" fill="#48598B"/>
<path d="M112.805 292.47V308.143L129.602 307.847V293.979L112.805 292.47Z" fill="#29ACE4"/>
<path d="M81.7543 289.561V306.711L100.131 306.386V291.214L81.7543 289.561Z" fill="#29ACE4"/>
<path d="M51.2467 148.456V167.115" stroke="#29ACE4" stroke-miterlimit="10"/>
<path d="M65.5582 140.618V159.813" stroke="#29ACE4" stroke-miterlimit="10"/>
<path d="M113.681 198.438L96.5314 202.545V210.149L110.4 213.639L113.299 213.427L113.681 198.438Z" fill="#48598B"/>
<path d="M333.653 340.417C332.718 338.824 297.07 305.356 212.212 304.341C143.451 303.519 39.9604 306.374 17.0947 313.996C17.0947 313.996 85.438 310.185 128.119 320.348C170.8 330.511 199.108 336.303 219.835 338.895C236.096 340.927 265.736 343.637 272.849 344.145C306.346 346.537 269.5 331.712 306.597 338.513C329.462 342.703 334.732 342.257 333.653 340.417Z" fill="#866694"/>
<path d="M119.735 323.649C119.735 323.649 96.8689 315.011 58.2532 317.551C12.1623 320.582 0.426025 314.404 0.426025 314.404C0.426025 314.404 13.1288 333.002 42.9367 327.826C83.3826 320.807 119.735 323.649 119.735 323.649Z" fill="#866694"/>
</g>
<defs>
<clipPath id="clip0_144_2543">
<rect width="362" height="429" fill="white"/>
</clipPath>
</defs>
</svg>
